<svg width="774" height="388" viewBox="0 0 774 388" fill="none" xmlns="http://www.w3.org/2000/svg">
<g clip-path="url(#clip0_10_420)">
<path d="M254.894 388C231.539 388 208.219 387.582 184.934 386.746C151.662 385.551 117.258 384.316 85.2804 366.58C62.9107 354.174 43.0989 334.271 27.9873 309.019C17.887 291.904 10.481 273.336 6.02946 253.968C-2.27438 218.705 -1.99154 181.964 6.85419 146.834C9.95407 134.789 14.2275 123.077 19.6131 111.866C42.933 63.5753 85.4669 31.1591 136.309 22.9298C136.729 22.8753 137.153 22.8662 137.575 22.9027C137.804 22.915 138.032 22.9281 138.264 22.9184L138.563 22.8233C139.33 22.5568 140.118 22.3546 140.918 22.2189C219.33 10.5457 302.223 34.1647 380.629 90.5207C441.253 134.101 521.596 157.568 626.25 162.263L627.736 162.341C656.87 164.015 685.05 176.026 709.235 197.077C733.106 217.855 751.029 245.576 761.066 277.246C762.3 281.107 763.431 285.126 764.428 289.191C765.356 292.968 765.291 296.922 764.238 300.667C763.185 304.412 761.181 307.82 758.42 310.561V310.568L758.16 310.836C757.533 311.46 756.872 312.059 756.197 312.616L755.404 313.27C748.716 318.779 743.433 323.131 737.111 326.511C732.894 328.75 728.41 330.444 723.766 331.55C698.263 337.767 672.364 343.532 646.789 348.685C597.121 358.699 546.144 366.96 495.274 373.238C415.525 383.071 335.247 388.001 254.894 388ZM136.981 24.6131C136.824 24.6116 136.668 24.6222 136.514 24.6448C86.147 32.7971 44.0158 64.8951 20.9271 112.708C15.5946 123.808 11.3635 135.403 8.29446 147.329C-0.470668 182.148 -0.749989 218.563 7.47999 253.512C11.888 272.695 19.2221 291.085 29.225 308.037C44.1887 333.041 63.7979 352.745 85.933 365.02C117.624 382.597 151.866 383.826 184.981 385.015C288.553 388.715 392.255 384.202 495.114 371.517C545.95 365.243 596.894 356.987 646.53 346.979C672.087 341.831 697.968 336.07 723.454 329.856C727.986 328.778 732.363 327.126 736.478 324.941C742.673 321.629 747.905 317.319 754.529 311.862L755.322 311.208C755.903 310.729 756.472 310.217 757.017 309.684L757.174 309.52C762.617 304.034 764.734 296.795 762.981 289.661V289.661C761.995 285.639 760.876 281.663 759.654 277.842C739.15 213.147 686.107 167.427 627.664 164.071L626.186 163.993C578.382 161.848 536.549 155.906 498.303 145.825C452.646 133.792 412.787 115.679 379.833 91.9889C301.725 35.8489 219.179 12.3178 141.11 23.9356C140.381 24.0614 139.663 24.2474 138.964 24.4918L138.425 24.6427C138.119 24.6564 137.812 24.6527 137.506 24.6317C137.326 24.6224 137.151 24.6131 136.981 24.6131H136.981Z" fill="#F0F0F0"/>
<path d="M241.766 126.415C239.604 124.341 237.392 112.773 234.632 111.599C236.695 116.159 235.197 117.366 235.186 122.371C235.212 125.213 234.88 128.046 234.198 130.805H187.439V94.3131C187.439 91.0341 188.085 87.7873 189.339 84.758C190.594 81.7286 192.433 78.9761 194.752 76.6576C197.07 74.339 199.823 72.4999 202.852 71.2451C205.882 69.9904 209.128 69.3446 212.407 69.3447C213.659 69.3692 214.902 69.5512 216.108 69.8865C220.127 70.9716 223.791 73.0945 226.73 76.0423C229.67 78.99 231.783 82.659 232.857 86.6811C236.421 99.7104 242.091 121.399 241.766 126.415Z" fill="#2F2E41"/>
<path d="M190.183 171.307L190.206 142.864L173.486 144.358L179.387 162.297L176.625 207.388C175.285 207.689 174.062 208.372 173.105 209.356C172.147 210.34 171.497 211.581 171.232 212.928C170.968 214.275 171.101 215.669 171.616 216.942C172.13 218.215 173.004 219.31 174.131 220.095C175.257 220.879 176.587 221.319 177.96 221.361C179.332 221.402 180.686 221.044 181.858 220.329C183.03 219.614 183.968 218.573 184.559 217.334C185.15 216.095 185.367 214.711 185.185 213.35L190.183 171.307Z" fill="#FFB6B6"/>
<path d="M223.087 374.565L229.842 374.564L233.055 348.51H223.085L223.087 374.565Z" fill="#FFB6B6"/>
<path d="M220.799 371.233L231.477 370.595V375.17L241.629 382.181C242.131 382.528 242.508 383.025 242.707 383.601C242.906 384.177 242.915 384.802 242.734 385.383C242.553 385.965 242.19 386.474 241.699 386.835C241.208 387.196 240.615 387.391 240.006 387.391H227.293L225.102 382.865L224.246 387.391H219.453L220.799 371.233Z" fill="#2F2E41"/>
<path d="M184.029 374.565L190.785 374.564L193.997 348.51H184.028L184.029 374.565Z" fill="#FFB6B6"/>
<path d="M181.742 371.233L192.42 370.595V375.17L202.572 382.181C203.073 382.528 203.451 383.025 203.65 383.601C203.848 384.177 203.858 384.802 203.676 385.383C203.495 385.965 203.133 386.474 202.642 386.835C202.151 387.196 201.557 387.391 200.948 387.391H188.235L186.044 382.865L185.189 387.391H180.395L181.742 371.233Z" fill="#2F2E41"/>
<path d="M217.072 112.147L203.078 112.422L193.201 122.848L185.282 124.01C181.7 124.535 178.406 126.274 175.952 128.936C173.498 131.598 172.032 135.022 171.799 138.635L173.171 146.17H181.403L186.164 174.129C184.313 178.847 184.187 182.571 187.988 184.034L199.786 206.259L234.632 190.619C236.399 187.581 236.965 184.53 235.159 181.562L237.65 138.762H246.026C246.026 130.757 243.319 124.009 235.363 123.118C232.204 122.776 229.029 122.594 225.852 122.574L217.072 112.147Z" fill="#E6E6E6"/>
<path d="M234.632 190.619C234.632 190.619 200.609 196.656 187.988 184.034C187.988 184.034 186.706 186.21 184.775 189.817C184.22 190.855 183.148 191.558 182.5 192.814C181.911 193.956 180.397 195.361 179.756 196.656C179.24 197.698 180.068 199.06 179.531 200.186C173.068 213.743 165.516 232.867 167.135 245.495C168.179 253.638 170.335 272.587 172.606 292.94C172.784 294.53 171.347 296.572 171.525 298.175C171.693 299.686 173.477 300.758 173.645 302.272C173.757 303.278 172.511 304.304 172.622 305.309C172.745 306.411 174.224 307.492 174.345 308.59C177.456 336.692 180.305 362.928 180.305 362.928H196.219L199.222 303.006L196.768 281.164L202.53 236.989L210.487 278.969L211.51 302.595L219.919 364.026H234.632V304.557L235.729 301.468L234.632 297.505L235.729 293.236L234.632 288.587V190.619Z" fill="#2F2E41"/>
<path d="M221.367 104.033C219.199 106.912 216.116 108.967 212.624 109.86C209.132 110.753 205.44 110.43 202.156 108.944C198.873 107.459 196.193 104.899 194.558 101.687C192.923 98.475 192.431 94.802 193.163 91.2729C193.895 87.7438 195.807 84.5692 198.584 82.2717C201.36 79.9743 204.837 78.691 208.441 78.6334C212.044 78.5757 215.56 79.747 218.409 81.9544C221.258 84.1619 223.271 87.2738 224.115 90.7776C224.161 90.9677 224.199 91.1568 224.237 91.353C224.682 93.5492 224.657 95.8151 224.162 98.0008C223.668 100.187 222.715 102.242 221.367 104.033Z" fill="#FFB6B6"/>
<path d="M218.06 94.9822C217.723 93.2934 216.872 91.7502 215.623 90.5647C215.746 92.183 215.522 93.809 214.965 95.3334C210.793 95.7028 206.602 94.8727 202.886 92.9408C200.088 91.0422 196.526 91.2067 192.378 92.9408C192.377 90.923 192.775 88.9248 193.547 87.0605C194.319 85.1963 195.451 83.5023 196.878 82.0755C198.304 80.6486 199.998 79.5169 201.863 78.7448C203.727 77.9727 205.725 77.5754 207.743 77.5757H210.487C214.562 77.5764 218.469 79.1955 221.351 82.0769C224.232 84.9582 225.851 88.866 225.852 92.9408C223.32 93.8491 220.712 94.5322 218.06 94.9822Z" fill="#2F2E41"/>
<path d="M98.0205 290.817C122.4 290.817 142.163 271.054 142.163 246.675C142.163 222.296 122.4 202.533 98.0205 202.533C73.6416 202.533 53.8785 222.296 53.8785 246.675C53.8785 271.054 73.6416 290.817 98.0205 290.817Z" fill="#F0F0F0"/>
<path d="M379.318 88.2837C403.697 88.2837 423.46 68.5207 423.46 44.1418C423.46 19.763 403.697 0 379.318 0C354.939 0 335.176 19.763 335.176 44.1418C335.176 68.5207 354.939 88.2837 379.318 88.2837Z" fill="#F0F0F0"/>
<path d="M729.858 297.741C754.237 297.741 774 277.978 774 253.599C774 229.22 754.237 209.458 729.858 209.458C705.479 209.458 685.716 229.22 685.716 253.599C685.716 277.978 705.479 297.741 729.858 297.741Z" fill="#F0F0F0"/>
<path d="M458.947 48.9556V149.05C458.947 151.129 458.127 153.125 456.665 154.603C455.202 156.08 453.216 156.922 451.137 156.943C451.108 156.946 451.079 156.947 451.05 156.947H439.4C430.079 156.947 421.139 153.244 414.548 146.653C407.957 140.062 404.254 131.122 404.254 121.801V48.9556C404.254 46.8613 405.086 44.8528 406.567 43.3719C408.048 41.891 410.056 41.0591 412.151 41.0591H416.871C414.684 47.4386 444.365 50.1244 445.995 41.0591H451.05C453.145 41.0591 455.153 41.8911 456.634 43.372C458.115 44.8528 458.947 46.8613 458.947 48.9556Z" fill="#3420FF"/>
<path d="M424.375 33.5744C424.375 33.3 424.484 33.037 424.678 32.843C424.872 32.649 425.136 32.5399 425.41 32.5396H432.447C432.721 32.5403 432.983 32.6497 433.177 32.8437C433.37 33.0377 433.479 33.3005 433.479 33.5744C433.479 33.8484 433.37 34.1111 433.177 34.3051C432.983 34.4991 432.721 34.6085 432.447 34.6093H425.41C425.136 34.609 424.872 34.4998 424.678 34.3058C424.484 34.1118 424.375 33.8488 424.375 33.5744Z" fill="#3F3D56"/>
<path d="M453.468 169.643H408.966C405.513 169.639 402.203 168.266 399.762 165.824C397.32 163.383 395.947 160.073 395.943 156.62V86.6501C395.698 86.4746 395.499 86.2434 395.362 85.9756C395.225 85.7079 395.154 85.4113 395.154 85.1105V78.0734C395.154 77.7726 395.225 77.4761 395.362 77.2084C395.499 76.9407 395.698 76.7096 395.943 76.5342V74.6455C395.698 74.4701 395.499 74.239 395.362 73.9713C395.225 73.7036 395.154 73.4071 395.154 73.1063V66.0689C395.154 65.7681 395.225 65.4716 395.362 65.2039C395.499 64.9362 395.698 64.7051 395.943 64.5297V61.1162C395.641 60.9541 395.389 60.7131 395.214 60.4189C395.038 60.1248 394.946 59.7885 394.947 59.446V52.4089C394.946 52.0664 395.038 51.73 395.214 51.4358C395.389 51.1415 395.641 50.9004 395.943 50.7383V41.3849C395.947 37.9322 397.32 34.6221 399.762 32.1808C402.203 29.7394 405.513 28.3662 408.966 28.3623H453.468C456.921 28.3662 460.231 29.7395 462.672 32.1808C465.113 34.6222 466.487 37.9323 466.491 41.3849V61.7734C466.725 61.9201 466.919 62.124 467.053 62.3659C467.187 62.6079 467.257 62.8799 467.257 63.1566V76.5748C467.257 76.8515 467.187 77.1236 467.053 77.3656C466.919 77.6077 466.725 77.8116 466.491 77.9584V156.62C466.487 160.073 465.113 163.383 462.672 165.824C460.231 168.266 456.921 169.639 453.468 169.643ZM408.966 30.0934C405.972 30.0967 403.102 31.2874 400.985 33.4043C398.868 35.5211 397.677 38.3912 397.674 41.3849V52.2108L396.841 52.2429C396.798 52.2444 396.757 52.2625 396.727 52.2934C396.696 52.3243 396.679 52.3657 396.678 52.409V59.4459C396.679 59.4892 396.696 59.5305 396.727 59.5614C396.757 59.5922 396.798 59.6104 396.841 59.6121L397.674 59.6438V65.7451L397.015 65.9074C396.979 65.9162 396.946 65.9368 396.923 65.966C396.899 65.9952 396.886 66.0314 396.885 66.0689V73.1063C396.886 73.1438 396.899 73.18 396.923 73.2092C396.946 73.2384 396.979 73.259 397.015 73.2678L397.674 73.4301V77.7496L397.015 77.9119C396.979 77.9207 396.946 77.9413 396.923 77.9705C396.899 77.9997 396.886 78.0359 396.885 78.0734V85.1104C396.886 85.148 396.899 85.1842 396.923 85.2135C396.946 85.2428 396.979 85.2634 397.015 85.2723L397.674 85.4346V156.62C397.677 159.614 398.868 162.484 400.985 164.601C403.102 166.718 405.972 167.909 408.966 167.912H453.468C456.462 167.908 459.332 166.718 461.449 164.601C463.565 162.484 464.756 159.614 464.76 156.62V76.4763H465.526V63.2555H464.76V41.3849C464.756 38.3912 463.565 35.5212 461.449 33.4043C459.332 31.2875 456.462 30.0968 453.468 30.0933L408.966 30.0934Z" fill="#3F3D56"/>
<path d="M436.38 34.6093C436.951 34.6093 437.414 34.146 437.414 33.5744C437.414 33.0029 436.951 32.5396 436.38 32.5396C435.808 32.5396 435.345 33.0029 435.345 33.5744C435.345 34.146 435.808 34.6093 436.38 34.6093Z" fill="#3F3D56"/>
<path d="M211.259 234.04H95.462C93.8176 234.036 92.2417 233.381 91.0788 232.219C89.9159 231.056 89.2607 229.48 89.2562 227.836V171.413C89.2604 169.768 89.9155 168.193 91.0782 167.03C92.2409 165.867 93.8167 165.211 95.4612 165.207H211.258C212.902 165.211 214.478 165.866 215.641 167.029C216.804 168.192 217.459 169.768 217.464 171.412V227.835C217.46 229.479 216.805 231.055 215.642 232.218C214.479 233.381 212.903 234.036 211.259 234.04Z" fill="white"/>
<path d="M211.259 234.04H95.462C93.8176 234.036 92.2417 233.381 91.0788 232.219C89.9159 231.056 89.2607 229.48 89.2562 227.836V171.413C89.2604 169.768 89.9155 168.193 91.0782 167.03C92.2409 165.867 93.8167 165.211 95.4612 165.207H211.258C212.902 165.211 214.478 165.866 215.641 167.029C216.804 168.192 217.459 169.768 217.464 171.412V227.835C217.46 229.479 216.805 231.055 215.642 232.218C214.479 233.381 212.903 234.036 211.259 234.04ZM95.462 166.938C94.2762 166.942 93.1399 167.414 92.3015 168.253C91.463 169.092 90.9906 170.228 90.9873 171.414V227.835C90.9907 229.021 91.4634 230.157 92.302 230.995C93.1406 231.834 94.277 232.306 95.4629 232.309H211.257C212.443 232.306 213.58 231.834 214.418 230.995C215.257 230.156 215.729 229.02 215.733 227.834V171.413C215.729 170.227 215.257 169.091 214.418 168.252C213.579 167.414 212.443 166.941 211.257 166.938L95.462 166.938Z" fill="#3F3D56"/>
<path d="M159.567 225.702C136.729 225.702 112.915 225.484 104.03 225.343C102.861 225.319 101.748 224.838 100.928 224.005C100.109 223.171 99.6471 222.05 99.6426 220.881V174.176C99.643 173.757 99.8093 173.355 100.105 173.059C100.401 172.763 100.802 172.595 101.22 172.594H205.496C205.915 172.594 206.316 172.76 206.612 173.056C206.909 173.352 207.076 173.753 207.077 174.171V205.86C207.058 211.033 205.012 215.992 201.378 219.673C197.744 223.355 192.812 225.466 187.64 225.553C179.359 225.66 169.554 225.702 159.567 225.702Z" fill="#3420FF"/>
<path d="M199.306 202.949H105.085C104.296 202.947 103.527 202.702 102.882 202.247C102.237 201.792 101.748 201.15 101.481 200.408L90.8165 170.49C90.611 169.913 90.5469 169.295 90.6297 168.688C90.7125 168.081 90.9398 167.503 91.2923 167.002C91.6449 166.501 92.1125 166.092 92.6559 165.809C93.1993 165.527 93.8026 165.379 94.4151 165.377L212.19 165.213C212.75 165.213 213.303 165.335 213.81 165.571C214.318 165.808 214.767 166.153 215.127 166.582C215.487 167.011 215.748 167.513 215.893 168.054C216.037 168.595 216.061 169.161 215.963 169.712L216.054 169.751L215.716 170.54L215.712 170.548L202.82 200.629C202.527 201.318 202.037 201.905 201.412 202.317C200.787 202.73 200.055 202.949 199.306 202.949ZM212.195 166.944L94.4185 167.108C94.083 167.109 93.7524 167.19 93.4548 167.345C93.1571 167.5 92.9009 167.724 92.7077 167.998C92.5146 168.272 92.3901 168.589 92.3447 168.922C92.2993 169.254 92.3344 169.593 92.447 169.909L103.111 199.826C103.258 200.232 103.526 200.584 103.879 200.833C104.233 201.082 104.654 201.216 105.086 201.218H199.306C199.716 201.218 200.117 201.098 200.459 200.872C200.8 200.646 201.068 200.325 201.229 199.948L214.122 169.866L214.756 170.137L214.122 169.866C214.258 169.547 214.314 169.199 214.283 168.854C214.252 168.508 214.136 168.176 213.945 167.886C213.754 167.597 213.494 167.359 213.189 167.195C212.884 167.03 212.542 166.944 212.195 166.944Z" fill="#3F3D56"/>
<path d="M153.184 209.461C157.259 209.461 160.562 206.158 160.562 202.083C160.562 198.009 157.259 194.706 153.184 194.706C149.11 194.706 145.807 198.009 145.807 202.083C145.807 206.158 149.11 209.461 153.184 209.461Z" fill="white"/>
<path d="M431.885 145.412C435.96 145.412 439.263 142.109 439.263 138.034C439.263 133.96 435.96 130.657 431.885 130.657C427.811 130.657 424.507 133.96 424.507 138.034C424.507 142.109 427.811 145.412 431.885 145.412Z" fill="white"/>
<path d="M710.929 245.048L691.221 225.591C690.261 224.636 689.123 223.88 687.871 223.366C686.619 222.853 685.278 222.591 683.924 222.596H683.855C682.491 222.6 681.142 222.875 679.885 223.403C678.628 223.932 677.489 224.705 676.533 225.678C672.126 230.137 669.62 236.131 669.54 242.401C669.461 248.67 671.816 254.725 676.108 259.295C676.316 259.52 676.533 259.736 676.749 259.952C677.948 261.144 679.271 262.203 680.696 263.112C684.592 265.629 689.135 266.961 693.774 266.946H693.921C697.105 266.935 700.255 266.293 703.189 265.057C706.123 263.821 708.783 262.015 711.015 259.745C712.949 257.783 714.026 255.133 714.01 252.378C713.994 249.623 712.886 246.987 710.929 245.048ZM709.786 258.524C706.127 262.21 701.309 264.523 696.144 265.071C690.979 265.62 685.783 264.371 681.431 261.536C680.187 260.713 679.024 259.771 677.961 258.723C673.714 254.529 671.307 248.82 671.27 242.852C671.233 236.883 673.568 231.145 677.762 226.898C678.559 226.086 679.51 225.44 680.559 224.999C681.608 224.557 682.734 224.329 683.872 224.327H683.924C685.051 224.323 686.168 224.541 687.21 224.969C688.253 225.397 689.201 226.026 690 226.82L709.708 246.286C711.34 247.899 712.264 250.094 712.279 252.389C712.294 254.683 711.397 256.89 709.786 258.524Z" fill="#3F3D56"/>
<path d="M646.265 181.189L626.557 161.724C624.617 159.799 621.993 158.722 619.26 158.729H619.2C617.834 158.735 616.483 159.01 615.225 159.541C613.967 160.071 612.826 160.845 611.869 161.819C608.226 165.519 605.864 170.288 605.128 175.428C604.393 180.568 605.324 185.809 607.783 190.381L607.792 190.39C608.807 192.26 610.067 193.986 611.54 195.523C611.704 195.713 611.895 195.903 612.085 196.094C616.611 200.586 622.733 203.101 629.11 203.087H629.266C632.45 203.074 635.6 202.43 638.534 201.192C641.468 199.955 644.128 198.149 646.36 195.877C647.318 194.907 648.076 193.757 648.59 192.493C649.104 191.23 649.364 189.878 649.355 188.514C649.346 187.15 649.069 185.801 648.538 184.544C648.008 183.287 647.236 182.148 646.265 181.189V181.189ZM645.122 194.666C643.051 196.773 640.582 198.45 637.859 199.598C635.136 200.746 632.213 201.344 629.257 201.356H629.11C624.672 201.354 620.333 200.041 616.64 197.58C612.947 195.119 610.064 191.62 608.353 187.525C606.643 183.43 606.181 178.92 607.027 174.563C607.873 170.207 609.988 166.197 613.106 163.039C614.72 161.408 616.915 160.484 619.21 160.469C621.504 160.454 623.711 161.351 625.345 162.961L645.053 182.418C646.684 184.035 647.607 186.232 647.62 188.528C647.633 190.824 646.734 193.031 645.122 194.666L645.122 194.666Z" fill="#3F3D56"/>
<path d="M712.188 251.165L690.461 229.706C689.036 228.302 687.113 227.52 685.112 227.532C683.112 227.545 681.198 228.35 679.791 229.772C678.031 231.55 676.638 233.658 675.693 235.975C674.748 238.292 674.268 240.773 674.283 243.275C674.297 245.777 674.804 248.252 675.775 250.558C676.747 252.865 678.163 254.957 679.943 256.715C681.724 258.474 683.833 259.864 686.151 260.806C688.469 261.749 690.95 262.225 693.453 262.209C695.955 262.192 698.429 261.682 700.735 260.708C703.04 259.734 705.13 258.315 706.887 256.533L712.188 251.165Z" fill="#3420FF"/>
<path d="M647.529 187.303L625.801 165.843C624.376 164.439 622.453 163.658 620.452 163.67C618.452 163.682 616.538 164.488 615.131 165.909C613.371 167.688 611.978 169.796 611.033 172.113C610.088 174.43 609.609 176.91 609.623 179.413C609.637 181.915 610.144 184.39 611.115 186.696C612.087 189.002 613.503 191.094 615.283 192.853C617.064 194.611 619.173 196.002 621.491 196.944C623.809 197.887 626.291 198.363 628.793 198.346C631.295 198.329 633.77 197.819 636.075 196.846C638.38 195.872 640.47 194.453 642.227 192.671L647.529 187.303Z" fill="#3420FF"/>
<path d="M688.312 264.531L687.793 265.898C685.352 264.972 682.987 264.043 680.696 263.111C640.12 246.554 620.749 227.175 607.792 190.39L607.783 190.381C607.169 188.65 606.572 186.879 605.992 185.067L607.359 184.625C607.817 186.368 608.485 188.048 609.35 189.628C610.06 191.645 610.79 193.61 611.54 195.522C623.718 226.569 641.678 244.312 676.108 259.294C677.84 260.047 679.614 260.795 681.432 261.536C683.542 262.911 685.868 263.923 688.312 264.531Z" fill="#3F3D56"/>
<path d="M626.196 201.511L624.979 202.743L669.933 247.143L671.15 245.911L626.196 201.511Z" fill="#3F3D56"/>
<path d="M245.607 164.722L245.63 136.279L228.91 137.773L234.811 155.712L213.392 188.182C212.052 188.482 210.829 189.166 209.872 190.15C208.914 191.133 208.264 192.374 207.999 193.721C207.735 195.068 207.868 196.463 208.383 197.736C208.897 199.008 209.771 200.104 210.897 200.888C212.024 201.673 213.354 202.113 214.726 202.154C216.098 202.196 217.453 201.837 218.625 201.122C219.797 200.407 220.735 199.367 221.326 198.128C221.917 196.889 222.134 195.504 221.952 194.144L245.607 164.722Z" fill="#FFB6B6"/>
</g>
<defs>
<clipPath id="clip0_10_420">
<rect width="774" height="388" fill="white"/>
</clipPath>
</defs>
</svg>
