<svg width="772" height="400" viewBox="0 0 772 400" fill="none" xmlns="http://www.w3.org/2000/svg">
<g clip-path="url(#clip0_9_230)">
<path d="M185.785 393.208L166.768 363.057L185.794 396.493L185.804 399.929C187.161 399.913 188.504 399.861 189.833 399.773L188.282 355.639L188.303 355.297L188.268 355.232L188.12 351.062L208.004 318.016L188.099 347.939L188.04 348.822L186.868 315.477L203.962 281.287L186.735 309.618L185.933 240.503L185.93 240.273L185.927 240.499L185.537 294.992L169.203 273.188L185.551 299.685L185.627 329.531L170.471 300.706L185.635 333.919L185.677 350.515L163.662 310.38L185.695 356.304L185.785 393.208Z" fill="#E2E2E2"/>
<path d="M348.976 393.208L329.959 363.057L348.985 396.493L348.995 399.928C350.352 399.913 351.695 399.861 353.024 399.773L351.473 355.638L351.493 355.297L351.458 355.232L351.311 351.062L371.195 318.016L351.29 347.939L351.231 348.822L350.059 315.477L367.153 281.287L349.925 309.618L349.124 240.503L349.12 240.273L349.118 240.499L348.727 294.992L332.393 273.188L348.742 299.685L348.818 329.531L333.662 300.706L348.826 333.919L348.868 350.515L326.853 310.38L348.885 356.304L348.976 393.208Z" fill="#E2E2E2"/>
<path d="M22.4396 395.147L8.70754 373.375L22.446 397.519L22.4533 400C23.433 399.988 24.4028 399.951 25.3626 399.887L24.2426 368.018L24.2573 367.772L24.2321 367.725L24.1255 364.714L38.4835 340.851L24.1107 362.458L24.0677 363.096L23.2216 339.018L35.5649 314.329L23.1251 334.787L22.5465 284.88L22.5438 284.713L22.5418 284.877L22.2601 324.226L10.4653 308.481L22.2705 327.615L22.3253 349.166L11.3815 328.352L22.3313 352.335L22.3616 364.318L6.46466 335.337L22.3741 368.499L22.4396 395.147Z" fill="#E2E2E2"/>
<path d="M745.871 393.208L726.854 363.057L745.88 396.493L745.89 399.929C747.247 399.913 748.59 399.861 749.919 399.773L748.368 355.639L748.389 355.297L748.354 355.232L748.206 351.062L768.09 318.016L748.185 347.939L748.126 348.822L746.954 315.477L764.048 281.287L746.82 309.618L746.019 240.503L746.015 240.273L746.013 240.499L745.622 294.992L729.288 273.188L745.637 299.685L745.713 329.531L730.557 300.706L745.721 333.919L745.763 350.515L723.748 310.38L745.78 356.304L745.871 393.208Z" fill="#E2E2E2"/>
<path d="M230.134 347.686H332.72V343.343H230.134V347.686Z" fill="#3420FF"/>
<path d="M224.918 343.343H327.504V339H224.918V343.343Z" fill="#3420FF"/>
<path d="M231.004 339H333.589V334.657H231.004V339Z" fill="#3420FF"/>
<path d="M241.436 334.657H344.022V330.314H241.436V334.657Z" fill="#3420FF"/>
<path d="M154.15 336.388H157.712V311.123H154.15V336.388Z" fill="#3F3D56"/>
<path d="M154.143 310.802L155.483 314.1L287.287 260.651L285.947 257.354L154.143 310.802Z" fill="#3F3D56"/>
<path d="M88.2576 374.109H119.245V362.01H88.2576V374.109Z" fill="#3F3D56"/>
<path d="M91.107 386.208H243.907V372.685H91.107V386.208Z" fill="#3F3D56"/>
<path d="M116.217 379.446H152.904V333.363H125.478L116.217 356.605V379.446Z" fill="#E2E2E2"/>
<path d="M131.533 351.868H147.205V336.21H131.533V351.868Z" fill="white"/>
<path d="M119.779 352.046H129.753V336.389H125.478L119.779 352.046Z" fill="white"/>
<path d="M142.931 367.525H146.493V360.764H142.931V367.525Z" fill="#3F3D56"/>
<path d="M126.725 353.113H126.547C125.649 353.113 124.789 352.757 124.154 352.123C123.52 351.489 123.163 350.629 123.163 349.733C123.163 348.836 123.52 347.976 124.154 347.342C124.789 346.708 125.649 346.352 126.547 346.352H126.725V353.113Z" fill="#3F3D56"/>
<path d="M259.223 379.446H259.045C258.148 379.446 257.287 379.09 256.652 378.456C256.018 377.822 255.661 376.963 255.661 376.066C255.661 375.169 256.018 374.309 256.652 373.675C257.287 373.042 258.148 372.685 259.045 372.685H259.223V379.447V379.446Z" fill="#3F3D56"/>
<path d="M101.97 372.634C99.3216 372.668 96.7145 373.298 94.3431 374.478C91.9716 375.657 89.8968 377.355 88.273 379.446H81.3121L88.0795 360.613L119.601 354.401L118.711 379.446H115.668C114.044 377.355 111.969 375.657 109.598 374.478C107.226 373.298 104.619 372.668 101.97 372.634Z" fill="#E2E2E2"/>
<path d="M101.614 399.374C110.171 399.374 117.108 392.444 117.108 383.895C117.108 375.345 110.171 368.415 101.614 368.415C93.0573 368.415 86.1205 375.345 86.1205 383.895C86.1205 392.444 93.0573 399.374 101.614 399.374Z" fill="#3F3D56"/>
<path d="M101.614 392.042C106.118 392.042 109.769 388.394 109.769 383.894C109.769 379.395 106.118 375.747 101.614 375.747C97.1105 375.747 93.4596 379.395 93.4596 383.894C93.4596 388.394 97.1105 392.042 101.614 392.042Z" fill="#E2E2E2"/>
<path d="M241.592 399.196C249.067 399.196 255.127 393.142 255.127 385.674C255.127 378.206 249.067 372.151 241.592 372.151C234.117 372.151 228.057 378.206 228.057 385.674C228.057 393.142 234.117 399.196 241.592 399.196Z" fill="#3F3D56"/>
<path d="M241.592 392.791C245.526 392.791 248.716 389.604 248.716 385.674C248.716 381.743 245.526 378.557 241.592 378.557C237.658 378.557 234.469 381.743 234.469 385.674C234.469 389.604 237.658 392.791 241.592 392.791Z" fill="#E2E2E2"/>
<path d="M151.835 380.87H159.315V326.958H151.835V380.87Z" fill="#3F3D56"/>
<path d="M151.835 374.287H259.401V371.084H151.835V374.287Z" fill="#3F3D56"/>
<path d="M124.588 354.181H128.149V352.757H124.588V354.181Z" fill="#3F3D56"/>
<path d="M282.018 347.659C281.985 347.622 281.959 347.578 281.944 347.53C281.928 347.483 281.923 347.432 281.928 347.382L286.84 300.973C286.849 300.886 286.89 300.805 286.955 300.746C287.021 300.687 287.105 300.655 287.193 300.654H287.194C287.282 300.654 287.366 300.686 287.431 300.745C287.497 300.803 287.538 300.883 287.548 300.97L292.861 347.283C292.867 347.333 292.862 347.383 292.847 347.43C292.832 347.478 292.807 347.522 292.774 347.559C292.741 347.597 292.7 347.627 292.655 347.647C292.61 347.668 292.56 347.679 292.51 347.679L282.285 347.776H282.282C282.232 347.776 282.183 347.765 282.138 347.745C282.093 347.725 282.052 347.696 282.018 347.659ZM287.209 304.26L282.678 347.06L292.108 346.972L287.209 304.26Z" fill="#3F3D56"/>
<path d="M88.145 360.887L88.3115 360.95C89.1509 361.267 89.8298 361.905 90.1988 362.722C90.5679 363.539 90.5969 364.469 90.2794 365.308C89.9619 366.147 89.324 366.825 88.506 367.194C87.688 367.562 86.7569 367.591 85.9175 367.274L85.7509 367.211L88.145 360.887Z" fill="#3F3D56"/>
<path d="M285.58 309.344H289.142V257.389H285.58V309.344Z" fill="#3F3D56"/>
<path d="M155.931 316.816C158.685 316.816 160.918 314.586 160.918 311.834C160.918 309.083 158.685 306.853 155.931 306.853C153.177 306.853 150.945 309.083 150.945 311.834C150.945 314.586 153.177 316.816 155.931 316.816Z" fill="#3F3D56"/>
<path d="M163.193 371.137H265.778V366.794H163.193V371.137Z" fill="#3420FF"/>
<path d="M169.278 366.794H271.864V362.451H169.278V366.794Z" fill="#3420FF"/>
<path d="M164.932 363.32H267.517V358.977H164.932V363.32Z" fill="#3420FF"/>
<path d="M171.017 358.977H273.603V354.634H171.017V358.977Z" fill="#3420FF"/>
<path d="M332.392 106.176C335.662 106.172 338.822 107.349 341.292 109.489C343.243 108.957 345.289 108.867 347.279 109.226C348.927 106.837 351.296 105.037 354.041 104.089C356.786 103.141 359.762 103.095 362.535 103.957C365.308 104.819 367.733 106.545 369.454 108.881C371.176 111.218 372.104 114.044 372.104 116.945H319.075C319.725 113.898 321.402 111.166 323.826 109.206C326.25 107.246 329.274 106.177 332.392 106.176Z" fill="#E2E2E2"/>
<path d="M252.614 149.039C255.705 149.035 258.693 150.147 261.028 152.171C262.872 151.667 264.806 151.582 266.688 151.922C268.246 149.663 270.486 147.961 273.081 147.065C275.676 146.169 278.49 146.125 281.111 146.94C283.733 147.755 286.025 149.387 287.652 151.596C289.28 153.805 290.158 156.476 290.157 159.22H240.024C240.639 156.339 242.224 153.756 244.516 151.903C246.807 150.05 249.666 149.039 252.614 149.039Z" fill="#E2E2E2"/>
<path d="M172.852 78.3438C176.067 78.3401 179.176 79.4973 181.606 81.6025C183.525 81.0787 185.537 80.9904 187.495 81.3439C189.116 78.9938 191.447 77.2231 194.147 76.2905C196.847 75.358 199.774 75.3124 202.502 76.1606C205.23 77.0087 207.614 78.7061 209.308 81.0047C211.001 83.3033 211.914 86.0826 211.914 88.9367H159.752C160.392 85.9395 162.041 83.2524 164.426 81.3243C166.81 79.3963 169.784 78.3442 172.852 78.3438Z" fill="#E2E2E2"/>
<path d="M517.274 212.961V321.451H559.503V211.455L549.7 211.804V189.606H542.589L541.418 140.441C544.287 138.574 546.306 134.137 546.306 128.957C546.31 127.47 546.136 125.988 545.79 124.541C547.148 123.073 547.98 121.197 548.156 119.206C548.333 117.215 547.843 115.222 546.764 113.539C547.666 114.326 548.716 114.927 549.853 115.306C550.989 115.685 552.19 115.835 553.385 115.747C554.58 115.658 555.745 115.334 556.814 114.792C557.882 114.25 558.832 113.501 559.609 112.59C560.385 111.678 560.973 110.621 561.337 109.481C561.701 108.34 561.835 107.139 561.731 105.946C561.627 104.754 561.287 103.594 560.73 102.533C560.174 101.473 559.412 100.534 558.489 99.7704C560.041 99.1983 561.406 98.2124 562.436 96.9198C563.466 95.6272 564.122 94.0772 564.333 92.4383C564.543 90.7994 564.3 89.1343 563.63 87.6237C562.959 86.1132 561.888 84.815 560.531 83.8702C559.174 82.9254 557.584 82.3702 555.934 82.2648C554.283 82.1593 552.635 82.5078 551.169 83.2723C549.703 84.0368 548.474 85.1881 547.617 86.601C546.76 88.014 546.307 89.6347 546.306 91.287C546.306 91.4195 546.311 91.5508 546.316 91.6817C545.074 91.3025 543.764 91.1949 542.476 91.3661C541.188 91.5374 539.953 91.9835 538.853 92.6741C537.753 93.3648 536.814 94.2839 536.101 95.3689C535.388 96.454 534.917 97.6796 534.721 98.9625C533.592 98.2917 532.331 97.8743 531.025 97.7393C529.719 97.6043 528.399 97.7549 527.157 98.1807C525.915 98.6065 524.78 99.2972 523.832 100.205C522.884 101.113 522.145 102.216 521.667 103.437C521.188 104.659 520.981 105.97 521.061 107.28C521.14 108.589 521.504 109.866 522.127 111.021C522.75 112.176 523.617 113.181 524.668 113.968C525.719 114.755 526.929 115.303 528.213 115.576C528.211 115.642 528.208 115.707 528.208 115.773C529.048 118.307 530.118 120.759 531.404 123.099C530.775 124.988 530.46 126.967 530.47 128.957C530.47 134.137 532.489 138.574 535.359 140.441L534.187 189.606H527.077V212.612L517.274 212.961ZM543.643 109.368L543.667 109.369C543.798 109.369 543.927 109.364 544.056 109.359C544.138 109.626 544.231 109.888 544.336 110.144C544.12 109.872 543.889 109.613 543.643 109.368Z" fill="#E2E2E2"/>
<path d="M494.022 398.675H622.218V250.506L494.022 250.506V398.675Z" fill="#3F3D56"/>
<path d="M540.839 398.675H575.402V368.539H540.839V398.675Z" fill="#E2E2E2"/>
<path d="M451.299 55.5494C451.296 55.6588 451.291 55.7673 451.291 55.8773C451.288 57.8923 451.692 59.8872 452.478 61.7431C453.263 63.599 454.415 65.278 455.863 66.6801C456.09 67.1622 456.341 67.632 456.617 68.0875C455.569 71.2356 455.043 74.5338 455.061 77.8515C455.061 89.294 460.969 98.57 468.258 98.57C475.546 98.57 481.454 89.294 481.454 77.8515C481.46 75.3729 481.171 72.9023 480.594 70.4917C482.857 68.0451 484.244 64.9177 484.538 61.5994C484.831 58.2811 484.015 54.9591 482.217 52.1538C483.721 53.4666 485.471 54.4678 487.365 55.0995C489.259 55.7312 491.26 55.9806 493.252 55.8335C495.243 55.6863 497.186 55.1454 498.966 54.2421C500.747 53.3388 502.33 52.0912 503.624 50.5717C504.918 49.0522 505.897 47.291 506.505 45.3903C507.112 43.4897 507.335 41.4875 507.162 39.4999C506.988 37.5123 506.422 35.5789 505.494 33.812C504.567 32.045 503.297 30.4797 501.759 29.2069C504.345 28.2534 506.62 26.6103 508.337 24.4559C510.054 22.3015 511.147 19.7182 511.498 16.9867C511.849 14.2552 511.444 11.4799 510.327 8.96227C509.209 6.44467 507.423 4.28104 505.162 2.70641C502.9 1.13178 500.25 0.206366 497.5 0.030696C494.749 -0.144974 492.002 0.435816 489.559 1.70998C487.115 2.98414 485.068 4.90294 483.639 7.25796C482.21 9.61297 481.455 12.3141 481.454 15.068C481.454 15.2887 481.462 15.5075 481.471 15.7258C479.4 15.0938 477.217 14.9144 475.071 15.1998C472.925 15.4852 470.865 16.2287 469.032 17.3798C467.198 18.5309 465.634 20.0627 464.446 21.8711C463.258 23.6795 462.473 25.7222 462.145 27.8605C460.264 26.7425 458.162 26.0468 455.985 25.8217C453.808 25.5967 451.608 25.8477 449.538 26.5573C447.468 27.2669 445.577 28.4182 443.997 29.9311C442.417 31.444 441.186 33.2824 440.388 35.3186C439.59 37.3548 439.246 39.54 439.378 41.7226C439.511 43.9051 440.117 46.0327 441.156 47.9576C442.194 49.8826 443.639 51.5587 445.39 52.8697C447.142 54.1806 449.158 55.095 451.299 55.5494ZM477.055 45.2041C477.273 45.2041 477.489 45.1968 477.704 45.1877C477.84 45.633 477.995 46.069 478.17 46.4957C477.811 46.0432 477.425 45.6116 477.016 45.2031L477.055 45.2041Z" fill="#E2E2E2"/>
<path d="M460.715 201.535H475.798L475.26 178.935V178.926L473.286 96.0554C471.771 96.9799 470.031 97.4691 468.256 97.4691C466.482 97.4691 464.742 96.9799 463.227 96.0554L461.254 178.926V178.935L460.715 201.535Z" fill="#3420FF"/>
<path d="M433.069 217.855V398.675H503.445V215.345L487.109 215.927V178.935H449.404V217.273L433.069 217.855Z" fill="#3420FF"/>
<path d="M631.024 55.5494C631.022 55.6588 631.016 55.7673 631.016 55.8773C631.014 57.8923 631.418 59.8872 632.203 61.7431C632.989 63.599 634.14 65.278 635.589 66.6801C635.815 67.1622 636.067 67.632 636.343 68.0875C635.295 71.2356 634.769 74.5338 634.786 77.8515C634.786 89.294 640.695 98.57 647.983 98.57C655.271 98.57 661.18 89.294 661.18 77.8515C661.185 75.3729 660.896 72.9023 660.32 70.4917C662.583 68.0451 663.969 64.9177 664.263 61.5994C664.557 58.2811 663.741 54.9591 661.942 52.1538C663.446 53.4666 665.196 54.4679 667.09 55.0996C668.985 55.7313 670.986 55.9808 672.977 55.8336C674.969 55.6864 676.911 55.1455 678.692 54.2423C680.472 53.339 682.056 52.0914 683.35 50.5718C684.644 49.0523 685.623 47.2911 686.23 45.3904C686.838 43.4897 687.061 41.4875 686.887 39.4999C686.714 37.5123 686.147 35.5789 685.22 33.812C684.292 32.045 683.023 30.4797 681.485 29.2069C684.071 28.2534 686.346 26.6103 688.063 24.4559C689.78 22.3015 690.873 19.7182 691.224 16.9867C691.574 14.2552 691.169 11.4799 690.052 8.96227C688.935 6.44467 687.149 4.28104 684.887 2.70641C682.626 1.13177 679.976 0.206367 677.225 0.0306961C674.474 -0.144975 671.728 0.435816 669.284 1.70998C666.841 2.98414 664.793 4.90294 663.364 7.25796C661.935 9.61297 661.18 12.3141 661.18 15.068C661.18 15.2887 661.187 15.5075 661.196 15.7258C659.125 15.0938 656.943 14.9144 654.796 15.1998C652.65 15.4852 650.59 16.2287 648.757 17.3798C646.924 18.5309 645.36 20.0627 644.171 21.8711C642.983 23.6795 642.198 25.7222 641.87 27.8605C639.989 26.7425 637.887 26.0468 635.71 25.8217C633.534 25.5967 631.334 25.8477 629.264 26.5573C627.193 27.2669 625.303 28.4182 623.723 29.9311C622.142 31.444 620.911 33.2824 620.113 35.3186C619.316 37.3548 618.971 39.54 619.104 41.7226C619.236 43.9051 619.843 46.0327 620.881 47.9576C621.919 49.8826 623.364 51.5587 625.116 52.8697C626.867 54.1806 628.883 55.095 631.024 55.5494ZM656.781 45.2041C656.998 45.2041 657.214 45.1968 657.43 45.1877C657.565 45.633 657.72 46.069 657.895 46.4957C657.536 46.0432 657.151 45.6116 656.742 45.2031L656.781 45.2041Z" fill="#E2E2E2"/>
<path d="M640.442 201.535H655.524L653.01 96.0586C649.76 97.2252 646.206 97.2252 642.956 96.0586L640.442 201.535Z" fill="#3420FF"/>
<path d="M612.793 217.855V398.675H683.177V215.345L677.396 215.554L666.833 215.927V178.935H629.129V217.273L612.793 217.855Z" fill="#3420FF"/>
<path d="M577.246 285.76H594.634V268.389H577.246V285.76Z" fill="white"/>
<path d="M549.427 285.76H566.814V268.389H549.427V285.76Z" fill="white"/>
<path d="M521.607 285.76H538.994V268.389H521.607V285.76Z" fill="white"/>
<path d="M577.246 313.555H594.634V296.183H577.246V313.555Z" fill="white"/>
<path d="M549.427 313.555H566.814V296.183H549.427V313.555Z" fill="white"/>
<path d="M521.607 313.555H538.994V296.183H521.607V313.555Z" fill="white"/>
<path d="M577.246 341.349H594.634V323.978H577.246V341.349Z" fill="white"/>
<path d="M549.427 341.349H566.814V323.978H549.427V341.349Z" fill="white"/>
<path d="M521.607 341.349H538.994V323.978H521.607V341.349Z" fill="white"/>
<path d="M459.564 278.812H476.951V261.44H459.564V278.812Z" fill="white"/>
<path d="M459.564 306.606H476.951V289.235H459.564V306.606Z" fill="white"/>
<path d="M459.564 334.4H476.951V317.029H459.564V334.4Z" fill="white"/>
<path d="M459.564 362.195H476.951V344.823H459.564V362.195Z" fill="white"/>
<path d="M639.144 278.812H656.531V261.44H639.144V278.812Z" fill="white"/>
<path d="M639.144 306.606H656.531V289.235H639.144V306.606Z" fill="white"/>
<path d="M639.144 334.4H656.531V317.029H639.144V334.4Z" fill="white"/>
<path d="M639.144 362.195H656.531V344.823H639.144V362.195Z" fill="white"/>
<path d="M772 398.063H0V399.8H772V398.063Z" fill="#3F3D56"/>
</g>
<defs>
<clipPath id="clip0_9_230">
<rect width="772" height="400" fill="white"/>
</clipPath>
</defs>
</svg>
