<svg width="689" height="497" viewBox="0 0 689 497" fill="none" xmlns="http://www.w3.org/2000/svg">
<g clip-path="url(#clip0_8_42)">
<path opacity="0.1" d="M7.44202 270.196C18.3444 316.823 41.4241 357.129 77.8932 376.692C153.701 417.293 324.655 396.348 452.237 372.293C516.707 360.178 575.226 326.705 618.373 277.265L7.44202 270.196Z" fill="#3420FF"/>
<path opacity="0.1" d="M676.502 50.7186H606.497C604.893 50.7186 603.355 50.0811 602.221 48.9462C601.086 47.8113 600.449 46.272 600.449 44.6671C600.449 43.0621 601.086 41.5229 602.221 40.388C603.355 39.2531 604.893 38.6155 606.497 38.6155H618.599C617.028 38.5649 615.538 37.9048 614.445 36.7748C613.351 35.6449 612.74 34.1337 612.74 32.5608C612.74 30.988 613.351 29.4768 614.445 28.3468C615.538 27.2169 617.028 26.5568 618.599 26.5061H609.958C608.386 26.4555 606.897 25.7954 605.803 24.6655C604.71 23.5355 604.098 22.0243 604.098 20.4515C604.098 18.8786 604.71 17.3674 605.803 16.2375C606.897 15.1075 608.386 14.4474 609.958 14.3968H646.496C638.388 10.6263 628.911 7.94304 617.99 6.53541C518.361 -6.26522 482.79 2.20569 470.242 10.9342C454.761 21.68 437.491 29.5853 419.033 33.3935C357.563 46.081 242.604 61.3513 138.409 28.5045C86.6227 12.1659 48.1377 39.7655 25.0643 85.8654H688.655C687.788 72.4678 685.194 60.1007 680.434 49.267C679.34 50.2076 677.945 50.7229 676.502 50.7186Z" fill="#3420FF"/>
<path opacity="0.1" d="M1.50095 172.875C-1.1878 199.991 -0.275521 227.345 4.21399 254.222L618.844 276.719C635.955 257.024 650.32 235.1 661.549 211.547L1.50095 172.875ZM244.595 230.902H232.493C234.097 230.902 235.635 231.539 236.769 232.674C237.903 233.809 238.541 235.348 238.541 236.953C238.541 238.558 237.903 240.097 236.769 241.232C235.635 242.367 234.097 243.005 232.493 243.005H162.487C160.883 243.005 159.345 242.367 158.211 241.232C157.077 240.097 156.44 238.558 156.44 236.953C156.44 235.348 157.077 233.809 158.211 232.674C159.345 231.539 160.883 230.902 162.487 230.902H174.589C173.018 230.851 171.528 230.191 170.435 229.061C169.342 227.931 168.73 226.42 168.73 224.847C168.73 223.274 169.342 221.763 170.435 220.633C171.528 219.503 173.018 218.843 174.589 218.792H165.948C164.377 218.741 162.887 218.081 161.793 216.951C160.7 215.821 160.089 214.31 160.089 212.737C160.089 211.165 160.7 209.653 161.793 208.523C162.887 207.394 164.377 206.733 165.948 206.683H235.953C237.524 206.733 239.014 207.394 240.107 208.523C241.201 209.653 241.812 211.165 241.812 212.737C241.812 214.31 241.201 215.821 240.107 216.951C239.014 218.081 237.524 218.741 235.953 218.792H244.595C246.166 218.843 247.656 219.503 248.749 220.633C249.842 221.763 250.454 223.274 250.454 224.847C250.454 226.42 249.842 227.931 248.749 229.061C247.656 230.191 246.166 230.851 244.595 230.902Z" fill="#3420FF"/>
<path opacity="0.1" d="M688.686 86.2676L17.6599 102.606C9.49564 123.601 4.11352 147.324 1.60144 171.938H676.929C681.337 157.486 684.598 142.708 686.683 127.742C688.692 113.283 689.496 99.2944 688.686 86.2676ZM137.831 139.783H125.729C126.524 139.783 127.31 139.939 128.044 140.243C128.778 140.547 129.444 140.993 130.006 141.555C130.568 142.117 131.013 142.784 131.317 143.518C131.621 144.253 131.777 145.039 131.777 145.834C131.777 146.629 131.621 147.416 131.317 148.15C131.013 148.884 130.568 149.551 130.006 150.113C129.444 150.675 128.778 151.121 128.044 151.425C127.31 151.729 126.524 151.886 125.729 151.886H55.7241C54.1202 151.886 52.5819 151.248 51.4477 150.113C50.3135 148.978 49.6763 147.439 49.6763 145.834C49.6763 144.229 50.3135 142.69 51.4477 141.555C52.5819 140.42 54.1202 139.783 55.7241 139.783H67.8261C66.255 139.732 64.7652 139.072 63.6718 137.942C62.5783 136.812 61.9669 135.301 61.9669 133.728C61.9669 132.155 62.5783 130.644 63.6718 129.514C64.7652 128.384 66.255 127.724 67.8261 127.673H59.1845C57.6135 127.623 56.1237 126.963 55.0302 125.833C53.9368 124.703 53.3254 123.191 53.3254 121.619C53.3254 120.046 53.9368 118.535 55.0302 117.405C56.1237 116.275 57.6135 115.615 59.1845 115.564H129.19C130.761 115.615 132.251 116.275 133.344 117.405C134.438 118.535 135.049 120.046 135.049 121.619C135.049 123.191 134.438 124.703 133.344 125.833C132.251 126.963 130.761 127.623 129.19 127.673H137.831C139.402 127.724 140.892 128.384 141.986 129.514C143.079 130.644 143.691 132.155 143.691 133.728C143.691 135.301 143.079 136.812 141.986 137.942C140.892 139.072 139.402 139.732 137.831 139.783Z" fill="#3420FF"/>
<path opacity="0.1" d="M353.964 497C474.954 497 573.036 491.688 573.036 485.136C573.036 478.583 474.954 473.271 353.964 473.271C232.974 473.271 134.892 478.583 134.892 485.136C134.892 491.688 232.974 497 353.964 497Z" fill="#3420FF"/>
<path d="M535.832 397.894C535.832 397.894 539.28 402.412 534.237 409.205C529.194 415.998 525.037 421.773 526.701 426.028C526.701 426.028 534.306 413.365 540.517 413.189C546.729 413.014 542.64 405.51 535.832 397.894Z" fill="#3420FF"/>
<path opacity="0.1" d="M535.832 397.894C536.13 398.331 536.366 398.807 536.536 399.308C542.577 406.415 545.793 413.045 539.99 413.208C534.576 413.365 528.089 423.043 526.538 425.487C526.587 425.677 526.648 425.864 526.72 426.047C526.72 426.047 534.325 413.384 540.536 413.208C546.747 413.032 542.64 405.51 535.832 397.894Z" fill="black"/>
<path d="M542.244 403.65C542.244 405.24 542.069 406.528 541.849 406.528C541.629 406.528 541.447 405.24 541.447 403.65C541.447 402.06 541.673 402.808 541.893 402.808C542.112 402.808 542.244 402.06 542.244 403.65Z" fill="#FFD037"/>
<path d="M544.443 405.548C543.048 406.308 541.836 406.767 541.729 406.572C541.623 406.378 542.672 405.605 544.066 404.844C545.46 404.084 544.907 404.637 545.014 404.844C545.121 405.052 545.837 404.788 544.443 405.548Z" fill="#FFD037"/>
<path d="M517.607 397.894C517.607 397.894 514.159 402.412 519.202 409.205C524.245 415.998 528.397 421.773 526.739 426.028C526.739 426.028 519.127 413.365 512.922 413.189C506.717 413.014 510.793 405.51 517.607 397.894Z" fill="#3420FF"/>
<path opacity="0.1" d="M517.607 397.894C517.307 398.33 517.07 398.806 516.904 399.308C510.862 406.415 507.641 413.045 513.45 413.208C518.857 413.365 525.382 423.043 526.902 425.487C526.852 425.676 526.789 425.858 526.72 426.047C526.72 426.047 519.108 413.384 512.903 413.208C506.699 413.032 510.793 405.51 517.607 397.894Z" fill="black"/>
<path d="M511.195 403.65C511.195 405.24 511.371 406.528 511.591 406.528C511.811 406.528 511.993 405.24 511.993 403.65C511.993 402.06 511.767 402.808 511.547 402.808C511.327 402.808 511.195 402.06 511.195 403.65Z" fill="#FFD037"/>
<path d="M508.991 405.548C510.385 406.308 511.603 406.767 511.71 406.572C511.817 406.378 510.768 405.605 509.374 404.844C507.98 404.084 508.532 404.637 508.426 404.844C508.319 405.052 507.597 404.788 508.991 405.548Z" fill="#FFD037"/>
<path d="M512.294 425.456C512.294 425.456 521.941 425.154 524.855 423.087C527.769 421.019 539.695 418.537 540.417 421.83C541.139 425.123 554.912 438.351 544.022 438.439C533.132 438.527 518.719 436.742 515.817 434.976C512.916 433.21 512.294 425.456 512.294 425.456Z" fill="#A8A8A8"/>
<path opacity="0.2" d="M544.21 437.314C533.32 437.402 518.907 435.617 516.006 433.851C513.795 432.5 512.916 427.668 512.621 425.443H512.301C512.301 425.443 512.929 433.223 515.811 434.995C518.694 436.767 533.126 438.546 544.016 438.458C547.156 438.458 548.248 437.314 548.186 435.655C547.746 436.673 546.546 437.295 544.21 437.314Z" fill="black"/>
<path d="M169.082 428.988C170.234 428.046 171.075 426.778 171.493 425.349C171.801 423.91 171.186 422.207 169.81 421.648C168.265 421.057 166.614 422.132 165.358 423.213C164.101 424.293 162.676 425.531 161.037 425.299C161.88 424.535 162.51 423.566 162.867 422.485C163.224 421.405 163.294 420.25 163.072 419.134C163 418.672 162.805 418.237 162.506 417.877C161.646 416.96 160.095 417.349 159.065 418.072C155.799 420.372 154.888 424.815 154.87 428.805C154.543 427.366 154.819 425.864 154.813 424.407C154.807 422.949 154.399 421.264 153.155 420.492C152.383 420.079 151.518 419.876 150.643 419.901C149.173 419.844 147.541 419.995 146.536 421.063C145.28 422.402 145.613 424.639 146.699 426.091C147.786 427.542 149.431 428.485 150.944 429.497C152.163 430.221 153.202 431.211 153.984 432.394C154.073 432.561 154.149 432.736 154.21 432.915H163.411C165.469 431.868 167.377 430.547 169.082 428.988Z" fill="#3420FF"/>
<path d="M95.9613 438.904C95.9613 438.904 87.1314 408.923 97.613 386.859C102.075 377.631 103.424 367.203 101.457 357.142C100.486 352.377 99.0796 347.711 97.2551 343.204" stroke="#535461" stroke-width="2" stroke-miterlimit="10"/>
<path d="M103.755 329.253C103.755 332.93 97.1106 343.587 97.1106 343.587C97.1106 343.587 90.4599 332.904 90.4599 329.253C90.513 327.525 91.2367 325.884 92.4775 324.68C93.7184 323.476 95.379 322.803 97.1075 322.803C98.836 322.803 100.497 323.476 101.737 324.68C102.978 325.884 103.702 327.525 103.755 329.253Z" fill="#3420FF"/>
<path d="M114.745 349.607C112.755 352.693 101.381 358.022 101.381 358.022C101.381 358.022 101.588 345.454 103.586 342.375C104.567 340.946 106.066 339.957 107.765 339.618C109.464 339.279 111.228 339.617 112.682 340.559C114.135 341.501 115.165 342.974 115.55 344.664C115.935 346.354 115.647 348.127 114.745 349.607Z" fill="#3420FF"/>
<path d="M114.268 384.39C110.99 386.042 98.486 384.899 98.486 384.899C98.486 384.899 105.005 374.159 108.283 372.506C109.065 372.092 109.922 371.838 110.803 371.759C111.684 371.68 112.572 371.778 113.415 372.047C114.258 372.316 115.039 372.75 115.712 373.324C116.385 373.899 116.937 374.602 117.335 375.393C117.733 376.183 117.97 377.045 118.031 377.928C118.092 378.811 117.976 379.698 117.69 380.536C117.405 381.374 116.955 382.146 116.367 382.808C115.78 383.47 115.066 384.007 114.268 384.39Z" fill="#3420FF"/>
<path d="M107.982 410.626C105.03 412.812 92.5135 413.768 92.5135 413.768C92.5135 413.768 97.1232 402.086 100.05 399.899C100.747 399.327 101.552 398.903 102.417 398.653C103.283 398.402 104.19 398.33 105.084 398.441C105.978 398.552 106.841 398.844 107.619 399.298C108.397 399.753 109.074 400.36 109.611 401.085C110.147 401.809 110.53 402.635 110.738 403.512C110.945 404.39 110.973 405.3 110.818 406.188C110.663 407.076 110.33 407.923 109.838 408.679C109.346 409.434 108.706 410.081 107.957 410.582L107.982 410.626Z" fill="#3420FF"/>
<path d="M87.4266 358.732C90.058 361.289 102.329 363.948 102.329 363.948C102.329 363.948 99.3213 351.75 96.6773 349.186C96.0565 348.551 95.3149 348.047 94.4963 347.704C93.6777 347.36 92.7986 347.184 91.9109 347.186C91.0232 347.187 90.1448 347.367 89.3275 347.713C88.5102 348.06 87.7706 348.567 87.1522 349.204C86.5338 349.842 86.0491 350.596 85.7268 351.424C85.4044 352.252 85.2509 353.135 85.2753 354.023C85.2997 354.911 85.5015 355.785 85.8689 356.594C86.2362 357.403 86.7615 358.129 87.414 358.732H87.4266Z" fill="#3420FF"/>
<path d="M80.4618 389.505C83.7401 391.158 96.244 390.014 96.244 390.014C96.244 390.014 89.7251 379.281 86.4469 377.622C84.877 376.869 83.0749 376.763 81.4275 377.325C79.7801 377.887 78.4186 379.074 77.6353 380.629C76.852 382.184 76.7092 383.985 77.2376 385.644C77.7661 387.304 78.9236 388.69 80.4618 389.505Z" fill="#3420FF"/>
<path d="M77.7991 420.347C80.7508 422.528 93.2609 423.489 93.2609 423.489C93.2609 423.489 88.6575 411.807 85.7247 409.62C84.3044 408.672 82.5741 408.307 80.8922 408.6C79.2103 408.894 77.7055 409.823 76.6894 411.196C75.6733 412.569 75.2238 414.28 75.4339 415.975C75.6439 417.67 76.4975 419.22 77.8179 420.303L77.7991 420.347Z" fill="#3420FF"/>
<path d="M103.755 329.253C103.755 332.93 97.1106 343.587 97.1106 343.587C97.1106 343.587 90.4599 332.904 90.4599 329.253C90.513 327.525 91.2367 325.884 92.4775 324.68C93.7184 323.476 95.379 322.803 97.1075 322.803C98.836 322.803 100.497 323.476 101.737 324.68C102.978 325.884 103.702 327.525 103.755 329.253Z" fill="#3420FF"/>
<path d="M114.745 349.607C112.755 352.693 101.381 358.022 101.381 358.022C101.381 358.022 101.588 345.454 103.586 342.375C104.567 340.946 106.066 339.957 107.765 339.618C109.464 339.279 111.228 339.617 112.682 340.559C114.135 341.501 115.165 342.974 115.55 344.664C115.935 346.354 115.647 348.127 114.745 349.607Z" fill="#3420FF"/>
<path d="M114.268 384.39C110.99 386.042 98.486 384.899 98.486 384.899C98.486 384.899 105.005 374.159 108.283 372.506C109.065 372.092 109.922 371.838 110.803 371.759C111.684 371.68 112.572 371.778 113.415 372.047C114.258 372.316 115.039 372.75 115.712 373.324C116.385 373.899 116.937 374.602 117.335 375.393C117.733 376.183 117.97 377.045 118.031 377.928C118.092 378.811 117.976 379.698 117.69 380.536C117.405 381.374 116.955 382.146 116.367 382.808C115.78 383.47 115.066 384.007 114.268 384.39Z" fill="#3420FF"/>
<path d="M107.982 410.626C105.03 412.812 92.5135 413.768 92.5135 413.768C92.5135 413.768 97.1232 402.086 100.05 399.899C100.747 399.327 101.552 398.903 102.417 398.653C103.283 398.402 104.19 398.33 105.084 398.441C105.978 398.552 106.841 398.844 107.619 399.298C108.397 399.753 109.074 400.36 109.611 401.085C110.147 401.809 110.53 402.635 110.738 403.512C110.945 404.39 110.973 405.3 110.818 406.188C110.663 407.076 110.33 407.923 109.838 408.679C109.346 409.434 108.706 410.081 107.957 410.582L107.982 410.626Z" fill="#3420FF"/>
<path d="M87.4266 358.732C90.058 361.289 102.329 363.948 102.329 363.948C102.329 363.948 99.3213 351.75 96.6773 349.186C96.0565 348.551 95.3149 348.047 94.4963 347.704C93.6777 347.36 92.7986 347.184 91.9109 347.186C91.0232 347.187 90.1448 347.367 89.3275 347.713C88.5102 348.06 87.7706 348.567 87.1522 349.204C86.5338 349.842 86.0491 350.596 85.7268 351.424C85.4044 352.252 85.2509 353.135 85.2753 354.023C85.2997 354.911 85.5015 355.785 85.8689 356.594C86.2362 357.403 86.7615 358.129 87.414 358.732H87.4266Z" fill="#3420FF"/>
<path d="M80.4618 389.505C83.7401 391.158 96.244 390.014 96.244 390.014C96.244 390.014 89.7251 379.281 86.4469 377.622C84.877 376.869 83.0749 376.763 81.4275 377.325C79.7801 377.887 78.4186 379.074 77.6353 380.629C76.852 382.184 76.7092 383.985 77.2376 385.644C77.7661 387.304 78.9236 388.69 80.4618 389.505Z" fill="#3420FF"/>
<path d="M77.7991 420.347C80.7508 422.528 93.2609 423.489 93.2609 423.489C93.2609 423.489 88.6575 411.807 85.7247 409.62C84.3044 408.672 82.5741 408.307 80.8922 408.6C79.2103 408.894 77.7055 409.823 76.6894 411.196C75.6733 412.569 75.2238 414.28 75.4339 415.975C75.6439 417.67 76.4975 419.22 77.8179 420.303L77.7991 420.347Z" fill="#3420FF"/>
<path d="M75.0797 437.019C75.0797 437.019 85.8314 434.882 88.6952 432.035C91.5589 429.189 104.458 424.205 105.89 427.762C107.322 431.319 125.233 443.422 113.05 445.559C100.866 447.695 84.3932 448.405 80.8135 446.979C77.2338 445.552 75.0797 437.019 75.0797 437.019Z" fill="#A8A8A8"/>
<path opacity="0.2" d="M113.069 444.227C100.891 446.363 84.4121 447.073 80.8324 445.653C78.1068 444.566 76.2101 439.369 75.4628 436.937L75.0797 437.019C75.0797 437.019 77.2338 445.559 80.8135 446.979C84.3932 448.399 100.872 447.689 113.05 445.559C116.567 444.93 117.572 443.491 117.195 441.663C116.912 442.85 115.687 443.768 113.069 444.227Z" fill="black"/>
<path d="M454.856 164.63C458.228 160.859 456.909 154.984 456.909 154.984C456.909 154.984 440.995 114.401 439.23 113.955C437.466 113.509 433.038 103.272 433.038 103.272C433.038 103.272 390.603 62.9097 389.077 62.9097C387.551 62.9097 372.057 51.7618 370.073 51.5418C368.088 51.3219 364.986 50.2033 361.67 48.3998C358.354 46.5963 324.755 48.626 323.43 50.1845C322.105 51.7429 315.894 52.8615 315.894 52.8615C315.894 52.8615 303.296 53.5276 301.525 55.7584C299.754 57.9893 286.722 59.1707 286.722 59.1707C286.722 59.1707 280.31 61.5586 289.015 67.8993C286.226 68.3391 282.967 68.6785 279.657 68.9173C278.828 68.9738 277.986 69.0304 277.145 69.0744H276.649C276.093 67.3928 275.009 65.9359 273.559 64.9206C272.611 64.4054 271.631 63.95 270.626 63.557C269.07 62.7289 267.612 61.7275 266.28 60.572C259.837 55.4451 252.962 50.8867 245.731 46.9482C244.615 46.249 243.37 45.781 242.07 45.572C239.376 45.3143 236.971 47.2058 234.333 47.8405C229.698 48.9528 225.026 46.125 220.259 46.081C214.305 46.0244 208.886 50.6621 207.071 56.3806C206.399 58.4983 206.097 60.8548 204.646 62.5327C202.762 64.7258 199.578 65.0463 196.997 66.3471C195.127 67.3232 193.56 68.7935 192.466 70.5982C191.372 72.4029 190.793 74.4731 190.792 76.5838V76.6341C190.792 76.9671 190.792 77.3002 190.849 77.6333C191.144 80.3228 192.387 82.805 193.298 85.3564C194.234 87.9705 194.825 90.6957 195.057 93.4628C195.06 93.492 195.06 93.5215 195.057 93.5508C195.094 94.0095 195.126 94.4683 195.144 94.9333C195.144 95.0275 195.144 95.1281 195.144 95.2286C195.144 95.6685 195.144 96.1147 195.144 96.5608C195.144 98.9614 195.063 101.381 195.069 103.781V103.907V104.994C195.069 105.082 195.069 105.17 195.069 105.258C195.069 105.578 195.069 105.886 195.107 106.226V106.565C195.107 106.86 195.151 107.162 195.182 107.457C195.182 107.583 195.182 107.715 195.214 107.841C195.214 108.13 195.283 108.413 195.32 108.695L195.377 109.098C195.421 109.38 195.471 109.663 195.521 109.946L195.597 110.336C195.659 110.637 195.735 110.964 195.81 111.24C195.842 111.347 195.86 111.448 195.886 111.555C195.999 111.974 196.124 112.376 196.262 112.761C197.203 115.4 198.755 117.778 200.792 119.699C202.83 121.621 205.293 123.031 207.981 123.815C208.993 124.094 210.04 124.225 211.09 124.204C212.974 124.16 214.776 123.576 215.894 122.288C216.171 122.602 216.441 122.916 216.729 123.23C220.826 127.688 225.935 131.091 231.626 133.152C237.316 135.213 243.419 135.87 249.417 135.068C255.416 134.267 261.132 132.03 266.083 128.547C271.033 125.064 275.071 120.438 277.855 115.061C278.514 114.917 279.167 114.785 279.827 114.659C280.97 114.445 282.119 114.244 283.274 114.031L284.386 113.855L284.826 113.779C290.478 112.887 295.967 112.29 299.898 111.894L284.361 113.823C284.361 113.823 280.593 131.928 279.506 133.932C278.42 135.937 283.274 139.28 283.274 139.28C283.274 139.28 287.476 144.408 287.476 145.972C287.476 147.537 292.337 151.993 293.662 154.443C293.83 154.754 294.042 155.04 294.29 155.292C293.309 155.671 292.403 156.223 291.614 156.919C288.543 159.829 289.567 164.931 288.16 168.928C287.281 171.442 285.441 173.478 283.67 175.457C283.034 176.103 282.5 176.843 282.087 177.65C281.857 178.185 281.715 178.754 281.667 179.334C281.635 179.656 281.623 179.979 281.629 180.302V180.415C281.629 180.667 281.629 180.912 281.679 181.157C281.679 181.264 281.679 181.371 281.679 181.477C281.987 184.104 282.879 186.643 283.149 189.27C283.419 191.896 283.092 194.542 283.632 197.1C283.82 197.991 284.11 198.858 284.499 199.682L275.506 209.737C275.506 209.737 275.449 210.233 275.43 211.05C267.932 217.278 256.339 229.029 260.477 239.391C260.929 240.527 261.348 241.614 261.733 242.653C258.687 244.594 257.683 246.901 262.248 249.201C262.971 249.565 263.668 249.879 264.352 250.162C266.695 257.043 267.612 258.96 271.537 253.889C271.958 253.336 272.447 252.632 272.981 251.871C278.508 251.758 281.704 249.201 281.704 249.201C281.704 249.201 297.172 248.308 301.173 250.765C303.176 252.022 307.887 252.274 312.057 252.242C312.001 256.737 312.21 261.232 312.685 265.703C312.685 265.703 312.019 284.655 313.79 288.671C315.561 292.686 316.541 299.599 316.541 299.599C316.541 299.599 313.57 306.285 315.335 309.854C317.1 313.424 313.79 318.552 313.79 318.552V331.704L315.046 331.616C314.952 332.502 314.832 333.432 314.675 334.318C314.311 336.373 313.765 338.214 312.923 338.811C310.713 340.401 310.493 348.866 310.493 348.866C310.493 348.866 306.957 359.128 307.616 360.912C308.276 362.697 303.421 366.26 304.527 368.937C305.632 371.614 307.893 388.556 309.858 393.445C311.824 398.334 305.852 397.014 305.852 397.014L307.616 409.721C307.616 409.721 309.387 422.653 308.062 423.546C306.737 424.438 299.113 430.904 304.357 434.694C304.765 434.989 305.18 435.259 305.613 435.517C305.636 436.104 305.622 436.691 305.569 437.276C305.469 438.275 305.217 439.073 304.658 439.161C303.101 439.388 300.005 440.946 299.352 440.28C298.699 439.614 294.956 441.964 291.187 442.731L290.666 442.812L285.774 441.556C278.696 438.857 270.926 438.57 263.668 440.739C263.668 440.739 260.119 441.292 258.399 443.944C257.526 445.301 257.143 447.211 257.921 449.876C260.283 457.756 276.379 460.471 276.379 460.471C276.379 460.471 281.956 461.621 288.657 463.141C288.437 463.141 288.211 463.141 287.985 463.141C286.135 463.129 284.348 463.81 282.976 465.051C281.604 466.292 280.747 468.003 280.574 469.845C280.401 471.688 280.925 473.528 282.041 475.004C283.158 476.479 284.787 477.482 286.606 477.814C288.426 478.146 290.304 477.784 291.869 476.798C293.435 475.813 294.574 474.276 295.063 472.491C295.551 470.706 295.353 468.803 294.508 467.157C293.663 465.511 292.231 464.242 290.497 463.6C298.033 465.335 306.379 467.446 309.771 468.935C312.296 469.887 314.883 470.664 317.514 471.26C317.644 472.82 318.268 474.297 319.294 475.478C320.321 476.658 321.698 477.48 323.224 477.823C324.75 478.167 326.345 478.014 327.778 477.388C329.211 476.761 330.407 475.693 331.192 474.34C341.448 476.483 351.327 478.299 351.327 478.299L367.825 478.569H367.938C365.993 478.582 364.133 479.366 362.766 480.749C361.398 482.132 360.634 484.001 360.64 485.946C360.647 487.892 361.424 489.755 362.801 491.129C364.178 492.502 366.044 493.273 367.988 493.273C369.932 493.273 371.797 492.502 373.175 491.129C374.552 489.755 375.329 487.892 375.336 485.946C375.342 484.001 374.578 482.132 373.21 480.749C371.842 479.366 369.983 478.582 368.038 478.569L393.014 478.977C392.715 479.994 392.637 481.064 392.788 482.114C392.939 483.163 393.314 484.168 393.888 485.059C394.462 485.951 395.221 486.708 396.113 487.279C397.006 487.851 398.011 488.223 399.061 488.37C400.11 488.518 401.179 488.437 402.195 488.134C403.21 487.831 404.148 487.312 404.945 486.613C405.742 485.914 406.379 485.052 406.813 484.084C407.247 483.117 407.467 482.067 407.459 481.007C407.458 480.401 407.382 479.797 407.233 479.21L429.264 479.568L433.66 474.729C433.906 474.259 434.053 473.744 434.093 473.215C434.225 471.625 433.402 469.212 427.775 468.188C427.361 468.112 415.881 468.294 405.738 468.464V464.48C405.738 464.48 405.456 462.287 405.28 459.704C405.229 458.944 405.186 458.152 405.167 457.373C405.74 457.766 406.378 458.057 407.051 458.234C411.252 458.906 416.999 446.639 416.999 446.639C416.999 446.639 416.999 439.727 418.324 434.153C419.649 428.579 422.092 409.846 422.092 409.846L427.405 387.331C427.405 387.331 429.603 341.394 428.498 339.609C427.392 337.825 429.829 334.702 429.829 334.702C429.829 334.702 431.594 324.892 428.943 321.549C426.293 318.206 430.488 314.856 430.488 314.856C430.488 314.856 431.594 303.262 428.498 298.807C425.401 294.352 429.948 291.228 429.948 291.228L431.054 273.168C435.695 268.486 439.89 240.617 440.116 234.596C440.174 231.208 440.926 227.867 442.327 224.781C442.327 224.781 445.416 220.099 445.862 216.976C446.308 213.853 449.63 207.393 449.63 207.393L455.377 185.983C457.694 177.349 457.104 170.964 455.565 166.414C455.339 165.773 455.1 165.189 454.856 164.63ZM351.038 165.887C354.573 168.117 353.468 168.784 354.573 170.122C355.679 171.461 354.793 171.234 353.908 173.465C353.022 175.696 353.688 175.03 354.128 177.481C354.567 179.931 354.354 179.931 354.354 179.931L355.459 180.089L353.92 190.438C351.408 192.079 350.259 195.221 349.738 198.463C348.256 196.528 346.761 194.517 345.423 192.644C345.882 191.62 345.794 190.401 345.806 189.251C345.857 185.48 347.263 181.88 347.91 178.166C348.571 174.388 348.449 170.514 347.552 166.785C347.23 165.382 346.734 164.025 346.076 162.745C347.508 163.7 349.323 164.831 351.038 165.912V165.887ZM355.013 384.402C355.013 384.402 357.808 382.517 360.521 380.801C361.431 387.419 362.292 394.3 362.901 400.521C361.928 398.359 361.249 396.889 361.249 396.889C360.252 395.69 359.655 394.209 359.541 392.653C359.434 390.228 355.013 384.427 355.013 384.427V384.402ZM338.44 155.21C339.068 155.298 339.959 156.096 340.801 157.051C340.022 156.423 339.237 155.794 338.433 155.204L338.44 155.21ZM297.989 237.707C295.439 238.511 286.798 238.392 281.66 238.09C283.582 234.804 285.491 231.461 287.187 228.463C288.187 228.722 289.205 228.905 290.233 229.01L307.058 214.224C313.386 216.445 320.289 216.4 326.589 214.098L327.047 214.814C327.242 215.128 327.449 215.443 327.675 215.795L327.255 215.11C327.255 215.11 320.761 218.981 321.42 220.765C322.08 222.55 320.541 227.005 318.111 231.781C317.483 232.975 316.936 234.157 316.409 235.344C310.907 235.86 300.539 236.903 297.989 237.707ZM329.911 443.724L329.817 441.958C330.885 441.725 331.588 441.512 331.588 441.512C331.367 438.891 330.998 436.286 330.483 433.707C329.817 431.03 330.162 431.922 332.75 429.936C335.337 427.951 332.75 405.429 332.75 405.429C332.75 405.429 334.006 403.864 335.997 407.879C337.987 411.895 339.985 414.346 340.65 414.566C341.316 414.786 337.994 419.254 340.65 423.489C342.3 426.229 343.422 429.253 343.96 432.406C343.96 432.406 342.195 439.488 344.845 442.637C345.203 443.003 345.63 443.296 346.101 443.497C346.101 444.082 346.101 444.704 346.101 445.288C346.101 446.464 346.101 447.469 346.045 447.683C346.019 447.833 345.955 447.975 345.859 448.093C345.762 448.212 345.637 448.303 345.495 448.359C345.352 448.414 345.198 448.432 345.047 448.411C344.896 448.389 344.753 448.329 344.632 448.236C343.947 447.789 339.608 448.789 339.903 451.585C338.877 452.798 337.713 453.889 336.436 454.834L330.414 453.275L329.911 443.724Z" fill="url(#paint0_linear_8_42)"/>
<path d="M275.669 212.715C275.669 212.715 273.565 229.965 290.252 231.731L292.764 219.791L287.507 212.715L279.977 210.164L275.669 212.715Z" fill="#3420FF"/>
<path opacity="0.1" d="M279.977 210.164L275.669 212.709C275.669 212.709 273.565 229.959 290.252 231.725" fill="black"/>
<path d="M305.946 115.181C305.946 115.181 294.686 115.872 283.394 117.744C282.238 117.941 281.089 118.151 279.946 118.373C279.28 118.499 278.627 118.63 277.974 118.775C272.058 119.994 266.67 121.578 263.529 123.601C259.761 126.021 258.505 119.504 258.386 110.449C258.336 107.263 258.442 103.769 258.612 100.237C258.832 96.1524 259.152 92.0175 259.491 88.2973C260.239 80.0526 261.099 73.6429 261.099 73.6429C261.099 73.6429 265.043 73.6429 270.312 73.4607L272.008 73.3978C273.659 73.335 275.412 73.247 277.176 73.1402C278.012 73.0962 278.853 73.0459 279.688 72.9831C283.029 72.7443 286.327 72.4049 289.109 71.965C292.073 71.4875 294.478 70.8842 295.785 70.0798C301.751 66.5231 305.946 115.181 305.946 115.181Z" fill="#F8BDC5"/>
<path d="M356.118 178.876L353.92 193.474C353.92 193.474 349.129 199.443 349.757 202.761C350.385 206.079 355.911 352.712 355.911 352.712C355.911 352.712 366.744 414.635 362.983 422.597C359.221 430.559 362.763 449.141 362.763 449.141L385.309 445.603L392.845 174.892L356.118 178.876Z" fill="#474463"/>
<path opacity="0.1" d="M356.118 178.876L353.92 193.474C353.92 193.474 349.129 199.443 349.757 202.761C350.385 206.079 355.911 352.712 355.911 352.712C355.911 352.712 366.744 414.635 362.983 422.597C359.221 430.559 362.763 449.141 362.763 449.141L385.309 445.603L392.845 174.892L356.118 178.876Z" fill="black"/>
<path d="M405.851 452.898C405.135 454.086 405.192 457.58 405.393 460.552C405.569 463.11 405.851 465.284 405.851 465.284V480.322C405.851 480.322 381.76 471.92 368.497 463.072C363.027 459.421 361.469 456.028 361.77 453.313C362.21 449.449 366.418 446.929 368.497 446.929C370.481 446.929 376.749 443.466 381.886 440.406C385.924 438.012 389.278 435.869 389.278 435.869C389.278 435.869 407.176 450.686 405.851 452.898Z" fill="#575988"/>
<path opacity="0.1" d="M405.851 452.898C405.135 454.086 405.192 457.58 405.393 460.552C400.036 458.039 383.45 441.939 381.886 440.406C385.924 438.012 389.278 435.869 389.278 435.869C389.278 435.869 407.176 450.686 405.851 452.898Z" fill="black"/>
<path d="M455.364 189.05L449.618 210.284C449.618 210.284 446.302 216.693 445.85 219.791C445.398 222.889 442.314 227.533 442.314 227.533C440.918 230.59 440.166 233.901 440.103 237.261C439.884 243.237 435.707 270.881 431.041 275.525L429.936 293.441C429.936 293.441 425.54 296.532 428.611 300.981C431.682 305.43 430.601 316.905 430.601 316.905C430.601 316.905 426.4 320.223 429.057 323.541C431.713 326.859 429.936 336.593 429.936 336.593C429.936 336.593 427.505 339.685 428.611 341.457C429.716 343.229 427.518 388.789 427.518 388.789L422.205 411.122C422.205 411.122 419.768 429.704 418.437 435.234C417.105 440.764 417.112 447.614 417.112 447.614C417.112 447.614 411.365 459.78 407.164 459.12C402.962 458.46 382.633 438.546 382.633 438.546L385.503 371.306C385.503 371.306 387.934 342.777 386.389 337.247C384.844 331.717 383.739 304.073 383.739 304.073L380.643 260.506L349.731 211.848C349.731 211.848 347.489 197.69 353.895 193.493L355.057 185.845L356.106 178.895L392.801 174.911L448.94 160.319C448.94 160.319 453.267 162.99 455.534 169.657C457.085 174.15 457.682 180.485 455.364 189.05Z" fill="#474463"/>
<path d="M357.688 211.421C357.688 211.421 331.607 243.47 332.712 234.515C333.403 228.891 329.836 222.022 327.06 217.68C325.421 215.097 324.064 213.407 324.064 213.407C324.064 213.407 339.978 184.217 340.864 188.195C341.146 189.452 342.986 192.336 345.354 195.629C350.347 202.529 357.688 211.421 357.688 211.421Z" fill="#FFC1C8"/>
<path opacity="0.3" d="M405.851 477.193V480.335C405.851 480.335 381.76 471.933 368.497 463.085C363.027 459.434 361.469 456.041 361.77 453.326C369.093 457.033 382.715 464.103 386.841 467.289C390.345 469.991 399.401 474.271 405.851 477.193Z" fill="white"/>
<path d="M400.18 489.126C404.249 489.126 407.547 485.826 407.547 481.755C407.547 477.684 404.249 474.384 400.18 474.384C396.112 474.384 392.814 477.684 392.814 481.755C392.814 485.826 396.112 489.126 400.18 489.126Z" fill="#474463"/>
<path d="M324.931 478.776C328.999 478.776 332.298 475.476 332.298 471.405C332.298 467.334 328.999 464.034 324.931 464.034C320.862 464.034 317.564 467.334 317.564 471.405C317.564 475.476 320.862 478.776 324.931 478.776Z" fill="#474463"/>
<path d="M434.206 474.026C434.165 474.55 434.017 475.061 433.773 475.527L429.377 480.322L367.931 479.336L351.408 479.065C351.408 479.065 316.628 472.731 309.852 469.777C303.076 466.824 276.435 461.42 276.435 461.42C276.435 461.42 260.345 458.718 257.984 450.906C257.186 448.261 257.588 446.369 258.461 445.025C260.176 442.392 263.73 441.839 263.73 441.839C270.991 439.693 278.754 439.979 285.837 442.655L388.832 469.168L390.427 469.576C390.427 469.576 427.141 468.891 427.882 469.023C433.515 470.054 434.338 472.448 434.206 474.026Z" fill="#3420FF"/>
<path opacity="0.3" d="M434.206 474.025C428.027 473.221 417.25 472.033 414.474 473.177C414.474 473.177 394.873 470.752 367.906 479.336L351.408 479.065C351.408 479.065 316.628 472.731 309.852 469.777C303.076 466.824 276.435 461.42 276.435 461.42C276.435 461.42 260.345 458.717 257.984 450.906C257.186 448.261 257.588 446.369 258.461 445.025C259.56 448.229 261.677 452.873 265.056 454.174C270.362 456.216 292.173 460.376 292.173 460.376L335.343 470.953C335.343 470.953 360.27 476.363 369.972 472.838C373.948 471.405 381.409 470.129 388.813 469.13L390.408 469.539C390.408 469.539 427.122 468.854 427.863 468.986C433.515 470.054 434.338 472.448 434.206 474.025Z" fill="white"/>
<path d="M374.588 466.064C374.536 466.99 374.421 467.912 374.243 468.822C374.243 468.822 349.826 469.696 337.114 467.81C333.604 467.289 331.619 466.164 330.633 464.819C330.193 464.184 329.92 463.448 329.84 462.679C329.76 461.91 329.875 461.133 330.175 460.42C330.315 460.011 330.494 459.615 330.709 459.239C331.657 457.58 333.114 456.405 333.912 456.562C336.122 457.008 339.915 452.471 339.915 452.471C339.614 449.7 343.966 448.701 344.644 449.153C344.765 449.246 344.908 449.307 345.06 449.328C345.211 449.35 345.365 449.332 345.507 449.276C345.649 449.221 345.775 449.129 345.871 449.011C345.968 448.892 346.032 448.751 346.057 448.6C346.101 448.393 346.114 447.394 346.114 446.225C346.114 444.277 346.057 441.826 346.057 441.826L370.6 444.811L371.574 449.505C372.466 453.69 373.709 459.44 374.243 461.407C374.614 462.93 374.731 464.503 374.588 466.064Z" fill="#474463"/>
<path opacity="0.1" d="M374.588 466.064C374.536 466.99 374.421 467.912 374.243 468.822C374.243 468.822 349.826 469.696 337.114 467.811C333.604 467.289 331.619 466.164 330.633 464.819C333.893 464.625 338.132 464.518 340.757 465.159C344.5 466.089 366.889 466.089 374.588 466.064Z" fill="black"/>
<path d="M330.684 459.227C330.71 459.453 330.675 459.683 330.581 459.891C330.487 460.1 330.338 460.278 330.15 460.408C327.06 462.796 312.232 460.201 312.232 460.201C312.232 460.201 281.937 458.315 277.409 455.224C277 454.955 276.658 454.596 276.41 454.174C274.526 450.768 281.346 445.05 281.937 445.05C282.527 445.05 290.672 443.937 291.219 443.831C294.987 443.07 298.755 440.733 299.383 441.399C300.011 442.065 303.151 440.513 304.684 440.293C305.243 440.211 305.5 439.419 305.594 438.407C305.683 437.038 305.636 435.664 305.456 434.304L329.654 440.821L329.867 444.679L330.564 457.524L330.652 459.101C330.667 459.141 330.678 459.184 330.684 459.227Z" fill="#474463"/>
<path opacity="0.1" d="M312.257 460.201C312.257 460.201 281.962 458.315 277.434 455.223C277.025 454.955 276.684 454.596 276.435 454.174C282.571 454.677 292.801 455.525 294.648 455.996C297.304 456.625 312.232 457.542 312.232 457.542H330.589L330.677 459.12C331.475 463.569 312.257 460.201 312.257 460.201Z" fill="black"/>
<path d="M288.041 478.776C292.11 478.776 295.408 475.476 295.408 471.405C295.408 467.334 292.11 464.034 288.041 464.034C283.973 464.034 280.674 467.334 280.674 471.405C280.674 475.476 283.973 478.776 288.041 478.776Z" fill="#474463"/>
<path d="M368.051 494.078C372.119 494.078 375.417 490.778 375.417 486.707C375.417 482.636 372.119 479.336 368.051 479.336C363.982 479.336 360.684 482.636 360.684 486.707C360.684 490.778 363.982 494.078 368.051 494.078Z" fill="#474463"/>
<path d="M293.128 220.677C293.128 220.677 291.734 223.191 289.636 226.924C284.612 235.797 275.575 251.526 271.687 256.503C266.161 263.579 266.607 256.949 260.634 242.131C256.2 231.109 269.847 218.497 277.145 212.766C279.657 210.774 281.415 209.624 281.415 209.624L293.128 220.677Z" fill="#F8BDC5"/>
<path d="M319.869 237.707C319.869 237.707 301.525 239.253 297.989 240.359C294.453 241.465 279.205 240.799 277.892 240.359C276.58 239.919 250.479 245.889 262.418 251.859C274.357 257.829 281.886 251.859 281.886 251.859C281.886 251.859 297.361 250.973 301.355 253.411C305.349 255.849 319.919 254.517 319.919 254.517L319.869 237.707Z" fill="#FFC1C8"/>
<path opacity="0.1" d="M281.761 102.355C284.022 108.142 282.609 113.182 279.946 118.354C273.276 119.611 267.002 121.339 263.511 123.582C253.563 129.998 261.08 73.5989 261.08 73.5989C261.08 73.5989 265.891 73.5989 271.989 73.3538C270.143 81.787 277.139 90.5407 281.761 102.355Z" fill="black"/>
<path d="M282.326 101.098C282.314 110.361 278.895 119.296 272.721 126.198C266.546 133.099 258.049 137.485 248.849 138.519C239.649 139.552 230.391 137.161 222.841 131.801C215.291 126.441 209.977 118.487 207.913 109.457C205.848 100.428 207.178 90.9532 211.649 82.8418C216.119 74.7304 223.418 68.5495 232.151 65.4783C240.885 62.407 250.443 62.6603 259.002 66.1898C267.562 69.7193 274.523 76.278 278.558 84.6149C281.045 89.7529 282.333 95.389 282.326 101.098Z" fill="#F8BDC5"/>
<path opacity="0.1" d="M455.546 169.638C454.353 171.375 452.566 172.616 450.522 173.126C441.9 175.558 381.114 190.156 377.138 189.27C373.628 188.49 358.561 186.322 355.088 185.826L356.137 178.876L392.832 174.892L448.971 160.3C448.971 160.3 453.279 162.971 455.546 169.638Z" fill="black"/>
<path opacity="0.1" d="M305.946 115.181C298.761 115.611 291.603 116.408 284.499 117.568C284.6 117.245 284.587 116.897 284.461 116.582L299.157 114.766C299.157 114.766 297.009 80.2034 289.109 71.921C292.073 71.4434 294.478 70.8402 295.785 70.0358C301.751 66.523 305.946 115.181 305.946 115.181Z" fill="black"/>
<path d="M286.722 63.2742C286.722 63.2742 299.766 62.099 301.531 59.8871C303.296 57.6751 315.9 57.0152 315.9 57.0152C315.9 57.0152 322.086 55.9092 323.436 54.3571C324.786 52.8049 358.354 50.8192 361.67 52.5913C364.986 54.3634 368.082 55.4631 370.073 55.6893C372.064 55.9155 387.532 66.9629 389.077 66.9629C390.622 66.9629 433.038 106.999 433.038 106.999C433.038 106.999 437.434 117.173 439.23 117.612C441.027 118.052 456.915 158.308 456.915 158.308C456.915 158.308 459.126 168.036 450.51 170.474C441.893 172.912 381.101 187.504 377.126 186.618C373.15 185.732 354.36 183.08 354.36 183.08C354.36 183.08 354.58 183.08 354.14 180.648C353.7 178.216 353.035 178.876 353.914 176.664C354.793 174.452 355.685 174.672 354.58 173.346C353.474 172.02 354.58 171.354 351.044 169.142C347.508 166.93 343.508 164.498 343.307 163.838C343.106 163.178 339.991 158.748 338.446 158.528C336.901 158.308 293.574 146.142 293.574 146.142L283.406 142.824C283.406 142.824 278.545 139.506 279.638 137.52C280.731 135.535 284.493 117.568 284.493 117.568L300.036 115.652C300.036 115.652 297.719 78.1988 289.014 71.9147C280.31 65.6307 286.722 63.2742 286.722 63.2742Z" fill="#3420FF"/>
<path opacity="0.1" d="M293.128 220.677C293.128 220.677 291.734 223.191 289.636 226.924C289.31 215.386 281.246 213.149 277.145 212.766C279.657 210.774 281.415 209.624 281.415 209.624L293.128 220.677Z" fill="black"/>
<path d="M282.326 136.854L283.394 142.824C283.394 142.824 287.595 147.914 287.595 149.46C287.595 151.006 292.456 155.43 293.787 157.862C295.119 160.294 299.754 160.74 297.983 164.944C296.212 169.148 286.05 201.216 286.05 201.216L275.663 212.715C275.663 212.715 292.902 211.163 290.245 231.731L312.571 212.25L330.056 180.422C330.056 180.422 313.036 148.134 312.377 145.482C311.717 142.83 282.326 136.854 282.326 136.854Z" fill="#3420FF"/>
<path opacity="0.1" d="M334.018 147.914C334.018 147.914 348.161 137.96 348.161 136.854C348.161 135.748 334.018 147.914 334.018 147.914Z" fill="black"/>
<path opacity="0.1" d="M357.688 160.3C357.688 160.3 365.225 158.528 365.853 154.55C366.481 150.572 357.688 160.3 357.688 160.3Z" fill="black"/>
<path opacity="0.1" d="M363.856 170.474C363.856 170.474 374.469 165.214 374.023 164.303C373.577 163.392 363.856 170.474 363.856 170.474Z" fill="black"/>
<path opacity="0.1" d="M420.66 136.785C420.66 136.785 416.264 139.657 417.57 142.347C418.876 145.036 420.66 136.785 420.66 136.785Z" fill="black"/>
<path opacity="0.1" d="M433.679 137.96C433.679 137.96 421.156 149.9 423.988 150.126C426.821 150.352 433.679 137.96 433.679 137.96Z" fill="black"/>
<path opacity="0.1" d="M405.192 323.076C405.192 323.076 421.326 326.174 421.765 327.28C422.205 328.386 405.192 323.076 405.192 323.076Z" fill="black"/>
<path opacity="0.1" d="M410.938 333.69C410.938 333.69 419.555 339 419.774 340.546C419.994 342.092 410.938 333.69 410.938 333.69Z" fill="black"/>
<path opacity="0.1" d="M408.947 345.636C408.947 345.636 410.272 351.606 412.483 352.492C414.694 353.378 408.947 345.636 408.947 345.636Z" fill="black"/>
<path opacity="0.1" d="M278.596 84.4201C278.596 84.4829 278.596 84.5521 278.564 84.6149C278.263 86.5818 277.459 88.7121 275.613 89.3656C274.497 89.6796 273.305 89.57 272.265 89.0577C269.125 87.6815 266.33 84.3761 262.977 85.1742C261.382 85.5512 260.264 86.764 259.472 88.2534C258.924 89.3254 258.502 90.4579 258.216 91.6279C257.588 94.0912 257.086 96.7683 258.047 99.1122C258.205 99.4956 258.394 99.8655 258.612 100.218C259.504 101.645 260.76 102.858 261.639 104.297C262.732 106.094 263.015 108.79 261.313 110.021C260.886 110.302 260.401 110.485 259.895 110.555C259.389 110.626 258.874 110.583 258.386 110.43C257.139 110.038 255.941 109.507 254.813 108.846C252.589 107.684 249.788 106.961 247.678 108.306C246.95 108.758 246.366 109.412 245.669 109.889C244.22 110.787 242.501 111.146 240.814 110.901C236.82 110.493 235.325 107.96 232.273 106C230.037 104.554 225.365 103.938 224.033 106.892C223.179 108.777 224.448 111.152 223.613 113.075C222.777 114.998 220.121 115.589 218.89 117.374C217.27 119.724 218.777 123.124 217.59 125.731C217.408 126.135 217.164 126.509 216.868 126.837C210.213 119.662 206.598 110.184 206.783 100.396C206.968 90.6083 210.939 81.2738 217.861 74.3557C224.783 67.4376 234.117 63.4748 243.899 63.3009C253.681 63.127 263.149 66.7553 270.312 73.423L272.008 73.3601C273.659 73.2973 275.412 73.2093 277.176 73.1025C277.594 73.9866 277.92 74.9109 278.15 75.8612C278.833 78.661 278.984 81.5644 278.596 84.4201Z" fill="black"/>
<path d="M223.135 106.012C222.275 107.897 223.543 110.273 222.714 112.189C221.885 114.106 219.21 114.703 217.992 116.488C216.365 118.844 217.872 122.244 216.692 124.845C215.335 127.818 211.241 128.283 208.1 127.416C205.418 126.649 202.956 125.255 200.918 123.348C198.881 121.441 197.326 119.077 196.382 116.45C194.253 110.386 195.628 103.712 195.075 97.3087C194.84 94.5646 194.249 91.8628 193.317 89.2713C192.406 86.7577 191.163 84.2818 190.868 81.6111C190.656 79.345 191.129 77.0676 192.223 75.0727C193.318 73.0777 194.985 71.4568 197.01 70.4192C199.597 69.1623 202.781 68.8042 204.665 66.6487C206.11 64.9772 206.417 62.6458 207.089 60.5406C208.904 54.885 214.324 50.2725 220.278 50.329C225.038 50.3667 229.698 53.1757 234.352 52.0697C236.983 51.4413 239.376 49.5561 242.089 49.8263C243.388 50.0308 244.633 50.4945 245.75 51.1899C252.973 55.0938 259.846 59.6142 266.293 64.7007C267.626 65.8498 269.086 66.8428 270.645 67.6605C271.649 68.0519 272.628 68.5031 273.578 69.0115C275.606 70.2684 276.668 72.6626 277.245 74.9877C277.939 77.7857 278.097 80.6898 277.71 83.5466C277.434 85.5637 276.642 87.826 274.727 88.4984C273.608 88.8107 272.413 88.6965 271.373 88.1779C268.233 86.8143 265.445 83.5089 262.091 84.3007C259.353 84.9291 258.034 88.0334 257.318 90.7544C256.69 93.2177 256.175 95.8947 257.149 98.245C257.953 100.193 259.661 101.62 260.735 103.423C261.809 105.227 262.116 107.922 260.408 109.148C258.524 110.511 255.968 109.06 253.902 107.979C251.691 106.816 248.878 106.094 246.774 107.432C246.052 107.885 245.468 108.538 244.764 109.022C243.314 109.911 241.6 110.267 239.916 110.028C235.915 109.619 234.421 107.087 231.375 105.126C229.133 103.668 224.473 103.052 223.135 106.012Z" fill="#474463"/>
<path opacity="0.1" d="M345.36 195.598C345.191 196.54 343.897 196.647 343.633 197.565C341.121 206.431 335.595 214.406 327.066 217.674C325.427 215.091 324.071 213.4 324.071 213.4C324.071 213.4 339.985 184.211 340.87 188.189C341.153 189.427 342.993 192.305 345.36 195.598Z" fill="black"/>
<path d="M345.831 189.49C345.833 195.264 344.122 200.91 340.917 205.712C337.712 210.514 333.155 214.257 327.824 216.467C322.492 218.678 316.626 219.257 310.965 218.131C305.305 217.006 300.105 214.225 296.024 210.143C291.943 206.06 289.163 200.858 288.037 195.194C286.911 189.53 287.488 183.66 289.696 178.325C291.904 172.989 295.644 168.429 300.443 165.221C305.241 162.013 310.883 160.3 316.654 160.3C320.489 160.286 324.289 161.031 327.835 162.493C331.381 163.955 334.603 166.104 337.315 168.818C340.027 171.531 342.176 174.754 343.637 178.302C345.099 181.85 345.845 185.652 345.831 189.49Z" fill="#FFC1C8"/>
<path opacity="0.1" d="M329.704 440.839L329.917 444.698C327.361 445.263 322.5 446.005 319.668 444.27C316.007 442.027 310.6 441.48 305.644 438.426C305.733 437.057 305.686 435.683 305.506 434.323L329.704 440.839Z" fill="black"/>
<path opacity="0.1" d="M371.574 449.518C371.404 450.379 371.247 450.906 371.247 450.906C371.247 450.906 351.747 448.908 346.127 446.212C346.127 444.264 346.07 441.813 346.07 441.813L370.613 444.798L371.574 449.518Z" fill="black"/>
<path d="M367.171 361.78C365.846 365.318 365.181 365.984 366.512 367.749C367.843 369.515 367.171 378.809 365.061 379.689C362.951 380.569 355.013 385.879 355.013 385.879C355.013 385.879 359.409 391.629 359.541 394.048C359.657 395.594 360.254 397.064 361.249 398.252C361.249 398.252 368.057 412.85 369.414 417.494C370.77 422.138 372.014 429.434 372.014 429.434C372.014 429.434 369.633 436.07 371.279 439.834C372.924 443.598 371.279 449.122 371.279 449.122C371.279 449.122 347.533 446.69 344.902 443.567C342.271 440.443 344.023 433.418 344.023 433.418C343.48 430.287 342.355 427.286 340.707 424.57C338.05 420.366 341.335 415.948 340.707 415.722C340.079 415.496 338.05 413.07 336.053 409.092C334.056 405.114 332.813 406.654 332.813 406.654C332.813 406.654 335.4 428.994 332.813 430.986C330.225 432.978 329.873 432.092 330.539 434.756C331.055 437.314 331.424 439.899 331.644 442.498C331.644 442.498 323.687 444.93 319.712 442.498C315.737 440.066 309.752 439.62 304.495 435.862C299.239 432.104 306.875 425.688 308.2 424.802C309.526 423.916 307.761 411.091 307.761 411.091L305.99 398.485C305.99 398.485 311.956 399.811 309.997 394.947C308.037 390.083 305.77 373.273 304.665 370.621C303.559 367.969 308.433 364.425 307.761 362.659C307.089 360.894 310.631 350.72 310.631 350.72C310.631 350.72 310.857 342.318 313.061 340.741C313.903 340.15 314.449 338.315 314.814 336.285C315.2 333.89 315.429 331.471 315.498 329.046C315.498 329.046 366.11 325.508 374.287 330.372C377.967 332.559 377.71 336.587 376.171 340.665C374.287 345.642 370.418 350.72 369.445 352.561C367.617 355.954 368.497 358.242 367.171 361.78Z" fill="#575988"/>
<path opacity="0.1" d="M376.108 340.665C369.828 342.431 361.463 345.026 360.1 346.516C357.889 348.954 350.372 332.804 350.372 332.804C350.372 332.804 350.818 344.945 340.87 339.867C332.26 335.468 318.362 336.046 314.77 336.285C315.156 333.89 315.385 331.471 315.454 329.046C315.454 329.046 366.066 325.508 374.243 330.372C377.923 332.559 377.666 336.587 376.108 340.665Z" fill="black"/>
<path d="M350.372 206.966C350.372 206.966 354.768 201.656 355.679 203.648C356.589 205.64 361.777 209.617 361.777 209.617C361.777 209.617 363.265 214.261 365.884 214.927C368.503 215.594 388.172 242.131 388.172 242.131L381.095 256.503L375.348 291.448C375.348 291.448 375.6 296.978 374.036 298.989C372.472 301 366.5 300.535 369.269 302.967C372.039 305.399 376.014 307.611 378.225 318.677C380.435 329.743 383.086 336.147 383.086 336.147C383.086 336.147 362.311 341.457 360.1 343.889C357.889 346.321 350.372 330.177 350.372 330.177C350.372 330.177 350.818 342.312 340.87 337.24C330.922 332.169 313.903 333.715 313.903 333.715V320.644C313.903 320.644 317.219 315.554 315.454 312.016C313.689 308.478 316.66 301.842 316.66 301.842C316.66 301.842 315.674 294.986 313.903 291.009C312.132 287.031 312.798 268.229 312.798 268.229C312.798 268.229 311.454 256.063 312.678 249.867C313.718 244.496 315.553 239.311 318.123 234.483C320.554 229.745 322.092 225.321 321.433 223.549C320.773 221.777 327.267 217.944 327.267 217.944L330.866 223.769L331.783 227.25C331.783 227.25 350.818 213.601 350.372 206.966Z" fill="#DCE6F2"/>
<path d="M382.181 237.707C382.181 237.707 394.559 249.867 395.885 251.859C397.21 253.851 401.65 264.207 395.903 267.349C390.157 270.491 367.643 275.336 365.407 273.664C363.171 271.993 349.706 275.55 349.706 275.55C349.706 275.55 327.186 281.08 332.046 272.012C336.907 262.944 348.406 264.471 348.406 264.471C348.406 264.471 366.983 264.44 368.968 262.586C370.952 260.732 385.924 256.754 382.533 248.56C379.142 240.365 382.181 237.707 382.181 237.707Z" fill="#FFC1C8"/>
<path opacity="0.1" d="M345.831 292.115C345.831 292.115 316.999 317.106 319.869 317.106C322.739 317.106 345.831 292.115 345.831 292.115Z" fill="black"/>
<path opacity="0.1" d="M365.061 302.288C365.061 302.288 355.899 304.494 357.67 305.826C359.441 307.158 365.061 302.288 365.061 302.288Z" fill="black"/>
<path opacity="0.1" d="M332.75 241.685C332.75 241.685 344.186 242.709 342.17 246.291C340.154 249.873 332.75 241.685 332.75 241.685Z" fill="black"/>
<path opacity="0.1" d="M325.622 349.098C325.622 349.098 324.071 353.598 325.622 356.011C327.173 358.424 325.622 364.18 325.622 364.18V384.289C325.622 384.289 325.408 398.887 330.702 403.971L325.622 349.098Z" fill="black"/>
<path opacity="0.1" d="M310.48 411.763C310.48 411.763 313.57 416.294 314.016 417.953C314.462 419.612 310.48 411.763 310.48 411.763Z" fill="black"/>
<path opacity="0.1" d="M311.253 402.695C311.253 402.695 318.437 401.369 319.543 402.142C320.648 402.915 311.253 402.695 311.253 402.695Z" fill="black"/>
<path opacity="0.1" d="M309.155 429.786C309.155 429.786 307.051 430.006 311.253 432.299C315.454 434.593 323.631 437.496 323.738 436.503C323.844 435.51 309.155 429.786 309.155 429.786Z" fill="black"/>
<path opacity="0.1" d="M339.909 407.779C340.65 407.779 349.901 407.226 349.367 408.665C348.833 410.104 339.909 407.779 339.909 407.779Z" fill="black"/>
<path opacity="0.1" d="M352.476 394.84C352.476 394.84 354.573 391.195 355.346 392.741C356.118 394.287 352.476 394.84 352.476 394.84Z" fill="black"/>
<path opacity="0.1" d="M345.831 189.49C345.835 192.204 345.458 194.905 344.714 197.514C343.495 198.62 341.391 198.633 339.89 197.81C338.132 196.842 336.983 195.082 335.84 193.411C334.697 191.739 333.397 190.068 331.525 189.351C329.158 188.459 326.457 189.351 324.397 190.834C322.337 192.317 320.692 194.278 318.745 195.862C316.798 197.445 314.317 198.727 311.837 198.337C310.235 198.092 308.816 197.187 307.441 196.314C305.557 195.126 303.534 193.279 301.468 192.481C299.402 191.683 297.7 193.109 295.734 193.109C294.171 193.675 292.469 194.963 292.783 196.591C292.951 197.194 293.223 197.764 293.586 198.275C294.218 199.519 294.467 200.922 294.302 202.307C294.138 203.693 293.568 204.999 292.663 206.061C290.06 202.295 288.379 197.969 287.755 193.433C287.131 188.897 287.582 184.278 289.071 179.949C290.561 175.619 293.047 171.701 296.329 168.511C299.611 165.32 303.598 162.947 307.966 161.583C312.334 160.218 316.961 159.901 321.475 160.657C325.988 161.412 330.26 163.219 333.947 165.932C337.633 168.645 340.63 172.187 342.696 176.273C344.761 180.358 345.838 184.873 345.838 189.452L345.831 189.49Z" fill="black"/>
<path d="M295.728 192.261C294.164 192.826 292.462 194.115 292.77 195.748C292.945 196.349 293.218 196.916 293.58 197.426C295.414 200.7 293.863 205.401 290.44 206.921C289.904 207.201 289.291 207.298 288.694 207.198C288.221 207.051 287.79 206.792 287.438 206.444C285.597 204.798 284.328 202.608 283.814 200.191C283.274 197.678 283.607 195.013 283.331 192.43C283.055 189.848 282.169 187.303 281.861 184.701C281.644 183.415 281.78 182.094 282.257 180.88C282.671 180.079 283.205 179.346 283.84 178.706C285.604 176.739 287.444 174.728 288.33 172.233C289.73 168.262 288.713 163.203 291.778 160.294C293.197 158.962 295.182 158.465 296.94 157.623C298.596 156.743 300.181 155.737 301.682 154.613C307.365 150.704 314.273 147.7 321.031 149.083C323.731 149.737 326.316 150.796 328.699 152.225C333.125 154.666 337.328 157.493 341.259 160.671C342.959 161.929 344.444 163.455 345.656 165.189C346.558 166.674 347.208 168.298 347.577 169.996C348.48 173.701 348.604 177.553 347.942 181.308C347.314 184.99 345.888 188.566 345.831 192.305C345.831 193.562 345.932 194.919 345.285 196C344.249 197.722 341.68 197.885 339.922 196.93C338.163 195.975 337.014 194.203 335.877 192.531C334.741 190.859 333.434 189.188 331.563 188.478C329.195 187.579 326.495 188.478 324.435 189.955C322.375 191.431 320.736 193.398 318.783 194.982C316.829 196.565 314.386 197.847 311.874 197.458C310.273 197.213 308.854 196.314 307.478 195.441C305.594 194.247 303.572 192.399 301.512 191.607C299.452 190.815 297.687 192.261 295.728 192.261Z" fill="#794F6A"/>
<path d="M362.75 237.707C362.75 237.707 330.263 267.783 336.888 282.82C343.514 297.858 372.686 271.321 372.686 271.321L383.086 247.24L362.75 237.707Z" fill="#F8BDC5"/>
<g opacity="0.1">
<path d="M290.428 205.137C289.893 205.416 289.282 205.514 288.688 205.413C288.213 205.268 287.781 205.007 287.432 204.653C285.591 203.008 284.32 200.821 283.802 198.407C283.268 195.862 283.601 193.222 283.325 190.64C283.048 188.057 282.157 185.518 281.855 182.91C281.855 182.784 281.855 182.652 281.824 182.521C281.756 183.24 281.766 183.965 281.855 184.682C282.157 187.284 283.048 189.797 283.325 192.412C283.601 195.026 283.268 197.634 283.802 200.172C284.318 202.589 285.589 204.779 287.432 206.425C287.783 206.775 288.214 207.034 288.688 207.179C289.282 207.279 289.893 207.182 290.428 206.903C293.128 205.702 294.654 202.542 294.296 199.651C294.165 200.817 293.742 201.932 293.066 202.891C292.389 203.85 291.482 204.622 290.428 205.137Z" fill="black"/>
<path d="M347.898 179.529C347.27 183.212 345.844 186.787 345.794 190.526C345.794 191.783 345.894 193.141 345.241 194.221C344.211 195.943 341.643 196.107 339.884 195.151C338.126 194.196 336.976 192.43 335.833 190.753C334.69 189.075 333.397 187.409 331.519 186.699C329.157 185.807 326.457 186.699 324.397 188.182C322.337 189.665 320.692 191.62 318.745 193.21C316.798 194.8 314.317 196.075 311.837 195.692C310.235 195.441 308.816 194.542 307.441 193.668C305.557 192.474 303.534 190.633 301.474 189.835C299.414 189.037 297.706 190.464 295.741 190.464C294.177 191.035 292.475 192.317 292.776 193.957C292.815 194.135 292.872 194.307 292.946 194.473C293.561 193.4 294.56 192.601 295.741 192.236C297.7 192.236 299.433 190.828 301.474 191.607C303.515 192.386 305.575 194.247 307.441 195.441C308.803 196.314 310.223 197.213 311.837 197.458C314.349 197.847 316.811 196.584 318.745 194.982C320.679 193.379 322.343 191.4 324.397 189.955C326.451 188.509 329.157 187.579 331.519 188.478C333.403 189.188 334.697 190.878 335.833 192.531C336.97 194.184 338.126 195.937 339.884 196.93C341.643 197.923 344.211 197.722 345.241 196C345.869 194.919 345.775 193.568 345.794 192.305C345.844 188.566 347.251 184.99 347.898 181.308C348.229 179.416 348.364 177.496 348.299 175.577C348.26 176.902 348.125 178.223 347.898 179.529Z" fill="black"/>
</g>
<path opacity="0.1" d="M323.851 84.6589C323.851 84.6589 311.918 106.333 328.247 117.393C344.575 128.452 346.152 127.346 346.152 127.346C346.152 127.346 345.926 129.998 346.152 130.664C346.378 131.331 350.548 132.87 350.548 132.87C350.548 132.87 355.629 141.039 362.92 144.596C370.211 148.153 371.543 156.536 371.543 156.536C371.543 156.536 371.543 159.414 375.311 162.066C379.079 164.718 381.98 172.46 381.98 172.46V179.542C381.98 180.648 383.305 183.941 380.435 184.293C377.565 184.645 379.989 191.262 379.989 191.262C379.989 191.262 376.9 195.032 377.559 196.792C378.218 198.551 376.234 202.095 376.234 202.095C376.234 202.095 373.803 205.633 374.023 206.299C374.243 206.966 371.373 209.397 372.032 210.943C372.692 212.489 368.723 214.481 369.382 216.253C370.042 218.025 366.556 218.905 366.556 218.905L357.004 241.025C357.004 241.025 377.1 245.424 382.288 256.503L407.622 210.057C407.622 210.057 421.765 175.338 422.211 173.126C422.657 170.914 419.115 162.952 419.115 162.952L401.876 131.532L376.014 95.0401C376.014 95.0401 355.459 51.2654 323.851 84.6589Z" fill="black"/>
<path opacity="0.1" d="M349.367 93.8022C349.367 93.8022 318.318 104.705 334.671 115.765C351.025 126.825 352.576 125.713 352.576 125.713C352.576 125.713 352.357 128.371 352.576 129.031C352.796 129.69 356.972 131.243 356.972 131.243C356.972 131.243 362.059 139.412 369.351 142.969C376.642 146.525 377.973 154.908 377.973 154.908C377.973 154.908 377.973 157.786 381.742 160.438C385.51 163.09 388.373 170.832 388.373 170.832V177.908C388.373 179.014 389.699 182.307 386.822 182.665C383.946 183.023 386.383 189.634 386.383 189.634C386.383 189.634 383.286 193.405 383.952 195.158C384.618 196.911 382.627 200.468 382.627 200.468C382.627 200.468 380.197 204.006 380.416 204.672C380.636 205.338 377.76 207.77 378.426 209.316C379.091 210.862 375.11 212.854 375.775 214.626C376.441 216.398 372.943 217.278 372.943 217.278L363.397 239.391C363.397 239.391 379.952 240.246 385.177 251.331L414.009 208.455C414.009 208.455 428.158 173.735 428.598 171.523C429.038 169.311 425.514 161.324 425.514 161.324L408.275 129.904L368.949 107.206C368.949 107.206 380.975 60.4024 349.367 93.8022Z" fill="black"/>
<path d="M325.622 84.6588C325.622 84.6588 313.689 106.333 330.018 117.392C346.346 128.452 347.923 127.346 347.923 127.346C347.923 127.346 347.703 129.998 347.923 130.664C348.143 131.331 352.319 132.87 352.319 132.87C352.319 132.87 357.406 141.039 364.697 144.596C371.988 148.153 373.32 156.536 373.32 156.536C373.32 156.536 373.32 159.414 377.088 162.066C380.856 164.718 383.751 172.46 383.751 172.46V179.542C383.751 180.648 385.076 183.941 382.2 184.293C379.324 184.644 381.76 191.262 381.76 191.262C381.76 191.262 378.664 195.032 379.33 196.792C379.996 198.551 378.005 202.095 378.005 202.095C378.005 202.095 375.574 205.633 375.794 206.299C376.014 206.965 373.138 209.397 373.803 210.943C374.469 212.489 370.487 214.481 371.153 216.253C371.819 218.025 368.321 218.905 368.321 218.905L358.775 241.025C358.775 241.025 378.834 245.424 384.053 256.503L409.387 210.057C409.387 210.057 423.536 175.338 423.976 173.126C424.415 170.914 420.88 162.952 420.88 162.952L403.641 131.532L377.785 95.0527C377.785 95.0527 357.224 51.2653 325.622 84.6588Z" fill="#3420FF"/>
<g opacity="0.1">
<path d="M195.075 95.5428C194.843 92.7962 194.252 90.092 193.317 87.4992C192.406 84.9856 191.163 82.5097 190.868 79.839C190.868 79.7573 190.868 79.6819 190.868 79.6002C190.802 80.2688 190.802 80.9424 190.868 81.6111C191.163 84.2818 192.406 86.7389 193.317 89.2713C194.252 91.8619 194.843 94.5641 195.075 97.3086C195.163 98.3392 195.201 99.3824 195.214 100.451C195.232 98.7854 195.214 97.1578 195.075 95.5428Z" fill="black"/>
<path d="M216.692 123.08C215.342 126.046 211.241 126.517 208.1 125.643C205.42 124.875 202.96 123.481 200.923 121.575C198.885 119.67 197.329 117.308 196.382 114.684C195.509 111.984 195.084 109.158 195.126 106.32C195.088 109.783 195.22 113.201 196.382 116.45C197.329 119.075 198.885 121.438 200.922 123.344C202.959 125.25 205.419 126.646 208.1 127.416C211.241 128.283 215.342 127.818 216.692 124.845C217.263 123.589 217.207 122.131 217.182 120.698C217.17 121.516 217.004 122.324 216.692 123.08Z" fill="black"/>
<path d="M277.71 81.7682C277.44 83.7791 276.642 86.0413 274.727 86.7137C273.611 87.0258 272.419 86.9139 271.38 86.3995C268.24 85.0296 265.445 81.7242 262.091 82.5223C259.353 83.1507 258.041 86.2487 257.318 88.976C256.795 90.6993 256.567 92.4991 256.646 94.2986C256.766 93.0957 256.991 91.9055 257.318 90.7418C258.041 88.0208 259.353 84.9416 262.091 84.2881C265.445 83.4963 268.214 86.8017 271.38 88.1654C272.417 88.6841 273.61 88.7984 274.727 88.4858C276.642 87.8134 277.44 85.5512 277.71 83.534C277.883 82.2493 277.946 80.9522 277.899 79.6567C277.867 80.3606 277.804 81.0706 277.71 81.7682Z" fill="black"/>
<path d="M260.408 107.369C258.524 108.733 255.968 107.281 253.902 106.194C251.691 105.032 248.878 104.309 246.774 105.648C246.052 106.1 245.468 106.754 244.764 107.237C243.317 108.133 241.6 108.489 239.916 108.243C235.915 107.834 234.421 105.302 231.375 103.341C229.139 101.902 224.467 101.286 223.135 104.24C222.816 105.109 222.727 106.047 222.878 106.961C222.919 106.634 223.006 106.315 223.135 106.012C224.473 103.052 229.139 103.668 231.375 105.113C234.421 107.074 235.915 109.607 239.916 110.015C241.601 110.256 243.316 109.898 244.764 109.003C245.468 108.526 246.052 107.872 246.774 107.42C248.897 106.1 251.691 106.791 253.902 107.966C255.968 109.047 258.512 110.48 260.408 109.135C261.514 108.343 261.777 106.936 261.532 105.547C261.403 106.276 261.001 106.928 260.408 107.369Z" fill="black"/>
<path d="M222.714 110.423C221.854 112.397 219.21 112.937 217.992 114.715C217.081 116.035 217.156 117.682 217.188 119.334C217.176 118.328 217.456 117.339 217.992 116.488C219.21 114.709 221.854 114.162 222.714 112.189C223.015 111.331 223.097 110.411 222.953 109.512C222.914 109.825 222.834 110.132 222.714 110.423Z" fill="black"/>
</g>
</g>
<defs>
<linearGradient id="paint0_linear_8_42" x1="323.983" y1="493.506" x2="323.983" y2="45.5783" gradientUnits="userSpaceOnUse">
<stop stop-color="#808080" stop-opacity="0.25"/>
<stop offset="0.54" stop-color="#808080" stop-opacity="0.12"/>
<stop offset="1" stop-color="#808080" stop-opacity="0.1"/>
</linearGradient>
<clipPath id="clip0_8_42">
<rect width="689" height="497" fill="white"/>
</clipPath>
</defs>
</svg>
