<svg width="593" height="495" viewBox="0 0 593 495" fill="none" xmlns="http://www.w3.org/2000/svg">
<g clip-path="url(#clip0_9_341)">
<path d="M405.116 0.000163091L0 240.04L12.1836 260.599L417.3 20.5596L405.116 0.000163091Z" fill="#F2F2F2"/>
<path d="M493.168 20.1246L88.0511 260.164L100.235 280.724L505.351 40.6841L493.168 20.1246Z" fill="#F2F2F2"/>
<path d="M571.155 42.1359L166.039 282.175L178.223 302.735L583.339 62.6954L571.155 42.1359Z" fill="#F2F2F2"/>
<path d="M263.874 281.384C333.924 281.384 390.711 224.601 390.711 154.556C390.711 84.5105 333.924 27.7275 263.874 27.7275C193.823 27.7275 137.036 84.5105 137.036 154.556C137.036 224.601 193.823 281.384 263.874 281.384Z" fill="white"/>
<path d="M136.093 154.556C136.093 84.1024 193.415 26.7842 263.874 26.7842C334.332 26.7842 391.654 84.1024 391.654 154.556C391.654 225.009 334.332 282.328 263.874 282.328C193.415 282.328 136.093 225.009 136.093 154.556ZM137.98 154.556C137.98 223.969 194.456 280.441 263.874 280.441C333.292 280.441 389.768 223.969 389.768 154.556C389.768 85.1428 333.292 28.6709 263.874 28.6709C194.456 28.6709 137.98 85.1428 137.98 154.556H137.98Z" fill="#3F3D56"/>
<path d="M241.264 155.107C241.264 150.636 242.59 146.264 245.074 142.546C247.559 138.829 251.09 135.931 255.221 134.22C259.353 132.508 263.899 132.061 268.285 132.933C272.671 133.805 276.699 135.959 279.861 139.12C283.024 142.282 285.177 146.311 286.049 150.696C286.922 155.082 286.474 159.628 284.763 163.759C283.051 167.89 280.153 171.421 276.435 173.905C272.717 176.39 268.346 177.716 263.874 177.716C257.877 177.716 252.126 175.334 247.886 171.094C243.646 166.854 241.264 161.103 241.264 155.107V155.107ZM263.874 133.601C258.172 133.608 252.705 135.876 248.673 139.907C244.641 143.939 242.373 149.405 242.367 155.107C242.367 159.361 243.628 163.518 245.991 167.055C248.354 170.592 251.713 173.348 255.643 174.976C259.573 176.604 263.898 177.029 268.07 176.2C272.242 175.37 276.074 173.322 279.082 170.314C282.089 167.306 284.138 163.474 284.968 159.303C285.798 155.131 285.372 150.807 283.744 146.877C282.116 142.948 279.359 139.589 275.822 137.226C272.286 134.863 268.127 133.601 263.874 133.601Z" fill="#3F3D56"/>
<path d="M220.859 155.107C220.859 146.6 223.382 138.284 228.109 131.211C232.835 124.138 239.553 118.625 247.413 115.37C255.273 112.114 263.921 111.263 272.265 112.922C280.609 114.582 288.274 118.678 294.289 124.693C300.305 130.709 304.402 138.373 306.062 146.716C307.721 155.059 306.869 163.708 303.614 171.567C300.358 179.426 294.845 186.144 287.771 190.87C280.698 195.596 272.381 198.118 263.874 198.118C258.225 198.118 252.632 197.006 247.413 194.844C242.194 192.683 237.452 189.515 233.458 185.521C229.464 181.527 226.295 176.785 224.134 171.567C221.972 166.348 220.859 160.755 220.859 155.107V155.107ZM263.874 113.199C255.584 113.199 247.481 115.656 240.589 120.261C233.697 124.866 228.325 131.412 225.153 139.069C221.98 146.727 221.15 155.154 222.768 163.283C224.385 171.412 228.376 178.88 234.238 184.741C240.099 190.602 247.567 194.593 255.697 196.21C263.827 197.827 272.254 196.997 279.912 193.825C287.571 190.654 294.116 185.282 298.722 178.39C303.327 171.498 305.785 163.396 305.785 155.107C305.773 143.996 301.353 133.344 293.496 125.487C285.639 117.63 274.985 113.211 263.874 113.199Z" fill="#CCCCCC"/>
<path d="M180.051 155.107C180.051 138.53 184.967 122.324 194.178 108.541C203.388 94.7572 216.479 84.0142 231.796 77.6703C247.113 71.3263 263.967 69.6665 280.227 72.9006C296.487 76.1347 311.423 84.1175 323.145 95.8395C334.868 107.562 342.852 122.496 346.086 138.755C349.32 155.014 347.66 171.867 341.316 187.182C334.972 202.498 324.228 215.589 310.443 224.798C296.659 234.008 280.452 238.924 263.874 238.924C241.65 238.899 220.344 230.06 204.63 214.347C188.915 198.634 180.076 177.329 180.051 155.107ZM263.874 72.393C247.513 72.393 231.52 77.2441 217.917 86.3328C204.314 95.4216 193.711 108.34 187.45 123.454C181.19 138.568 179.551 155.199 182.743 171.244C185.935 187.289 193.813 202.027 205.382 213.595C216.95 225.163 231.69 233.04 247.736 236.232C263.782 239.424 280.414 237.785 295.529 231.525C310.644 225.265 323.563 214.663 332.653 201.061C341.742 187.458 346.594 171.466 346.594 155.107C346.569 133.178 337.846 112.153 322.338 96.6468C306.83 81.1402 285.805 72.4178 263.874 72.393Z" fill="#CCCCCC"/>
<path d="M263.874 165.033C269.66 165.033 274.352 160.342 274.352 154.556C274.352 148.769 269.66 144.079 263.874 144.079C258.087 144.079 253.396 148.769 253.396 154.556C253.396 160.342 258.087 165.033 263.874 165.033Z" fill="#3420FF"/>
<path d="M236.852 195.361C242.639 195.361 247.33 190.671 247.33 184.884C247.33 179.098 242.639 174.407 236.852 174.407C231.065 174.407 226.374 179.098 226.374 184.884C226.374 190.671 231.065 195.361 236.852 195.361Z" fill="#3420FF"/>
<path d="M342.273 190.95C348.059 190.95 352.751 186.259 352.751 180.473C352.751 174.686 348.059 169.996 342.273 169.996C336.486 169.996 331.795 174.686 331.795 180.473C331.795 186.259 336.486 190.95 342.273 190.95Z" fill="#3420FF"/>
<path d="M263.874 159.518C266.615 159.518 268.837 157.297 268.837 154.556C268.837 151.815 266.615 149.593 263.874 149.593C261.133 149.593 258.91 151.815 258.91 154.556C258.91 157.297 261.133 159.518 263.874 159.518Z" fill="#2F2E41"/>
<path d="M342.273 185.436C345.014 185.436 347.236 183.214 347.236 180.473C347.236 177.732 345.014 175.51 342.273 175.51C339.532 175.51 337.31 177.732 337.31 180.473C337.31 183.214 339.532 185.436 342.273 185.436Z" fill="#2F2E41"/>
<path d="M236.852 190.399C239.593 190.399 241.815 188.177 241.815 185.436C241.815 182.695 239.593 180.473 236.852 180.473C234.111 180.473 231.889 182.695 231.889 185.436C231.889 188.177 234.111 190.399 236.852 190.399Z" fill="#2F2E41"/>
<path d="M32.2579 103.825C34.999 103.825 37.221 101.603 37.221 98.8618C37.221 96.1209 34.999 93.8989 32.2579 93.8989C29.5168 93.8989 27.2947 96.1209 27.2947 98.8618C27.2947 101.603 29.5168 103.825 32.2579 103.825Z" fill="#3420FF"/>
<path d="M263.598 99.1375H45.7684V98.0347H264.701V154.831H263.598V99.1375Z" fill="#2F2E41"/>
<path d="M17.9197 98.8616C17.9197 96.0259 18.7606 93.254 20.3361 90.8963C21.9116 88.5386 24.1509 86.7009 26.7708 85.6158C29.3908 84.5306 32.2737 84.2467 35.055 84.7999C37.8363 85.3531 40.3912 86.7186 42.3964 88.7237C44.4016 90.7287 45.7672 93.2834 46.3204 96.0645C46.8737 98.8456 46.5897 101.728 45.5045 104.348C44.4193 106.968 42.5815 109.207 40.2237 110.782C37.8658 112.358 35.0936 113.199 32.2578 113.199C30.3749 113.199 28.5104 112.828 26.7708 112.107C25.0313 111.387 23.4506 110.331 22.1192 108.999C20.7878 107.668 19.7317 106.088 19.0111 104.348C18.2905 102.609 17.9197 100.744 17.9197 98.8616ZM32.2578 85.6273C29.6402 85.6273 27.0813 86.4035 24.9047 87.8577C22.7282 89.3119 21.0318 91.3788 20.0301 93.797C19.0283 96.2153 18.7662 98.8762 19.2769 101.443C19.7876 104.011 21.0481 106.369 22.8991 108.22C24.7501 110.07 27.1084 111.331 29.6757 111.842C32.2431 112.352 34.9043 112.09 37.3227 111.088C39.7411 110.087 41.8082 108.391 43.2625 106.214C44.7168 104.038 45.493 101.479 45.493 98.8616C45.489 95.3529 44.0933 91.989 41.6121 89.508C39.1309 87.0269 35.7668 85.6313 32.2578 85.6273Z" fill="#2F2E41"/>
<path d="M65.3459 246.644C68.087 246.644 70.3091 244.423 70.3091 241.682C70.3091 238.941 68.087 236.719 65.3459 236.719C62.6048 236.719 60.3827 238.941 60.3827 241.682C60.3827 244.423 62.6048 246.644 65.3459 246.644Z" fill="#3420FF"/>
<path d="M51.0078 241.681C51.0078 238.846 51.8487 236.074 53.4242 233.716C54.9996 231.358 57.2389 229.521 59.8589 228.436C62.4788 227.35 65.3618 227.067 68.1431 227.62C70.9244 228.173 73.4792 229.538 75.4844 231.543C77.4897 233.549 78.8552 236.103 79.4085 238.884C79.9617 241.665 79.6778 244.548 78.5926 247.168C77.5073 249.788 75.6696 252.027 73.3117 253.602C70.9538 255.178 68.1817 256.018 65.3459 256.018C61.5432 256.018 57.8962 254.508 55.2073 251.819C52.5184 249.13 51.0078 245.484 51.0078 241.681ZM65.3459 228.447C62.7282 228.447 60.1693 229.223 57.9928 230.677C55.8163 232.132 54.1199 234.199 53.1181 236.617C52.1164 239.035 51.8543 241.696 52.365 244.263C52.8757 246.83 54.1362 249.189 55.9871 251.039C57.8381 252.89 60.1964 254.151 62.7638 254.661C65.3312 255.172 67.9923 254.91 70.4107 253.908C72.8291 252.907 74.8962 251.21 76.3505 249.034C77.8048 246.858 78.581 244.299 78.581 241.681C78.577 238.173 77.1813 234.809 74.7001 232.328C72.2189 229.847 68.8548 228.451 65.3459 228.447Z" fill="#2F2E41"/>
<path d="M496.132 126.984C498.873 126.984 501.095 124.762 501.095 122.021C501.095 119.281 498.873 117.059 496.132 117.059C493.391 117.059 491.169 119.281 491.169 122.021C491.169 124.762 493.391 126.984 496.132 126.984Z" fill="#3420FF"/>
<path d="M481.794 122.022C481.794 119.186 482.635 116.414 484.21 114.056C485.786 111.699 488.025 109.861 490.645 108.776C493.265 107.691 496.148 107.407 498.929 107.96C501.71 108.513 504.265 109.879 506.27 111.884C508.276 113.889 509.641 116.444 510.194 119.225C510.748 122.006 510.464 124.889 509.378 127.508C508.293 130.128 506.456 132.367 504.098 133.943C501.74 135.518 498.968 136.359 496.132 136.359C494.249 136.359 492.384 135.988 490.645 135.267C488.905 134.547 487.325 133.491 485.993 132.16C484.662 130.828 483.606 129.248 482.885 127.508C482.165 125.769 481.794 123.904 481.794 122.022ZM496.132 108.787C492.623 108.791 489.259 110.187 486.778 112.668C484.296 115.149 482.901 118.513 482.897 122.022C482.897 124.639 483.673 127.198 485.127 129.374C486.581 131.551 488.649 133.247 491.067 134.249C493.485 135.25 496.147 135.512 498.714 135.002C501.281 134.491 503.64 133.231 505.491 131.38C507.342 129.529 508.602 127.171 509.113 124.604C509.623 122.036 509.361 119.375 508.36 116.957C507.358 114.539 505.661 112.472 503.485 111.018C501.308 109.564 498.749 108.787 496.132 108.787V108.787Z" fill="#2F2E41"/>
<path d="M341.721 123.684L482.336 121.47L482.354 122.572L342.824 124.77V180.473H341.721V123.684Z" fill="#2F2E41"/>
<path d="M79.1329 241.13H236.3V185.436H237.403V242.232H79.1329V241.13Z" fill="#2F2E41"/>
<path d="M62.5885 124.779H1.92725V128.639H62.5885V124.779Z" fill="#CCCCCC"/>
<path d="M62.5885 135.807H1.92725V139.667H62.5885V135.807Z" fill="#CCCCCC"/>
<path d="M62.5885 146.836H1.92725V150.696H62.5885V146.836Z" fill="#CCCCCC"/>
<path d="M95.6765 267.599H35.0152V271.459H95.6765V267.599Z" fill="#CCCCCC"/>
<path d="M95.6765 278.627H35.0152V282.487H95.6765V278.627Z" fill="#CCCCCC"/>
<path d="M95.6765 289.656H35.0152V293.516H95.6765V289.656Z" fill="#CCCCCC"/>
<path d="M526.462 148.49H465.801V152.35H526.462V148.49Z" fill="#CCCCCC"/>
<path d="M526.462 159.519H465.801V163.379H526.462V159.519Z" fill="#CCCCCC"/>
<path d="M526.462 170.547H465.801V174.407H526.462V170.547Z" fill="#CCCCCC"/>
<path d="M555.34 477.364L546.714 480.447L530.716 448.641L543.449 444.091L555.34 477.364Z" fill="#FFB8B8"/>
<path d="M532.713 494.88L532.587 494.528C531.564 491.657 531.723 488.497 533.027 485.742C534.331 482.987 536.676 480.862 539.545 479.833L556.534 473.761L560.53 484.94L532.713 494.88Z" fill="#2F2E41"/>
<path d="M499.242 485.896L490.081 485.896L485.723 450.562L499.244 450.562L499.242 485.896Z" fill="#FFB8B8"/>
<path d="M501.579 494.776L472.039 494.775V494.401C472.039 492.891 472.336 491.396 472.914 490.001C473.492 488.607 474.339 487.339 475.406 486.272C476.474 485.204 477.742 484.357 479.137 483.779C480.532 483.202 482.027 482.904 483.537 482.904H483.537L501.579 482.905L501.579 494.776Z" fill="#2F2E41"/>
<path d="M520.121 260.156L516.137 252.284C516.137 252.284 501.294 256.003 499.945 264.604L520.121 260.156Z" fill="#3420FF"/>
<path d="M536.561 350.169L525.725 410.628L554.495 461.504L537.308 468.229L508.165 418.913L504.428 405.463L502.187 475.701L486.686 475.23L479.579 409.645L490.978 348.675L536.561 350.169Z" fill="#2F2E41"/>
<path d="M484.81 361.076C484.474 359.579 483.509 313.872 483.509 313.872C483.509 313.872 499.445 261.561 499.591 261.131L499.648 260.963L511.747 256.428C511.916 256.35 515.947 254.555 519.246 256.051C520.092 256.463 520.838 257.054 521.432 257.784C522.025 258.514 522.453 259.364 522.684 260.276C524.056 261.298 533.945 272.375 533.945 287.4L534.319 322.854L542.61 361.291L542.243 361.369C542.017 361.417 531.91 364.462 515.993 364.462C507.149 364.462 484.81 361.076 484.81 361.076Z" fill="#3F3D56"/>
<path d="M503.762 249.806C512.793 249.806 520.114 242.485 520.114 233.455C520.114 224.424 512.793 217.104 503.762 217.104C494.731 217.104 487.41 224.424 487.41 233.455C487.41 242.485 494.731 249.806 503.762 249.806Z" fill="#FFB8B8"/>
<path opacity="0.2" d="M527.058 305.49L498.45 345.403L494.225 326.764L527.058 305.49Z" fill="black"/>
<path d="M476.284 346.264C477.309 346.224 478.312 345.959 479.224 345.488C480.136 345.017 480.933 344.353 481.56 343.541C482.187 342.729 482.628 341.789 482.853 340.788C483.077 339.787 483.079 338.749 482.859 337.747L504.116 324.709L492.378 319.218L473.992 332.441C472.333 332.923 470.909 333.996 469.988 335.457C469.068 336.919 468.715 338.667 468.998 340.371C469.28 342.074 470.178 343.616 471.521 344.702C472.864 345.788 474.558 346.344 476.284 346.264Z" fill="#FFB8B8"/>
<path d="M490.978 319.534L483.697 324.635L489.872 335.599L498.45 328.5L490.978 319.534Z" fill="#3420FF"/>
<path d="M487.166 319.855L504.291 300.006L497.73 272.63C497.052 269.8 497.427 266.821 498.784 264.248C500.142 261.675 502.39 259.683 505.108 258.646C507.827 257.609 510.83 257.596 513.557 258.611C516.284 259.625 518.548 261.597 519.927 264.159L520.077 264.436L526.122 305.091L495.743 336.228L487.166 319.855Z" fill="#3F3D56"/>
<path d="M517.69 247.651L504.118 248.138C503.291 248.168 501.045 239.24 500.751 237.388C500.519 236.182 499.856 235.102 498.885 234.35C497.915 233.597 496.704 233.224 495.478 233.299C494.462 233.395 491.9 231.497 489.256 229.249C484.237 224.983 484.498 216.969 490.012 213.364C490.163 213.265 490.31 213.175 490.456 213.094C493.934 211.147 498.003 210.493 501.988 210.443C505.601 210.398 509.317 210.853 512.5 212.563C518.206 215.629 521.243 222.328 521.51 228.8C521.777 235.272 519.702 241.601 517.347 247.635" fill="#2F2E41"/>
<path d="M592.253 495H427.108C426.909 495 426.719 494.921 426.579 494.781C426.439 494.641 426.36 494.451 426.36 494.253C426.36 494.054 426.439 493.864 426.579 493.724C426.719 493.584 426.909 493.505 427.108 493.505H592.253C592.451 493.505 592.641 493.584 592.781 493.724C592.921 493.864 593 494.054 593 494.253C593 494.451 592.921 494.641 592.781 494.781C592.641 494.921 592.451 495 592.253 495Z" fill="#3F3D56"/>
</g>
<defs>
<clipPath id="clip0_9_341">
<rect width="593" height="495" fill="white"/>
</clipPath>
</defs>
</svg>
