<svg width="639" height="499" viewBox="0 0 639 499" fill="none" xmlns="http://www.w3.org/2000/svg">
<g clip-path="url(#clip0_9_297)">
<path d="M48.0761 498.75L47.4036 497.027C56.4204 490.267 67.6422 481.854 73.5035 468.048C79.2815 454.439 79.4111 435.958 73.8419 419.818C69.1023 406.082 60.3961 393.775 48.6645 384.229C46.3504 382.346 43.9213 380.561 41.5721 378.835C35.8938 374.663 30.0221 370.349 25.1806 364.229C18.5123 355.799 13.467 341.653 17.2274 329.053C18.4642 325.031 20.4896 321.571 23.0738 319.064C25.6579 316.558 28.6972 315.106 31.8466 314.874L31.9264 316.831C29.0412 317.043 26.2566 318.372 23.8887 320.667C21.5208 322.963 19.6644 326.132 18.5301 329.815C15.0357 341.525 19.8301 354.812 26.1334 362.781C30.8426 368.734 36.6338 372.988 42.2343 377.103C44.5968 378.839 47.0399 380.634 49.3805 382.538C61.3561 392.284 70.2559 404.882 75.1175 418.972C80.8869 435.693 80.7356 454.879 74.7222 469.043C68.6612 483.319 57.2473 491.876 48.0761 498.75Z" fill="#F1F1F1"/>
<path d="M40.8085 325.205C47.6417 325.205 53.1812 321.475 53.1812 316.875C53.1812 312.274 47.6417 308.544 40.8085 308.544C33.9753 308.544 28.4359 312.274 28.4359 316.875C28.4359 321.475 33.9753 325.205 40.8085 325.205Z" fill="#F1F1F1"/>
<path d="M50.7066 380.089C57.5399 380.089 63.0793 376.36 63.0793 371.759C63.0793 367.158 57.5399 363.428 50.7066 363.428C43.8734 363.428 38.334 367.158 38.334 371.759C38.334 376.36 43.8734 380.089 50.7066 380.089Z" fill="#F1F1F1"/>
<path d="M28.0824 388.91C34.9156 388.91 40.455 385.18 40.455 380.579C40.455 375.979 34.9156 372.249 28.0824 372.249C21.2491 372.249 15.7097 375.979 15.7097 380.579C15.7097 385.18 21.2491 388.91 28.0824 388.91Z" fill="#F1F1F1"/>
<path d="M63.4328 434.974C70.266 434.974 75.8055 431.244 75.8055 426.643C75.8055 422.042 70.266 418.312 63.4328 418.312C56.5996 418.312 51.0602 422.042 51.0602 426.643C51.0602 431.244 56.5996 434.974 63.4328 434.974Z" fill="#F1F1F1"/>
<path d="M88.1781 434.974C95.0114 434.974 100.551 431.244 100.551 426.643C100.551 422.042 95.0114 418.312 88.1781 418.312C81.3449 418.312 75.8055 422.042 75.8055 426.643C75.8055 431.244 81.3449 434.974 88.1781 434.974Z" fill="#F1F1F1"/>
<path d="M639 15.1221H241.098V276.857H639V15.1221Z" fill="#E6E6E6"/>
<path d="M627.622 37.5662H252.476V255.94H627.622V37.5662Z" fill="white"/>
<path d="M638.83 0H240.928V23.4328H638.83V0Z" fill="#3420FF"/>
<path d="M253.49 15.182C255.221 15.182 256.623 13.2375 256.623 10.8388C256.623 8.44012 255.221 6.49561 253.49 6.49561C251.76 6.49561 250.357 8.44012 250.357 10.8388C250.357 13.2375 251.76 15.182 253.49 15.182Z" fill="white"/>
<path d="M265.382 15.182C267.113 15.182 268.516 13.2375 268.516 10.8388C268.516 8.44012 267.113 6.49561 265.382 6.49561C263.652 6.49561 262.249 8.44012 262.249 10.8388C262.249 13.2375 263.652 15.182 265.382 15.182Z" fill="white"/>
<path d="M277.275 15.182C279.006 15.182 280.408 13.2375 280.408 10.8388C280.408 8.44012 279.006 6.49561 277.275 6.49561C275.545 6.49561 274.142 8.44012 274.142 10.8388C274.142 13.2375 275.545 15.182 277.275 15.182Z" fill="white"/>
<path d="M420.269 89.3904C419.867 89.3904 419.481 89.6121 419.196 90.0067C418.911 90.4013 418.751 90.9364 418.751 91.4945C418.751 92.0525 418.911 92.5877 419.196 92.9823C419.481 93.3769 419.867 93.5986 420.269 93.5986H503.558C503.96 93.5986 504.346 93.3769 504.631 92.9823C504.916 92.5877 505.076 92.0525 505.076 91.4945C505.076 90.9364 504.916 90.4013 504.631 90.0067C504.346 89.6121 503.96 89.3904 503.558 89.3904H420.269Z" fill="#E6E6E6"/>
<path d="M420.269 102.016C419.867 102.018 419.482 102.24 419.198 102.634C418.914 103.029 418.755 103.563 418.755 104.12C418.755 104.678 418.914 105.212 419.198 105.607C419.482 106.001 419.867 106.223 420.269 106.225H462.79C463.192 106.223 463.577 106.001 463.861 105.607C464.145 105.212 464.304 104.678 464.304 104.12C464.304 103.563 464.145 103.029 463.861 102.634C463.577 102.24 463.192 102.018 462.79 102.016H420.269Z" fill="#E6E6E6"/>
<path d="M418.173 163.127C417.771 163.127 417.385 163.349 417.1 163.743C416.815 164.138 416.656 164.673 416.656 165.231C416.656 165.789 416.815 166.325 417.1 166.719C417.385 167.114 417.771 167.335 418.173 167.335H574.34C574.742 167.335 575.128 167.114 575.413 166.719C575.698 166.325 575.858 165.789 575.858 165.231C575.858 164.673 575.698 164.138 575.413 163.743C575.128 163.349 574.742 163.127 574.34 163.127H418.173Z" fill="#E6E6E6"/>
<path d="M418.173 175.753C417.771 175.754 417.386 175.976 417.102 176.371C416.818 176.765 416.659 177.3 416.659 177.857C416.659 178.414 416.818 178.949 417.102 179.343C417.386 179.738 417.771 179.96 418.173 179.961H533.572C533.974 179.96 534.359 179.738 534.643 179.343C534.927 178.949 535.086 178.414 535.086 177.857C535.086 177.3 534.927 176.765 534.643 176.371C534.359 175.976 533.974 175.754 533.572 175.753H418.173Z" fill="#E6E6E6"/>
<path d="M418.173 188.093C417.771 188.094 417.386 188.317 417.102 188.711C416.818 189.106 416.659 189.64 416.659 190.197C416.659 190.755 416.818 191.289 417.102 191.684C417.386 192.078 417.771 192.3 418.173 192.301H574.34C574.742 192.3 575.127 192.078 575.411 191.684C575.695 191.289 575.854 190.755 575.854 190.197C575.854 189.64 575.695 189.106 575.411 188.711C575.127 188.317 574.742 188.094 574.34 188.093H418.173Z" fill="#E6E6E6"/>
<path d="M418.173 200.719C417.771 200.72 417.386 200.942 417.102 201.337C416.818 201.731 416.659 202.266 416.659 202.823C416.659 203.38 416.818 203.915 417.102 204.309C417.386 204.704 417.771 204.926 418.173 204.927H533.572C533.974 204.926 534.359 204.704 534.643 204.309C534.927 203.915 535.086 203.38 535.086 202.823C535.086 202.266 534.927 201.731 534.643 201.337C534.359 200.942 533.974 200.72 533.572 200.719H418.173Z" fill="#E6E6E6"/>
<path d="M336.529 171.667C343.828 171.667 349.746 163.464 349.746 153.345C349.746 143.226 343.828 135.023 336.529 135.023C329.229 135.023 323.312 143.226 323.312 153.345C323.312 163.464 329.229 171.667 336.529 171.667Z" fill="#A0616A"/>
<path d="M332.343 138.687C332.343 138.687 338.511 140.977 341.705 141.893C344.899 142.81 344.569 140.214 344.569 140.214C344.569 140.214 348.754 140.977 348.534 140.367C348.314 139.756 350.296 136.55 347.983 132.885C345.67 129.221 346.331 126.473 346.331 126.473H344.349L343.798 125.404H340.714C340.714 125.404 337.304 121.259 331.247 122.481C325.189 123.702 318.025 126.931 317.364 131.969C317.274 132.652 317.156 133.412 317.019 134.214C315.363 143.908 318.882 152.979 322.533 161.56C323.43 163.669 327.769 168.268 327.658 165.113C327.547 161.958 323.752 154.871 326.395 154.413C329.039 153.955 333.555 144.642 332.343 138.687Z" fill="#2F2E41"/>
<path d="M329.031 212.576C326.479 212.293 323.949 211.716 321.466 210.853L321.606 207.199L322.763 178.148L322.773 177.925H346.056L349.709 204.674L350.202 208.283C349.238 208.803 348.263 209.293 347.267 209.724C347.256 209.724 347.256 209.739 347.245 209.739C345.863 210.333 344.459 210.853 343.045 211.283C341.164 211.846 339.261 212.253 337.345 212.501C335.864 212.705 334.376 212.804 332.888 212.798C331.602 212.798 330.306 212.724 329.031 212.576Z" fill="#3420FF"/>
<path d="M314.063 207.407C313.099 206.828 312.166 206.204 311.245 205.551L310.848 205.268C310.581 205.075 310.302 204.867 310.034 204.659C309.67 204.377 309.316 204.095 308.973 203.813C308.641 203.545 308.299 203.263 307.966 202.981C307.945 202.966 307.934 202.951 307.913 202.951C306.756 201.927 305.62 200.872 304.527 199.728C304.345 199.535 304.163 199.342 303.98 199.149L303.788 194.872L304.066 194.634L322.763 178.148L323.02 177.925L323.041 177.91L325.677 177.925V191.53C327.166 194.515 328.173 200.768 328.795 208.952C328.881 210.125 328.956 211.328 329.031 212.576C326.479 212.293 323.949 211.717 321.466 210.853C321.199 210.779 320.941 210.69 320.673 210.586C319.112 210.019 317.574 209.335 316.066 208.536C315.606 208.298 315.156 208.046 314.706 207.793L314.663 207.764C314.47 207.645 314.256 207.526 314.063 207.407Z" fill="#2F2E41"/>
<path d="M310.034 204.659C309.67 204.377 309.316 204.095 308.973 203.813C308.641 203.545 308.298 203.263 307.966 202.981C307.945 202.966 307.934 202.951 307.913 202.951C306.756 201.926 305.62 200.872 304.527 199.728C304.345 199.535 304.163 199.342 303.98 199.149C303.895 199.045 303.809 198.956 303.712 198.852C303.027 198.124 302.363 197.367 301.72 196.565C301.688 196.535 301.666 196.49 301.634 196.461C302.283 195.769 303.011 195.232 303.788 194.872L304.549 195.184L309.97 197.441L310.002 200.486L310.034 204.659Z" fill="#2F2E41"/>
<path d="M355.688 204.704C355.366 204.941 355.045 205.179 354.724 205.402C354.648 205.461 354.585 205.506 354.52 205.55C354.091 205.848 353.674 206.145 353.245 206.427C353.234 206.442 353.213 206.442 353.213 206.456C353.191 206.471 353.16 206.486 353.138 206.501C352.174 207.14 351.199 207.734 350.202 208.283C349.238 208.803 348.263 209.293 347.267 209.724C347.256 209.724 347.256 209.739 347.245 209.739C345.863 210.333 344.459 210.853 343.045 211.283C343.029 210.063 343.145 208.847 343.388 207.674L343.398 207.466L344.32 186.792L343.088 177.925L346.624 177.197L366.07 191.708C366.07 191.708 363.927 194.678 355.131 201.006C354.353 201.565 355.495 203.427 355.688 204.704Z" fill="#2F2E41"/>
<path d="M337.109 208.937C335.716 209.115 334.302 209.204 332.888 209.204C331.516 209.204 330.156 209.13 328.795 208.952C328.881 210.125 328.956 211.328 329.031 212.576C330.306 212.724 331.602 212.799 332.888 212.799C334.376 212.804 335.864 212.705 337.345 212.502C339.261 212.253 341.164 211.846 343.045 211.284C343.029 210.064 343.145 208.847 343.388 207.674L343.398 207.467C341.33 208.164 339.228 208.656 337.109 208.937ZM377.598 125.585C375.334 116.569 371.679 108.347 366.887 101.491C362.095 94.6347 356.282 89.3102 349.853 85.8884C343.424 82.4667 336.534 81.0301 329.663 81.6788C322.793 82.3276 316.107 85.046 310.072 89.6446C304.037 94.2431 298.798 100.611 294.721 108.305C290.644 115.998 287.827 124.832 286.465 134.19C285.104 143.548 285.232 153.205 286.839 162.487C288.447 171.77 291.496 180.454 295.773 187.936C296.202 188.678 296.641 189.421 297.091 190.134C297.134 190.193 297.156 190.238 297.188 190.282C298.294 192.051 299.471 193.732 300.713 195.317C301.013 195.703 301.323 196.09 301.634 196.461C301.666 196.491 301.688 196.535 301.72 196.565C302.363 197.367 303.027 198.124 303.712 198.852C303.809 198.956 303.895 199.045 303.98 199.149C304.163 199.342 304.345 199.535 304.527 199.728C305.62 200.872 306.756 201.927 307.913 202.951C307.934 202.951 307.945 202.966 307.966 202.981C308.298 203.263 308.641 203.545 308.973 203.813C309.316 204.095 309.67 204.377 310.034 204.659C310.302 204.867 310.58 205.075 310.848 205.268L311.245 205.551C312.166 206.204 313.098 206.828 314.063 207.407C314.256 207.526 314.47 207.645 314.663 207.764L314.706 207.793C315.155 208.046 315.605 208.298 316.066 208.536C317.574 209.335 319.112 210.019 320.673 210.586C320.941 210.69 321.199 210.779 321.466 210.853C323.949 211.717 326.479 212.293 329.031 212.576C330.306 212.724 331.602 212.799 332.888 212.799C334.376 212.804 335.864 212.705 337.345 212.501C339.261 212.253 341.164 211.846 343.045 211.284C344.459 210.853 345.863 210.333 347.245 209.739C347.256 209.739 347.256 209.724 347.267 209.724C348.263 209.293 349.238 208.803 350.202 208.283C351.199 207.734 352.174 207.14 353.138 206.501C353.159 206.486 353.191 206.471 353.213 206.457C353.213 206.442 353.234 206.442 353.245 206.427C353.674 206.145 354.091 205.848 354.52 205.551C354.585 205.506 354.648 205.462 354.724 205.402C355.045 205.179 355.366 204.942 355.688 204.704C355.709 204.689 355.72 204.674 355.741 204.659C356.588 204.006 357.424 203.323 358.249 202.595C358.474 202.402 358.699 202.209 358.924 201.986C359.256 201.704 359.577 201.392 359.888 201.08C360.306 200.679 360.723 200.263 361.131 199.832C361.266 199.712 361.395 199.578 361.516 199.431C362.513 198.392 363.477 197.293 364.398 196.134C371.386 187.503 376.37 176.193 378.719 163.635C381.069 151.077 380.679 137.836 377.598 125.585L377.598 125.585ZM363.595 192.302C362.435 193.815 361.219 195.243 359.952 196.58C359.674 196.877 359.384 197.174 359.095 197.441C358.816 197.738 358.538 198.02 358.249 198.288C358.002 198.525 357.756 198.763 357.499 198.986C357.477 199.015 357.445 199.03 357.424 199.06C357.241 199.238 357.049 199.402 356.867 199.565C356.299 200.055 355.709 200.545 355.131 201.006C354.992 201.11 354.863 201.228 354.724 201.332C354.648 201.392 354.574 201.451 354.488 201.511C354.167 201.763 353.845 201.986 353.524 202.224C353.481 202.268 353.427 202.283 353.384 202.328C353.368 202.331 353.353 202.341 353.342 202.357C353.117 202.521 352.892 202.669 352.667 202.818C352.474 202.951 352.292 203.085 352.099 203.204C351.316 203.724 350.513 204.214 349.709 204.674C348.863 205.15 348.006 205.58 347.138 205.981C346.923 206.085 346.698 206.204 346.474 206.293C345.455 206.739 344.438 207.14 343.398 207.466C341.33 208.164 339.228 208.656 337.109 208.937C335.716 209.115 334.302 209.204 332.888 209.204C331.516 209.204 330.156 209.13 328.795 208.952C326.368 208.644 323.963 208.058 321.606 207.199C321.52 207.169 321.424 207.14 321.338 207.11C319.404 206.411 317.51 205.518 315.67 204.437C315.574 204.377 315.466 204.333 315.381 204.273C315.273 204.214 315.177 204.169 315.091 204.11C314.984 204.05 314.888 203.991 314.791 203.932C313.988 203.442 313.206 202.907 312.424 202.357L312.059 202.09C311.363 201.585 310.677 201.065 310.002 200.486C309.767 200.308 309.52 200.1 309.284 199.892C309.016 199.669 308.748 199.431 308.491 199.194C308.427 199.134 308.363 199.075 308.299 199.015C307.698 198.451 307.088 197.887 306.509 197.278C306.102 196.862 305.706 196.461 305.309 196.03C305.052 195.763 304.795 195.481 304.549 195.184C304.388 195.02 304.227 194.827 304.066 194.634C303.852 194.382 303.638 194.129 303.424 193.862C303.092 193.49 302.781 193.074 302.48 192.688C301.274 191.147 300.133 189.511 299.063 187.787C298.699 187.223 298.355 186.658 298.024 186.064C297.946 185.947 297.875 185.823 297.809 185.693C292.415 176.254 289.119 164.842 288.324 152.851C287.529 140.859 289.269 128.806 293.331 118.162C297.393 107.517 303.602 98.742 311.201 92.9062C318.8 87.0704 327.46 84.4265 336.124 85.297C344.788 86.1675 353.082 90.5147 359.995 97.8084C366.907 105.102 372.138 115.027 375.051 126.372C377.964 137.717 378.431 149.992 376.397 161.699C374.363 173.406 369.915 184.04 363.595 192.302L363.595 192.302Z" fill="#3F3D56"/>
<path d="M115.551 486.801L124.219 486.8L128.342 440.454L115.549 440.455L115.551 486.801Z" fill="#A0616A"/>
<path d="M113.34 482.878L130.41 482.877H130.411C133.296 482.877 136.063 484.466 138.103 487.294C140.143 490.122 141.289 493.957 141.289 497.956V498.446L113.341 498.448L113.34 482.878Z" fill="#2F2E41"/>
<path d="M148.073 486.801L156.741 486.8L160.864 440.454L148.072 440.455L148.073 486.801Z" fill="#A0616A"/>
<path d="M145.862 482.878L162.932 482.877H162.933C165.818 482.877 168.585 484.466 170.625 487.294C172.665 490.122 173.811 493.957 173.812 497.956V498.446L145.863 498.448L145.862 482.878Z" fill="#2F2E41"/>
<path d="M89.2504 303.666C89.9598 302.613 90.494 301.357 90.8155 299.987C91.1369 298.617 91.2376 297.166 91.1107 295.736C90.9838 294.306 90.6322 292.932 90.0807 291.711C89.5292 290.489 88.7913 289.45 87.9189 288.667L93.9414 254.654L81.5741 260.763L77.7511 292.126C76.8991 294.245 76.6375 296.723 77.0157 299.092C77.3938 301.46 78.3856 303.554 79.8031 304.976C81.2205 306.399 82.9651 307.051 84.7063 306.81C86.4475 306.568 88.0644 305.45 89.2504 303.666Z" fill="#9E616A"/>
<path d="M181.261 300.726C180.552 299.673 180.018 298.417 179.696 297.047C179.375 295.677 179.274 294.226 179.401 292.796C179.528 291.366 179.88 289.992 180.431 288.77C180.983 287.549 181.72 286.51 182.593 285.727L176.57 251.714L188.938 257.823L192.761 289.186C193.613 291.305 193.874 293.783 193.496 296.151C193.118 298.52 192.126 300.614 190.709 302.036C189.291 303.459 187.547 304.111 185.805 303.87C184.064 303.628 182.447 302.51 181.261 300.726Z" fill="#9E616A"/>
<path d="M100.655 279.824L112.669 474.922L130.248 472.701L137.284 321.916L143.546 381.62L144.8 476.458L160.708 474.988L169.542 372.962L167.375 274.154L106.984 265.677L100.655 279.824Z" fill="#2F2E41"/>
<path d="M133.704 102.288C143.773 102.288 151.935 90.9739 151.935 77.0166C151.935 63.0593 143.773 51.7446 133.704 51.7446C123.635 51.7446 115.473 63.0593 115.473 77.0166C115.473 90.9739 123.635 102.288 133.704 102.288Z" fill="#A0616A"/>
<path d="M127.931 56.7991C127.931 56.7991 136.439 59.9581 140.844 61.2217C145.25 62.4853 144.794 58.9051 144.794 58.9051C144.794 58.9051 150.567 59.9581 150.264 59.1157C149.96 58.2733 152.694 53.8507 149.504 48.7963C146.314 43.7419 147.225 39.9512 147.225 39.9512H144.491L143.731 38.477H139.477C139.477 38.477 134.774 32.7602 126.418 34.4449C118.062 36.1297 108.181 40.583 107.269 47.5327C107.146 48.4754 106.983 49.5227 106.794 50.6288C104.509 64.0006 109.364 76.5119 114.399 88.349C115.637 91.2581 121.622 97.6016 121.469 93.2493C121.316 88.8971 116.081 79.1227 119.727 78.4909C123.373 77.8591 129.602 65.0125 127.931 56.7991Z" fill="#2F2E41"/>
<path d="M114.733 110.921H146.84L169.541 277.117C169.541 277.117 149.75 279.463 138.437 285.344C127.125 291.224 108.32 271.911 108.32 271.911L114.733 110.921Z" fill="#3420FF"/>
<path d="M118.741 129.69V110.921L115.106 110.891L88.546 134.3L94.3092 262.555C94.3092 262.555 101.13 305.343 111.477 304.899C121.823 304.455 129.8 151.919 118.741 129.69Z" fill="#2F2E41"/>
<path d="M97.0774 137.843L88.546 134.3C88.546 134.3 82.2302 136.863 82.2302 145.683C82.2302 154.504 76.7885 279.824 76.7885 279.824L94.0754 281.942L97.7844 218.209L97.0774 137.843Z" fill="#2F2E41"/>
<path d="M144.447 123.142L142.746 110.921L147.629 109.911L165.304 119.711C165.304 119.711 181.211 280.934 174.141 285.834C167.071 290.734 162.298 286.938 162.298 286.938C162.298 286.938 139.043 168.029 143.159 151.956L144.447 123.142Z" fill="#2F2E41"/>
<path d="M152.931 122.161L155.948 120.341C155.948 120.341 164.802 114.259 169.825 126.541C174.848 138.823 192.524 276.033 192.524 276.033L177.98 279.824L167.107 230.444L152.931 122.161Z" fill="#2F2E41"/>
<path d="M270.078 499H0.707009C0.519499 499 0.339668 498.897 0.207078 498.713C0.0744877 498.529 0 498.28 0 498.02C0 497.76 0.0744877 497.511 0.207078 497.327C0.339668 497.143 0.519499 497.04 0.707009 497.04H270.078C270.265 497.04 270.445 497.143 270.578 497.327C270.71 497.511 270.785 497.76 270.785 498.02C270.785 498.28 270.71 498.529 270.578 498.713C270.445 498.897 270.265 499 270.078 499Z" fill="#CACACA"/>
</g>
<defs>
<clipPath id="clip0_9_297">
<rect width="639" height="499" fill="white"/>
</clipPath>
</defs>
</svg>
