<svg width="602" height="576" viewBox="0 0 602 576" fill="none" xmlns="http://www.w3.org/2000/svg">
<g clip-path="url(#clip0_10_391)">
<path d="M594.028 576H123.706C121.593 575.998 119.566 575.157 118.072 573.664C116.578 572.17 115.737 570.145 115.734 568.032V278.527C115.737 276.414 116.578 274.389 118.072 272.895C119.566 271.401 121.593 270.561 123.706 270.559H594.028C596.142 270.561 598.168 271.401 599.663 272.895C601.157 274.389 601.998 276.414 602 278.527V568.032C601.998 570.145 601.157 572.17 599.663 573.664C598.168 575.157 596.142 575.998 594.028 576ZM123.706 272.329C122.062 272.331 120.486 272.985 119.324 274.147C118.162 275.308 117.508 276.884 117.506 278.527V568.032C117.508 569.675 118.162 571.25 119.324 572.412C120.486 573.574 122.062 574.228 123.706 574.229H594.028C595.672 574.228 597.248 573.574 598.41 572.412C599.573 571.25 600.227 569.675 600.229 568.032V278.527C600.227 276.884 599.573 275.308 598.41 274.147C597.248 272.985 595.672 272.331 594.028 272.329H123.706Z" fill="#3F3D56"/>
<path d="M539.704 519.073H502.503C501.916 519.072 501.354 518.839 500.938 518.424C500.523 518.009 500.29 517.447 500.289 516.86V497.382C500.29 496.795 500.523 496.233 500.938 495.818C501.354 495.403 501.916 495.17 502.503 495.169H529.297C529.649 495.169 529.987 495.309 530.236 495.558C530.485 495.807 530.625 496.145 530.625 496.497C530.625 496.849 530.485 497.187 530.236 497.436C529.987 497.685 529.649 497.825 529.297 497.825H504.275C503.923 497.825 503.585 497.965 503.336 498.214C503.087 498.463 502.947 498.801 502.946 499.153V515.089C502.947 515.441 503.087 515.779 503.336 516.028C503.585 516.277 503.923 516.417 504.275 516.417H537.933C538.285 516.417 538.623 516.277 538.872 516.028C539.121 515.779 539.261 515.441 539.261 515.089V506.647C539.261 506.295 539.401 505.957 539.65 505.708C539.9 505.459 540.237 505.319 540.59 505.319C540.942 505.319 541.28 505.459 541.529 505.708C541.778 505.957 541.918 506.295 541.918 506.647V516.86C541.918 517.447 541.684 518.009 541.269 518.424C540.854 518.839 540.291 519.072 539.704 519.073Z" fill="#3F3D56"/>
<path d="M474.012 323.679H187.921C186.864 323.679 185.851 323.259 185.103 322.512C184.356 321.765 183.936 320.752 183.936 319.695C183.936 318.638 184.356 317.625 185.103 316.878C185.851 316.131 186.864 315.711 187.921 315.711H474.012C475.069 315.711 476.083 316.131 476.83 316.878C477.578 317.625 477.998 318.638 477.998 319.695C477.998 320.752 477.578 321.765 476.83 322.512C476.083 323.259 475.069 323.679 474.012 323.679Z" fill="#CCCCCC"/>
<path d="M474.012 356.436H187.921C186.864 356.436 185.851 356.017 185.103 355.269C184.356 354.522 183.936 353.509 183.936 352.452C183.936 351.396 184.356 350.382 185.103 349.635C185.851 348.888 186.864 348.468 187.921 348.468H474.012C475.069 348.468 476.083 348.888 476.83 349.635C477.578 350.382 477.998 351.396 477.998 352.452C477.998 353.509 477.578 354.522 476.83 355.269C476.083 356.017 475.069 356.436 474.012 356.436Z" fill="#CCCCCC"/>
<path d="M474.012 389.194H187.921C186.864 389.194 185.851 388.774 185.103 388.027C184.356 387.28 183.936 386.266 183.936 385.21C183.936 384.153 184.356 383.14 185.103 382.392C185.851 381.645 186.864 381.226 187.921 381.226H474.012C475.069 381.226 476.083 381.645 476.83 382.392C477.578 383.14 477.998 384.153 477.998 385.21C477.998 386.266 477.578 387.28 476.83 388.027C476.083 388.774 475.069 389.194 474.012 389.194Z" fill="#CCCCCC"/>
<path d="M474.012 421.951H187.921C186.864 421.951 185.851 421.532 185.103 420.785C184.356 420.037 183.936 419.024 183.936 417.967C183.936 416.911 184.356 415.897 185.103 415.15C185.851 414.403 186.864 413.983 187.921 413.983H474.012C475.069 413.983 476.083 414.403 476.83 415.15C477.578 415.897 477.998 416.911 477.998 417.967C477.998 419.024 477.578 420.037 476.83 420.785C476.083 421.532 475.069 421.951 474.012 421.951Z" fill="#CCCCCC"/>
<path d="M474.012 454.709H187.921C186.864 454.709 185.851 454.289 185.103 453.542C184.356 452.795 183.936 451.781 183.936 450.725C183.936 449.668 184.356 448.655 185.103 447.908C185.851 447.16 186.864 446.741 187.921 446.741H474.012C475.069 446.741 476.083 447.16 476.83 447.908C477.578 448.655 477.998 449.668 477.998 450.725C477.998 451.781 477.578 452.795 476.83 453.542C476.083 454.289 475.069 454.709 474.012 454.709Z" fill="#CCCCCC"/>
<path d="M521.841 331.204C528.201 331.204 533.356 326.051 533.356 319.694C533.356 313.338 528.201 308.185 521.841 308.185C515.482 308.185 510.327 313.338 510.327 319.694C510.327 326.051 515.482 331.204 521.841 331.204Z" fill="#3420FF"/>
<path d="M521.841 363.961C528.201 363.961 533.356 358.808 533.356 352.452C533.356 346.095 528.201 340.942 521.841 340.942C515.482 340.942 510.327 346.095 510.327 352.452C510.327 358.808 515.482 363.961 521.841 363.961Z" fill="#FF6584"/>
<path d="M521.841 396.719C528.201 396.719 533.356 391.566 533.356 385.21C533.356 378.853 528.201 373.7 521.841 373.7C515.482 373.7 510.327 378.853 510.327 385.21C510.327 391.566 515.482 396.719 521.841 396.719Z" fill="#3420FF"/>
<path d="M521.841 429.476C528.201 429.476 533.356 424.323 533.356 417.967C533.356 411.61 528.201 406.458 521.841 406.458C515.482 406.458 510.327 411.61 510.327 417.967C510.327 424.323 515.482 429.476 521.841 429.476Z" fill="#F2F2F2"/>
<path d="M521.841 462.234C528.201 462.234 533.356 457.081 533.356 450.724C533.356 444.368 528.201 439.215 521.841 439.215C515.482 439.215 510.327 444.368 510.327 450.724C510.327 457.081 515.482 462.234 521.841 462.234Z" fill="#F2F2F2"/>
<path d="M521.547 512.838C521.22 512.838 520.897 512.775 520.596 512.65C520.294 512.525 520.02 512.342 519.789 512.112L511.933 504.259C511.684 504.01 511.545 503.672 511.545 503.32C511.545 502.968 511.684 502.631 511.933 502.381C512.187 502.14 512.523 502.005 512.873 502.005C513.223 502.005 513.559 502.14 513.813 502.381L521.234 509.8C521.318 509.88 521.43 509.925 521.546 509.925C521.663 509.925 521.775 509.88 521.859 509.8L546.553 485.117C546.806 484.876 547.143 484.741 547.493 484.741C547.843 484.741 548.179 484.876 548.432 485.117C548.681 485.366 548.821 485.704 548.821 486.056C548.821 486.409 548.681 486.746 548.432 486.995L523.304 512.112C523.074 512.342 522.8 512.525 522.498 512.65C522.196 512.774 521.873 512.838 521.547 512.838Z" fill="#3420FF"/>
<path opacity="0.1" d="M521.547 535.009C555.3 535.009 582.662 533.423 582.662 531.468C582.662 529.512 555.3 527.926 521.547 527.926C487.794 527.926 460.432 529.512 460.432 531.468C460.432 533.423 487.794 535.009 521.547 535.009Z" fill="black"/>
<path d="M70.6395 217.723H3.96851C2.91634 217.722 1.90757 217.304 1.16357 216.56C0.419573 215.817 0.00110667 214.808 0 213.756V178.849C0.00110667 177.797 0.419573 176.789 1.16357 176.045C1.90757 175.302 2.91634 174.883 3.96851 174.882H51.9875C52.3005 174.882 52.6106 174.943 52.9001 175.062C53.1895 175.182 53.4525 175.357 53.6741 175.578C53.8957 175.799 54.0715 176.061 54.1915 176.351C54.3114 176.64 54.3732 176.949 54.3732 177.262C54.3732 177.575 54.3114 177.885 54.1915 178.174C54.0715 178.463 53.8957 178.726 53.6741 178.947C53.4525 179.168 53.1895 179.343 52.9001 179.463C52.6106 179.582 52.3005 179.643 51.9875 179.642H7.14328C6.51198 179.643 5.90673 179.894 5.46034 180.34C5.01395 180.786 4.76286 181.391 4.76217 182.022V210.583C4.76286 211.214 5.01395 211.819 5.46034 212.265C5.90673 212.711 6.51198 212.962 7.14328 212.963H67.4646C68.0959 212.962 68.7011 212.711 69.1475 212.265C69.5939 211.819 69.845 211.214 69.8457 210.583V195.454C69.8457 194.822 70.0966 194.217 70.5431 193.771C70.9896 193.324 71.5953 193.074 72.2268 193.074C72.8583 193.074 73.464 193.324 73.9105 193.771C74.3571 194.217 74.6079 194.822 74.6079 195.454V213.756C74.6068 214.808 74.1883 215.817 73.4444 216.56C72.7004 217.304 71.6916 217.722 70.6395 217.723Z" fill="#3F3D56"/>
<path d="M38.0977 206.548C37.5128 206.549 36.9336 206.435 36.3931 206.211C35.8527 205.988 35.3617 205.66 34.9484 205.246L20.8688 191.174C20.4226 190.727 20.172 190.122 20.172 189.491C20.172 188.86 20.4226 188.255 20.8688 187.808C21.3226 187.375 21.9256 187.134 22.5527 187.134C23.1798 187.134 23.7828 187.375 24.2366 187.808L37.5365 201.103C37.6873 201.248 37.8883 201.328 38.0973 201.328C38.3063 201.328 38.5073 201.248 38.6581 201.103L82.9147 156.867C83.3683 156.435 83.9712 156.193 84.5982 156.193C85.2252 156.193 85.8281 156.435 86.2817 156.867C86.728 157.314 86.9787 157.919 86.9785 158.55C86.9784 159.181 86.7275 159.787 86.2809 160.233L41.2477 205.246C40.8342 205.66 40.3431 205.988 39.8025 206.211C39.262 206.434 38.6826 206.549 38.0977 206.548Z" fill="#3420FF"/>
<path d="M126.472 275.019H207.074C209.03 275.019 210.616 273.434 210.616 271.478V252.886C210.616 250.93 209.03 249.344 207.074 249.344H126.472C124.515 249.344 122.929 250.93 122.929 252.886V271.478C122.929 273.434 124.515 275.019 126.472 275.019Z" fill="#2F2E41"/>
<path d="M205.302 248.459H83.0714C82.3735 248.459 81.6824 248.596 81.0376 248.863C80.3928 249.13 79.807 249.522 79.3135 250.015C78.82 250.508 78.4285 251.094 78.1615 251.738C77.8944 252.383 77.757 253.073 77.757 253.771V337.878C77.757 339.287 78.3169 340.638 79.3136 341.634C80.3102 342.63 81.6619 343.19 83.0714 343.19H98.1288C99.5382 343.19 100.89 342.63 101.887 341.634C102.883 340.638 103.443 339.287 103.443 337.878V274.134H122.929V338.763C122.929 340.172 123.489 341.523 124.486 342.52C125.482 343.516 126.834 344.075 128.244 344.075H143.301C144.71 344.075 146.062 343.516 147.059 342.52C148.055 341.523 148.615 340.172 148.615 338.763V274.134H205.302C206.711 274.134 208.063 273.574 209.06 272.578C210.056 271.582 210.616 270.231 210.616 268.822V253.771C210.616 253.073 210.479 252.383 210.212 251.738C209.945 251.094 209.553 250.508 209.06 250.015C208.566 249.522 207.981 249.13 207.336 248.863C206.691 248.596 206 248.459 205.302 248.459Z" fill="#2F2E41"/>
<path d="M235.983 275.515L119.818 273.071C119.029 273.054 118.254 272.862 117.549 272.509C116.843 272.155 116.225 271.649 115.74 271.028C115.255 270.406 114.914 269.684 114.742 268.914C114.571 268.144 114.573 267.346 114.749 266.577L143.032 142.806C143.3 141.633 143.959 140.586 144.9 139.836C145.841 139.086 147.009 138.677 148.213 138.677H178.63C188.629 138.677 198.324 142.118 206.084 148.42C213.845 154.723 219.198 163.504 221.245 173.287L241.297 269.117C241.46 269.899 241.445 270.708 241.253 271.484C241.06 272.26 240.695 272.982 240.184 273.597C239.673 274.212 239.03 274.704 238.303 275.036C237.575 275.368 236.782 275.532 235.983 275.515Z" fill="#2F2E41"/>
<path d="M164.044 127.642C190.225 127.642 211.448 106.428 211.448 80.2595C211.448 54.0908 190.225 32.877 164.044 32.877C137.864 32.877 116.641 54.0908 116.641 80.2595C116.641 106.428 137.864 127.642 164.044 127.642Z" fill="#3420FF"/>
<path d="M142.539 54.7469C137.006 53.4424 131.032 51.6874 127.086 47.3332C123.727 43.6265 122.151 37.906 125.128 33.5116C127.846 29.4989 133.208 28.0266 137.721 27.2741C142.966 26.3995 148.357 26.2718 153.279 24.0403C155.696 22.9477 157.805 21.2751 159.419 19.1713C160.917 17.0683 162.218 14.8312 163.304 12.4886C164.333 10.2056 165.708 8.09467 167.38 6.23027C169.282 4.36878 171.735 3.17176 174.373 2.81783C180.311 1.91567 185.949 4.65882 190.621 8.06538C195.146 11.4291 199.251 15.3228 202.849 19.6632C211.018 29.3941 216.641 41.0007 219.213 53.4407C219.559 55.1135 222.121 54.4055 221.776 52.7346C219.316 40.962 214.206 29.9038 206.835 20.3989C203.184 15.6596 198.99 11.364 194.34 7.59994C189.525 3.72285 183.965 0.343939 177.632 0.0237568C174.704 -0.146761 171.78 0.433485 169.139 1.70944C166.712 2.98818 164.67 4.88975 163.221 7.21877C160.237 11.7422 158.798 17.5875 153.984 20.6474C149.108 23.7467 143.002 23.7773 137.471 24.6396C132.551 25.4067 127.074 27.0266 123.743 30.976C120.059 35.3445 120.197 41.2976 122.949 46.1155C126.007 51.4688 131.687 54.3902 137.392 56.1319C138.857 56.5792 140.342 56.9566 141.832 57.308C143.495 57.7001 144.205 55.1397 142.539 54.7468V54.7469Z" fill="#2F2E41"/>
<path d="M169.166 96.0795C166.237 95.9974 162.592 95.8954 159.786 93.8463C158.95 93.2108 158.263 92.4002 157.774 91.4714C157.284 90.5426 157.004 89.518 156.952 88.4694C156.901 87.7244 157.024 86.9778 157.31 86.2879C157.595 85.5979 158.037 84.9834 158.6 84.4923C160.065 83.2534 162.207 82.962 164.515 83.6416L162.124 66.1769L163.879 65.9365L166.69 86.4679L165.224 85.7961C163.524 85.0162 161.193 84.6211 159.743 85.8445C159.387 86.1644 159.11 86.5621 158.933 87.0065C158.756 87.451 158.684 87.9303 158.722 88.4072C158.765 89.1876 158.976 89.9496 159.34 90.6414C159.703 91.3332 160.212 91.9385 160.831 92.4162C163.015 94.0105 165.92 94.2172 169.216 94.3088L169.166 96.0795Z" fill="#2F2E41"/>
<path d="M153.445 67.6831H143.904V69.4538H153.445V67.6831Z" fill="#2F2E41"/>
<path d="M183.559 67.6831H174.019V69.4538H183.559V67.6831Z" fill="#2F2E41"/>
<path d="M73.3721 229.189C72.2663 229.189 71.1836 228.872 70.2531 228.275C69.3227 227.678 68.5837 226.826 68.1243 225.82L62.7044 213.929C62.391 213.241 62.2162 212.498 62.1899 211.743C62.1636 210.988 62.2865 210.235 62.5514 209.527C62.8163 208.819 63.218 208.17 63.7338 207.618C64.2495 207.065 64.8691 206.62 65.5571 206.306L164.71 161.155C166.1 160.524 167.683 160.47 169.113 161.005C170.542 161.539 171.701 162.619 172.336 164.007L177.756 175.898C178.387 177.287 178.441 178.87 177.906 180.299C177.372 181.728 176.292 182.887 174.904 183.521L75.7503 228.672C75.0038 229.012 74.1928 229.189 73.3721 229.189Z" fill="#3420FF"/>
</g>
<defs>
<clipPath id="clip0_10_391">
<rect width="602" height="576" fill="white"/>
</clipPath>
</defs>
</svg>
