<svg width="632" height="548" viewBox="0 0 632 548" fill="none" xmlns="http://www.w3.org/2000/svg">
<g clip-path="url(#clip0_8_167)">
<path d="M270.515 455.949L303.232 498.259L263.333 501.823L270.515 455.949Z" fill="#3F3D56"/>
<path d="M632 305.866C632.003 317.191 631.404 328.509 630.205 339.77C630.189 339.946 630.165 340.113 630.141 340.289C624.432 393.221 605.373 443.835 574.753 487.378C552.561 470.662 530.545 452.229 507.284 436.733C496.741 429.613 485.707 423.251 474.263 417.694C466.486 413.951 458.448 410.776 450.212 408.194C449.933 408.106 449.646 408.018 449.366 407.938C442.18 405.734 434.836 404.085 427.398 403.005C423.628 402.467 419.832 402.136 416.027 402.015C409.151 401.809 402.27 402.232 395.471 403.276C393.372 403.595 391.281 403.971 389.199 404.402C371.563 407.962 354.455 415.139 337.936 423.697H337.928C321.666 432.127 305.985 441.898 290.959 450.919C275.072 460.443 259.926 469.113 245.602 474.446C243.496 475.228 241.405 475.946 239.33 476.569C225.988 480.641 213.404 481.383 201.641 476.673C196.338 474.507 191.444 471.448 187.174 467.628C182.139 463.213 176.877 459.014 171.39 455.031C164.386 449.935 157.114 445.218 149.605 440.901C144.011 437.667 138.266 434.628 132.369 431.784C124.772 428.112 116.965 424.759 108.948 421.725C78.6958 410.389 46.9431 403.56 14.7067 401.456C-0.0633546 354.551 -3.77248 304.862 3.87013 256.283H628.13C630.715 272.684 632.009 289.262 632 305.866Z" fill="#F2F2F2"/>
<path d="M445.129 26.9191C445.137 33.6307 442.606 40.0967 438.043 45.0169C437.692 45.3921 437.325 45.7594 436.958 46.1106C423.201 35.5114 408.769 25.818 393.755 17.0919C393.939 16.6209 394.138 16.1499 394.354 15.6949C396.918 10.1493 401.318 5.65994 406.81 2.98572H406.818C419.106 6.66583 431.157 11.0968 442.903 16.2537C444.373 19.617 445.131 23.2484 445.129 26.9191Z" fill="#FF6584"/>
<path d="M466.727 81.1321L466.702 81.4106C449.188 80.2038 431.676 78.9949 414.167 77.7839C401.516 76.9112 388.425 75.921 377.246 69.93C373.002 67.6586 368.87 64.626 364.057 64.4156C358.087 64.1495 352.878 68.3271 348.782 72.6841C324.575 98.4799 317.566 137.923 290.407 160.581C307.536 118.323 327.986 77.4895 351.566 38.465C355.922 31.2548 361.087 23.5557 369.173 21.2038C376.887 18.9572 384.781 22.2374 391.883 26.4459C393.405 27.3495 394.89 28.2964 396.325 29.2372C407.269 36.4041 418.033 43.8453 428.618 51.5609C441.616 61.024 454.319 70.881 466.727 81.1321Z" fill="#F2F2F2"/>
<path d="M523.37 135.843C504.65 109.409 482.901 85.2577 458.567 63.8833C451.57 57.7314 444.367 51.8065 436.958 46.1084C423.197 35.5124 408.765 25.8187 393.752 17.0882C388.827 14.2288 383.845 11.483 378.805 8.85057C374.889 6.81438 370.72 4.95148 366.203 5.24236C363.044 5.51253 360.026 6.67353 357.499 8.59063C351.95 12.6445 348.275 18.9758 345.25 25.0101C342.602 30.3017 340.134 35.6985 337.616 41.0644C336.546 43.3482 335.475 45.6257 334.368 47.8909C330.508 55.8252 326.557 63.7162 322.515 71.5639C317.306 81.6768 311.946 91.7133 306.436 101.673C294.862 122.611 282.647 143.171 269.794 163.353C250.901 193.017 230.688 221.782 209.155 249.647C206.513 253.057 205.424 253.849 202.746 257.235C202.127 258.027 201.026 256.913 201.638 256.127C223.977 227.88 243.428 201.193 263.038 170.978C277.824 148.196 291.797 124.909 304.958 101.116C309.183 93.4854 313.32 85.8069 317.368 78.0809C323.919 65.5729 330.244 52.9473 336.342 40.2042C337.95 36.8497 339.542 33.4829 341.117 30.1037C346.122 19.3781 353.41 3.429 367.484 3.64562C371.623 3.70751 375.465 5.38474 379.09 7.24144C382.783 9.14147 386.408 11.1591 390.027 13.2077C391.475 14.0246 392.916 14.8539 394.352 15.6956C400.037 19.0006 405.638 22.4437 411.154 26.0251C420.359 31.9975 429.322 38.3268 438.04 45.013C442.179 48.188 446.256 51.4352 450.271 54.7545C475.464 75.6061 498.115 99.3517 517.759 125.501C520.128 128.651 522.448 131.837 524.718 135.057C525.3 135.88 523.945 136.66 523.37 135.843Z" fill="#E4E4E4"/>
<path d="M481.541 36.5388C474.144 40.7539 468.095 46.9807 462.413 53.2715C461.591 54.1816 460.775 55.0943 459.963 56.0097C459.285 56.7601 458.192 55.6505 458.854 54.8921C465.214 47.7791 471.75 40.5065 480.041 35.6128C480.543 35.9161 481.046 36.2275 481.541 36.5388Z" fill="#E4E4E4"/>
<path d="M280.646 130.424L259.676 122.75L249.264 118.941C245.9 117.586 242.469 116.403 238.984 115.399C235.938 114.528 232.703 114.569 229.68 115.517C226.984 116.516 224.516 118.046 222.423 120.018C220.285 121.988 218.295 124.113 216.471 126.377C214.204 129.102 211.971 131.856 209.727 134.601C200.468 145.929 191.27 157.307 182.132 168.733C172.994 180.16 163.917 191.635 154.902 203.158C145.864 214.71 136.889 226.31 127.975 237.958C126.884 239.385 125.793 240.812 124.703 242.241C124.1 243.03 122.742 242.252 123.353 241.452C132.332 229.686 141.374 217.969 150.478 206.3C159.605 194.603 168.794 182.956 178.047 171.358C187.3 159.761 196.615 148.214 205.992 136.717C208.329 133.852 210.669 130.991 213.013 128.133C214.99 125.723 216.945 123.286 219.113 121.042C223.094 116.923 228.067 113.284 234.021 113.185C237.521 113.127 240.908 114.238 244.16 115.415C247.666 116.684 251.164 117.976 254.665 119.257L275.782 126.984L281.062 128.916C281.999 129.259 281.594 130.77 280.646 130.424V130.424Z" fill="#E4E4E4"/>
<path d="M501.881 50.19C489.912 52.7606 478.054 55.7862 466.307 59.2668C473.856 54.8441 479.761 47.9068 487.542 43.9073C488.596 43.3642 489.684 42.8869 490.797 42.4783C494.548 44.961 498.243 47.5316 501.881 50.19Z" fill="#F2F2F2"/>
<path d="M223.213 130.5C225.277 127.986 227.509 125.354 230.597 124.333L233.479 124.447C211.535 163.239 181.898 197.136 146.387 224.056C171.995 192.871 197.604 161.686 223.213 130.5Z" fill="#F2F2F2"/>
<path d="M314.847 172.47C314.847 173.167 314.869 173.859 314.915 174.545C315.168 178.501 316.167 182.373 317.859 185.957C317.872 185.988 317.887 186.016 317.9 186.045C317.979 186.211 318.06 186.377 318.143 186.541C318.646 187.555 319.204 188.541 319.815 189.493C322.605 193.867 326.428 197.486 330.948 200.031C335.468 202.576 340.544 203.967 345.729 204.083L345.417 222.066L341.34 219.919L340.613 221.303L345.386 223.818L344.803 257.217L344.796 257.663L347.948 258.365L347.942 257.917L346.949 204.085C351.123 204.025 355.243 203.136 359.07 201.47C362.897 199.805 366.355 197.395 369.244 194.381C369.443 194.175 369.64 193.963 369.832 193.753L369.854 193.729C372.261 191.103 374.207 188.09 375.611 184.816C375.581 184.851 375.548 184.884 375.517 184.919C388.542 152.174 380.964 136.994 360.527 144.163C360.418 144.108 360.306 144.056 360.197 144.001C353.049 140.557 344.868 139.925 337.276 142.231C329.684 144.536 323.235 149.611 319.207 156.45C319.015 156.774 318.829 157.104 318.65 157.436C316.148 162.051 314.841 167.22 314.847 172.47Z" fill="#E5E5E5"/>
<path d="M277.678 144.617C278.06 150.899 279.684 157.043 282.459 162.692C287.797 173.5 297.167 181.694 308.845 184.751C308.864 184.761 308.886 184.766 308.908 184.764C311.846 185.531 314.862 185.96 317.898 186.045H318.151C318.468 186.058 318.785 186.058 319.102 186.058C319.318 186.058 319.533 186.058 319.749 186.045C330.621 185.877 340.991 181.439 348.621 173.688C356.25 165.937 360.526 155.495 360.526 144.617V144.16C360.507 141.515 360.123 138.886 359.385 136.346C359.385 136.334 359.372 136.321 359.372 136.308C357.995 131.895 355.511 127.908 352.157 124.727C343.852 116.507 330.704 111.345 319.102 103.176C293.693 85.2903 275.028 103.087 277.678 144.617Z" fill="#E5E5E5"/>
<path opacity="0.2" d="M282.459 162.692C287.797 173.5 297.167 181.694 308.845 184.751C308.864 184.761 308.886 184.766 308.908 184.764C311.838 185.492 314.841 185.892 317.86 185.956H318.151C318.684 185.969 319.216 185.969 319.749 185.956C330.65 185.684 341.006 181.129 348.576 173.276C356.146 165.423 360.32 154.904 360.196 143.995C360.158 141.426 359.886 138.866 359.385 136.346C359.385 136.334 359.372 136.321 359.372 136.308C357.995 131.895 355.511 127.908 352.157 124.727C353.284 130.102 353.331 135.648 352.296 141.041C351.261 146.435 349.165 151.569 346.13 156.145C343.094 160.721 339.18 164.647 334.614 167.696C330.048 170.745 324.922 172.856 319.533 173.906C319.14 173.982 318.747 174.058 318.354 174.121C317.213 174.312 316.072 174.451 314.918 174.54C308.974 175.023 302.995 174.214 297.393 172.169C291.79 170.124 286.696 166.891 282.459 162.692Z" fill="black"/>
<path d="M317.699 211.916L311.444 208.622L312.399 206.808L317.74 209.621L318.143 186.542V186.54L318.151 186.051V185.963L318.359 174.123L318.649 157.437L318.873 144.616H318.989L319.207 156.449V156.453L319.528 173.91L319.75 185.956L319.751 186.056L319.815 189.493L321.082 258.435L321.092 258.891L316.86 260.078L316.868 259.619L317.699 211.916Z" fill="#3F3D56"/>
<path d="M67.0216 172.47C67.0216 173.167 67.0442 173.859 67.0893 174.545C67.3427 178.501 68.3416 182.373 70.0335 185.957C70.0466 185.988 70.062 186.016 70.075 186.045C70.1538 186.211 70.2346 186.377 70.3177 186.541C70.8208 187.555 71.379 188.541 71.9897 189.493C74.7794 193.867 78.6031 197.486 83.1229 200.031C87.6426 202.576 92.7193 203.967 97.9043 204.083L97.5917 222.066L93.5153 219.919L92.7874 221.303L97.5611 223.818L96.9775 257.217L96.971 257.663L100.123 258.365L100.116 257.917L99.124 204.085C103.297 204.025 107.417 203.136 111.245 201.47C115.072 199.805 118.53 197.395 121.419 194.381C121.618 194.175 121.814 193.963 122.007 193.753L122.029 193.729C124.435 191.103 126.382 188.09 127.786 184.816C127.755 184.851 127.723 184.884 127.692 184.919C140.717 152.174 133.139 136.994 112.702 144.163C112.593 144.108 112.481 144.056 112.372 144.001C105.224 140.557 97.0429 139.925 89.4509 142.231C81.8589 144.536 75.4099 149.611 71.3822 156.45C71.1897 156.774 71.0039 157.104 70.8247 157.436C68.3228 162.051 67.0154 167.22 67.0216 172.47Z" fill="#E5E5E5"/>
<path d="M112.699 144.159V144.614C112.7 155.492 108.426 165.934 100.798 173.686C93.1704 181.437 82.8015 185.877 71.9299 186.047H71.9219C71.7065 186.055 71.491 186.055 71.2756 186.055C70.9564 186.055 70.6451 186.055 70.326 186.047H70.0706C67.0363 185.963 64.0217 185.531 61.0853 184.762C61.0637 184.763 61.0421 184.76 61.0215 184.754C49.3391 181.696 39.9709 173.497 34.6324 162.696C34.5605 162.545 34.4887 162.401 34.4169 162.249C44.9973 141.532 57.8321 122.047 72.688 104.148C83.9315 111.764 96.3641 116.841 104.336 124.728C107.689 127.911 110.172 131.898 111.55 136.312C111.55 136.32 111.558 136.336 111.558 136.344C112.297 138.884 112.681 141.514 112.699 144.159Z" fill="#E5E5E5"/>
<path opacity="0.2" d="M34.6335 162.692C39.9716 173.5 49.3416 181.694 61.0194 184.751C61.0389 184.761 61.0609 184.766 61.0828 184.764C64.0133 185.492 67.0156 185.892 70.0344 185.956H70.3261C70.8586 185.969 71.3912 185.969 71.9237 185.956C82.8253 185.684 93.1813 181.129 100.751 173.276C108.321 165.423 112.495 154.904 112.371 143.995C112.332 141.426 112.061 138.866 111.56 136.346C111.56 136.334 111.547 136.321 111.547 136.308C110.17 131.895 107.686 127.908 104.332 124.727C105.459 130.102 105.506 135.648 104.471 141.041C103.436 146.435 101.34 151.569 98.3045 156.145C95.2689 160.721 91.3544 164.647 86.7886 167.696C82.2227 170.745 77.0966 172.856 71.7081 173.906C71.3151 173.982 70.922 174.058 70.529 174.121C69.3878 174.312 68.2467 174.451 67.0928 174.54C61.1485 175.023 55.1702 174.214 49.5676 172.169C43.965 170.124 38.8706 166.891 34.6335 162.692Z" fill="black"/>
<path d="M69.8735 211.916L63.6189 208.622L64.5733 206.808L69.915 209.621L70.3172 186.542V186.54L70.326 186.051V185.963L70.5342 174.123L70.8247 157.437L71.0473 144.616H71.1638L71.3825 156.449V156.453L71.7033 173.91L71.9251 185.956L71.9259 186.056L71.9897 189.493L73.2577 258.435L73.2665 258.891L69.0356 260.078L69.0428 259.619L69.8735 211.916Z" fill="#3F3D56"/>
<path d="M564.978 172.47C564.978 173.167 564.956 173.859 564.911 174.545C564.657 178.501 563.658 182.373 561.966 185.957C561.953 185.988 561.938 186.016 561.925 186.045C561.846 186.211 561.765 186.377 561.682 186.541C561.179 187.555 560.621 188.541 560.01 189.493C557.221 193.867 553.397 197.486 548.877 200.031C544.357 202.576 539.281 203.967 534.096 204.083L534.408 222.066L538.485 219.919L539.213 221.303L534.439 223.818L535.022 257.217L535.029 257.663L531.877 258.365L531.884 257.917L532.876 204.085C528.703 204.025 524.583 203.136 520.755 201.47C516.928 199.805 513.47 197.395 510.581 194.381C510.382 194.175 510.185 193.963 509.993 193.753L509.971 193.729C507.564 191.103 505.618 188.09 504.214 184.816C504.245 184.851 504.277 184.884 504.308 184.919C491.283 152.174 498.861 136.994 519.298 144.163C519.407 144.108 519.519 144.056 519.628 144.001C526.776 140.557 534.957 139.925 542.549 142.231C550.141 144.536 556.59 149.611 560.618 156.45C560.81 156.774 560.996 157.104 561.175 157.436C563.677 162.051 564.985 167.22 564.978 172.47Z" fill="#E5E5E5"/>
<path d="M519.301 144.159V144.614C519.3 155.492 523.574 165.934 531.202 173.686C538.83 181.437 549.198 185.877 560.07 186.047H560.078C560.294 186.055 560.509 186.055 560.724 186.055C561.044 186.055 561.355 186.055 561.674 186.047H561.929C564.964 185.963 567.978 185.531 570.915 184.762C570.936 184.763 570.958 184.76 570.979 184.754C582.661 181.696 592.029 173.497 597.368 162.696C597.439 162.545 597.511 162.401 597.583 162.249C587.003 141.532 574.168 122.047 559.312 104.148C548.068 111.764 535.636 116.841 527.664 124.728C524.311 127.911 521.828 131.898 520.45 136.312C520.45 136.32 520.442 136.336 520.442 136.344C519.703 138.884 519.319 141.514 519.301 144.159Z" fill="#E5E5E5"/>
<path opacity="0.2" d="M597.366 162.692C592.028 173.5 582.658 181.694 570.981 184.751C570.961 184.761 570.939 184.766 570.917 184.764C567.987 185.492 564.984 185.892 561.966 185.956H561.674C561.141 185.969 560.609 185.969 560.076 185.956C549.175 185.684 538.819 181.129 531.249 173.276C523.679 165.423 519.505 154.904 519.629 143.995C519.668 141.426 519.939 138.866 520.44 136.346C520.44 136.334 520.453 136.321 520.453 136.308C521.83 131.895 524.314 127.908 527.668 124.727C526.541 130.102 526.494 135.648 527.529 141.041C528.564 146.435 530.66 151.569 533.696 156.145C536.731 160.721 540.646 164.647 545.211 167.696C549.777 170.745 554.903 172.856 560.292 173.906C560.685 173.982 561.078 174.058 561.471 174.121C562.612 174.312 563.753 174.451 564.907 174.54C570.852 175.023 576.83 174.214 582.432 172.169C588.035 170.124 593.129 166.891 597.366 162.692Z" fill="black"/>
<path d="M562.126 211.916L568.381 208.622L567.427 206.808L562.085 209.621L561.683 186.542V186.54L561.674 186.051V185.963L561.466 174.123L561.175 157.437L560.953 144.616H560.836L560.618 156.449V156.453L560.297 173.91L560.075 185.956L560.074 186.056L560.01 189.493L558.742 258.435L558.733 258.891L562.964 260.078L562.957 259.619L562.126 211.916Z" fill="#3F3D56"/>
<path d="M630.205 339.77C630.189 339.946 630.165 340.113 630.141 340.289C613.742 347.49 591.311 351.928 566.55 351.928C539.506 351.928 515.216 346.636 498.562 338.229C488.507 333.16 481.238 326.957 477.822 320.108C476.394 317.342 475.64 314.279 475.62 311.167C475.618 310.376 475.669 309.587 475.771 308.804C475.961 307.336 476.317 305.895 476.833 304.509C478.354 300.647 480.708 297.169 483.727 294.322C484.406 293.66 485.124 292.997 485.874 292.35C491.603 287.433 499.503 283.106 509.007 279.617C496.383 285.924 488.084 294.019 486.209 302.936C486.169 303.096 486.145 303.255 486.121 303.407C485.907 304.525 485.8 305.661 485.802 306.8C485.802 306.912 485.802 307.031 485.81 307.143C485.81 307.143 485.818 307.151 485.81 307.151C485.938 314.272 490.143 320.954 497.429 326.758C513.013 339.171 542.69 347.562 576.74 347.562C596.721 347.562 615.195 344.664 630.205 339.77Z" fill="#E6E6E6"/>
<path d="M476.923 295.076C460.645 303.215 450.735 313.964 450.735 325.755C450.735 351.153 496.676 371.743 553.345 371.743C577.984 371.743 600.588 367.848 618.276 361.361C599.489 370.755 572.217 376.67 541.853 376.67C485.184 376.67 439.243 356.081 439.243 330.682C439.243 316.326 453.927 303.509 476.923 295.076Z" fill="#E6E6E6"/>
<path d="M521.29 286.425C511.127 291.507 504.939 298.218 504.939 305.58C504.939 321.438 533.623 334.293 569.005 334.293C582.79 334.472 596.503 332.279 609.546 327.811C597.816 333.677 580.788 337.37 561.83 337.37C526.447 337.37 497.764 324.514 497.764 308.656C497.764 299.693 506.932 291.69 521.29 286.425Z" fill="#E6E6E6"/>
<path d="M612.697 299.384C612.231 298.216 611.423 297.217 610.379 296.518C609.335 295.818 608.104 295.451 606.848 295.464H533.944C532.952 295.463 531.984 295.772 531.175 296.347C530.366 296.922 529.756 297.735 529.431 298.673C529.105 299.61 529.08 300.627 529.358 301.579C529.636 302.532 530.205 303.375 530.984 303.99C538.413 309.833 552.146 316.795 575.407 316.795C596.306 316.795 606.473 311.055 611.316 306.249C612.212 305.378 612.823 304.255 613.069 303.03C613.316 301.805 613.186 300.534 612.697 299.384Z" fill="#3F3D56"/>
<path d="M560.269 243.393C565.953 239.073 573.087 237.121 580.177 237.945C567.59 241.054 577.522 258.457 566.059 276.505C559.812 286.341 571.962 291.163 583.535 292.483C577.341 293.979 570.821 293.296 565.071 290.548C559.321 287.801 554.691 283.157 551.961 277.397C549.232 271.636 548.567 265.111 550.08 258.919C551.593 252.726 555.191 247.244 560.269 243.393L560.269 243.393Z" fill="#3F3D56"/>
<path d="M575.855 234.32H573.17V298.244H575.855V234.32Z" fill="#3F3D56"/>
<path d="M232.731 13.3957L232.699 13.7789C221.95 13.0365 211.204 12.294 200.461 11.5516C207.331 8.84537 214.282 6.37854 221.376 4.15125C225.182 7.2008 228.967 10.2823 232.731 13.3957Z" fill="#F2F2F2"/>
<path d="M311.475 87.4712C311.383 87.6399 311.25 87.7826 311.088 87.8861C310.926 87.9896 310.741 88.0505 310.549 88.0632C310.357 88.076 310.165 88.0401 309.991 87.9589C309.817 87.8778 309.666 87.7539 309.552 87.5989C287.232 56.0713 261.721 26.9304 233.425 0.638653C234.231 0.415125 235.045 0.199578 235.851 0C259.989 22.5431 282.104 47.1617 301.94 73.5726C305.155 77.8436 308.302 82.1625 311.38 86.5292C311.486 86.6598 311.551 86.8185 311.568 86.9859C311.585 87.1532 311.553 87.3219 311.475 87.4712Z" fill="#E4E4E4"/>
<path d="M358.422 192.346C359.627 192.081 360.876 192.085 362.081 192.356C363.285 192.626 364.415 193.158 365.392 193.913C366.369 194.669 367.168 195.629 367.733 196.726C368.299 197.824 368.617 199.032 368.665 200.266L432.205 224.812L420.209 234.776L359.955 209.143C357.878 209.086 355.893 208.27 354.377 206.847C352.862 205.425 351.92 203.496 351.731 201.426C351.542 199.355 352.119 197.287 353.352 195.614C354.585 193.94 356.389 192.777 358.422 192.346Z" fill="#FFB6B6"/>
<path d="M484.465 266.116C481.817 266.732 477.854 266.444 472.147 263.548C459.008 256.873 433.345 244.016 433.345 244.016L421.54 238.368L386.475 221.629L386.824 220.582L390.745 208.792L391.834 205.568L424.456 218.815L445.109 227.195L467.61 230.789L483.151 246.419C483.5 251.307 483.993 258.434 484.465 266.116Z" fill="#3F3D56"/>
<path d="M139.866 238.938L142.729 220.773C154.374 217.918 181.196 223.889 181.196 223.889L226.888 219.321C228.007 218.424 229.345 217.84 230.763 217.628C232.182 217.416 233.632 217.585 234.964 218.116C236.297 218.647 237.465 219.522 238.349 220.651C239.234 221.781 239.803 223.125 240 224.546C240.196 225.968 240.013 227.416 239.468 228.743C238.923 230.071 238.036 231.23 236.897 232.103C235.759 232.976 234.409 233.531 232.987 233.712C231.564 233.894 230.118 233.695 228.797 233.135L173.844 240.787L139.866 238.938Z" fill="#FFB6B6"/>
<path d="M143.852 240.5L119.286 230.808L110.726 219.921C109.211 217.585 108.379 214.872 108.324 212.087C108.27 209.303 108.995 206.559 110.417 204.165C112.367 200.933 115.472 198.563 119.102 197.533C122.732 196.503 126.618 196.891 129.974 198.618C140.146 203.863 152.373 211.808 152.857 219.866L152.862 219.947L153.322 221.363L146.289 240.659L143.852 240.5Z" fill="#3F3D56"/>
<path d="M305.133 333.491C305.133 423.135 278.75 522.841 245.599 528.804C243.528 529.188 241.404 529.188 239.333 528.804C206.182 522.841 179.8 423.135 179.8 333.491C179.8 243.846 206.182 197.19 239.333 194.444C240.373 194.357 241.413 194.313 242.466 194.313C243.519 194.313 244.559 194.357 245.599 194.444C278.75 197.19 305.133 243.846 305.133 333.491Z" fill="#3420FF"/>
<path d="M245.599 194.444V528.804C243.528 529.188 241.404 529.188 239.333 528.804V194.444C240.373 194.357 241.413 194.313 242.466 194.313C243.519 194.313 244.559 194.357 245.599 194.444Z" fill="#F2F2F2"/>
<path d="M455.002 333.491C455.002 423.135 428.619 522.841 395.469 528.804C393.397 529.188 391.273 529.188 389.202 528.804C356.051 522.841 329.669 423.135 329.669 333.491C329.669 243.846 356.051 197.19 389.202 194.444C390.242 194.357 391.282 194.313 392.335 194.313C393.388 194.313 394.428 194.357 395.469 194.444C428.619 197.19 455.002 243.846 455.002 333.491Z" fill="#3420FF"/>
<path d="M395.469 194.444V528.804C393.397 529.188 391.273 529.188 389.202 528.804V194.444C390.242 194.357 391.282 194.313 392.335 194.313C393.388 194.313 394.428 194.357 395.469 194.444Z" fill="#F2F2F2"/>
<path d="M483.727 320.2L431.823 319.334L427.498 283.852H483.727V320.2Z" fill="#9E616A"/>
<path d="M435.743 537.28L423.761 537.279L418.06 491.042L435.746 491.043L435.743 537.28Z" fill="#FFB6B6"/>
<path d="M512.081 537.119L500.099 537.034L494.723 490.758L510.307 494.334L512.081 537.119Z" fill="#FFB6B6"/>
<path d="M451.808 189.741C462.29 189.741 470.787 181.241 470.787 170.755C470.787 160.269 462.29 151.769 451.808 151.769C441.327 151.769 432.83 160.269 432.83 170.755C432.83 181.241 441.327 189.741 451.808 189.741Z" fill="#FFB6B6"/>
<path d="M512.386 496.23L507.085 434.438L496.704 360.875C504.174 319.598 487.188 302.891 487.188 302.891L484.771 303.007L430.081 313.329L430.093 313.276C418.906 343.799 415.2 358.877 415.813 391.381L417.948 496.23L436.346 495.51L458.168 358.109L476.166 424.708L495.198 500.867C500.068 504.446 513.983 496.866 512.386 496.23Z" fill="#2F2E41"/>
<path d="M485.697 307.275L432.319 315.49C430.471 315.963 423.08 273.735 422.054 266.198C420.772 256.975 420.599 247.632 421.541 238.368C421.705 236.602 421.91 234.876 422.136 233.172C422.649 229.29 423.285 225.49 423.963 221.629C424.127 220.705 424.292 219.76 424.456 218.815C424.784 216.926 425.133 215.036 425.462 213.085C425.874 210.701 427.117 208.539 428.969 206.983C430.822 205.427 433.164 204.577 435.583 204.582H435.788C435.884 204.578 435.975 204.541 436.046 204.477C436.117 204.413 436.164 204.327 436.178 204.233C436.353 202.848 437.028 201.574 438.075 200.651C439.122 199.729 440.47 199.22 441.865 199.221H463.422C464.227 199.22 465.024 199.376 465.768 199.683C466.513 199.99 467.189 200.44 467.759 201.009C468.329 201.577 468.782 202.252 469.091 202.996C469.4 203.739 469.559 204.537 469.56 205.342C469.559 205.442 469.597 205.539 469.666 205.612C469.735 205.685 469.83 205.728 469.93 205.732L477.218 206.205C477.749 206.276 478.265 206.437 478.741 206.682C480.969 207.745 482.803 209.486 483.98 211.655C485.156 213.825 485.616 216.313 485.291 218.76L482.658 239.826V239.888C482.699 240.175 482.884 242.619 483.151 246.419C483.5 251.307 483.993 258.434 484.465 266.116C485.635 284.929 486.764 307.008 485.697 307.275Z" fill="#3F3D56"/>
<path d="M472.131 153.872C475.667 154.925 478.965 151.967 481.426 149.164L480.552 150.202C486.341 154.28 489.802 160.924 492.048 167.65C494.294 174.368 495.547 181.405 498.082 188.027C500.617 194.642 504.708 201.041 510.971 204.341C519.362 208.761 529.643 206.751 538.567 203.562C538.686 203.518 538.797 203.481 538.916 203.436C535.301 196.682 533.087 189.267 532.408 181.635C536.079 188.806 541.373 195.019 547.87 199.781C553.701 197.129 559.308 194.009 564.636 190.452C568.083 188.146 571.715 185.165 572.115 181.035C572.523 176.934 569.461 173.189 565.852 171.217C562.242 169.244 558.091 168.577 554.148 167.39C550.212 166.211 546.194 164.276 544.126 160.717C539.36 152.53 547.38 140.985 542.266 133.006C539.746 129.083 534.854 127.511 530.317 126.421C523.393 124.764 516.365 123.577 509.281 122.869C503.063 122.246 496.636 122.016 490.721 124.018C484.806 126.02 479.44 130.67 478.172 136.795C474.718 138.612 471.064 140.621 469.211 144.069C467.358 147.51 468.388 152.76 472.131 153.872Z" fill="#2F2E41"/>
<path d="M477.409 152.493C480.795 156.736 482.638 161.324 482.638 164.072C489.671 176.932 479.613 187.978 466.759 195.014C461.632 197.835 455.712 198.868 449.933 197.949L449.395 195.652L448.666 197.721C448.666 197.721 440.297 225.375 437.536 226.997C438.584 222.076 439.784 199.288 440.367 194.485C441.174 187.948 438.36 178.216 436.33 172.298C435.071 168.65 434.425 164.819 434.418 160.96V160.791L432.441 167.144L425.244 164.072C426.583 156.389 425.244 147.667 441.296 148.424C449.978 142.45 457.623 141.541 463.903 143.235C464.714 141.981 469.387 144.329 470.738 143.669L477.409 152.493Z" fill="#2F2E41"/>
<path d="M340.669 234.789C341.023 235.972 341.631 237.063 342.452 237.986C343.273 238.908 344.285 239.639 345.419 240.128C346.553 240.616 347.78 240.85 349.014 240.813C350.247 240.776 351.458 240.468 352.56 239.913L374.374 259.829L377.27 244.501L356.098 227.988C355.042 226.197 353.366 224.857 351.387 224.22C349.409 223.583 347.266 223.694 345.364 224.533C343.462 225.371 341.934 226.878 341.069 228.768C340.204 230.659 340.061 232.801 340.669 234.789Z" fill="#FFB6B6"/>
<path d="M416.594 219.566C416.594 219.566 424.2 202.369 433.807 205.787C443.414 209.206 438.454 225.891 438.454 225.891L402.36 280.301C402.36 280.301 364.398 256.165 370.729 255.929C377.059 255.693 376.888 243.605 376.888 243.605L392.37 248.655L393.301 243.759L394.793 245.251L398.643 242.219L416.594 219.566Z" fill="#3F3D56"/>
<path d="M90.3146 508.986L101.523 511.93L118.21 470.08L101.667 465.734L90.3146 508.986Z" fill="#FFB6B6"/>
<path d="M86.8488 520.58L121.317 529.635L121.432 529.199C122.366 525.64 121.848 521.854 119.993 518.676C118.138 515.498 115.097 513.188 111.539 512.253L111.538 512.253L105.892 502.392L93.4952 507.513L90.4863 506.722L86.8488 520.58Z" fill="#FFB6B6"/>
<path d="M147.775 517.375L159.363 517.374L164.876 472.655L147.772 472.657L147.775 517.375Z" fill="#FFB6B6"/>
<path d="M147.366 529.47L183.003 529.468V529.017C183.003 525.337 181.542 521.808 178.94 519.205C176.339 516.603 172.811 515.141 169.133 515.141H169.132L159.27 510.607L150.477 515.142L147.366 515.142L147.366 529.47Z" fill="#FFB6B6"/>
<path d="M118.789 303.378C115.99 306.879 117.39 318.782 117.39 318.782L120.262 395.591C108.365 405.393 99.7325 469.53 99.7325 469.53C101.132 473.731 115.41 474.338 118.209 473.638C121.009 472.938 157.217 348.352 157.217 348.352C157.217 348.352 146.952 471.491 146.952 475.692C146.952 479.893 161.229 475.692 165.429 475.692C169.628 475.692 197.874 318.082 197.874 318.082V308.279L194.374 303.378C194.374 303.378 121.589 299.878 118.789 303.378Z" fill="#2F2E41"/>
<path d="M116.157 307.275C116.157 307.275 123.502 288.574 124.935 285.491C121.425 284.351 120.901 266.813 120.901 266.813L116.286 262.196L116.273 262.08L113.617 238.832L109.756 223.391C108.301 217.553 108.425 211.434 110.115 205.66C111.805 199.886 115.001 194.667 119.374 190.537L128.3 189.119L139.147 178.663H156.641L162.639 184.396C174.431 194.066 177.23 189.865 190.528 208.069L181.007 233.164C181.007 233.164 191.971 285.282 191.377 288.251C191.377 288.251 195.958 293.836 196.61 296.879C196.61 296.879 198.753 309.006 198.277 309.329C194.53 311.867 174.593 308.89 165.428 305.221C155.666 301.316 116.157 307.275 116.157 307.275Z" fill="#3F3D56"/>
<path d="M225.705 212.424C225.705 212.424 198.788 206.904 187.191 209.954L184.634 228.165L217.468 231.081L273.51 220.889C274.842 221.416 276.289 221.581 277.705 221.367C279.121 221.153 280.456 220.569 281.573 219.672C282.69 218.776 283.55 217.599 284.065 216.263C284.581 214.926 284.734 213.477 284.509 212.062C284.284 210.648 283.689 209.318 282.784 208.207C281.879 207.097 280.696 206.246 279.356 205.741C278.016 205.236 276.566 205.094 275.154 205.331C273.742 205.568 272.417 206.174 271.314 207.088L225.705 212.424Z" fill="#FFB6B6"/>
<path d="M188.012 229.228L166.457 229.489L156.286 219.605C154.296 217.658 152.89 215.192 152.228 212.488C151.565 209.783 151.672 206.947 152.536 204.299C153.732 200.719 156.242 197.726 159.559 195.926C162.876 194.126 166.752 193.653 170.404 194.603C181.478 197.493 185.776 196.826 188.012 204.582L198.277 208.69L196.224 229.228L188.012 229.228Z" fill="#3F3D56"/>
<path d="M149.501 172.821C162.648 172.821 173.306 162.159 173.306 149.006C173.306 135.854 162.648 125.191 149.501 125.191C136.354 125.191 125.696 135.854 125.696 149.006C125.696 162.159 136.354 172.821 149.501 172.821Z" fill="#FFB8B8"/>
<path d="M127.269 164.11C125.505 161.591 124.254 157.558 123.514 154.609C122.526 150.727 122.363 146.681 123.037 142.732C123.712 138.783 125.208 135.02 127.429 131.686C128.248 130.328 129.423 129.219 130.826 128.479C131.534 128.126 132.336 128.006 133.116 128.137C133.896 128.267 134.615 128.641 135.169 129.206C135.172 128.138 135.394 127.082 135.821 126.103C136.248 125.124 136.871 124.243 137.651 123.514C139.225 122.065 141.114 121.003 143.169 120.411C147.129 119.203 151.341 119.09 155.36 120.084C159.378 121.078 163.053 123.142 165.993 126.057C167.142 127.226 166.732 121.383 168.008 122.412C169.244 123.518 170.863 124.096 172.519 124.022C174.149 123.849 177.146 129.658 177.164 128.019C178.878 129.738 179.633 136.986 179.097 139.354C178.561 141.722 170.582 140.675 168.295 141.487C166.78 142.025 165.134 142.043 163.564 142.393C160.774 143.114 158.345 144.832 156.734 147.223C155.124 149.614 154.444 152.512 154.824 155.369C153.82 154.019 152.604 152.839 151.225 151.877C150.53 151.401 149.731 151.099 148.895 150.995C148.06 150.89 147.212 150.987 146.421 151.277C145.707 151.66 145.08 152.185 144.576 152.819C144.073 153.454 143.704 154.185 143.493 154.967C142.974 156.498 142.772 158.124 142.243 159.652C140.691 164.135 139.89 168.841 135.561 169.904C132.146 170.743 129.678 167.549 127.269 164.11Z" fill="#2F2E41"/>
<path d="M435.745 548L400.108 547.999V547.548C400.108 543.868 401.57 540.338 404.171 537.736C406.772 535.134 410.3 533.671 413.979 533.671H413.98L423.842 529.138L432.635 533.672L435.745 533.672L435.745 548Z" fill="#FFB6B6"/>
<path d="M512.081 548L476.444 547.999V547.548C476.444 543.868 477.905 540.338 480.507 537.736C483.108 535.134 486.636 533.671 490.315 533.671H490.315L500.178 529.138L508.97 533.672L512.081 533.672L512.081 548Z" fill="#FFB6B6"/>
</g>
<defs>
<clipPath id="clip0_8_167">
<rect width="632" height="548" fill="white"/>
</clipPath>
</defs>
</svg>
